<svg width="626" height="350" viewBox="0 0 626 350" fill="none" xmlns="http://www.w3.org/2000/svg">
<rect width="626" height="350" rx="16" fill="#F9FAFB"/>
<path d="M50.248 39.864H58.312V57H54.736V50.544H50.104L47.8 57H44.2L46.768 49.776C45.072 48.88 44.224 47.352 44.224 45.192C44.224 43.512 44.752 42.208 45.808 41.28C46.864 40.336 48.344 39.864 50.248 39.864ZM54.736 47.496V43.008H51.112C49.928 43.008 49.088 43.184 48.592 43.536C48.112 43.872 47.872 44.44 47.872 45.24C47.872 45.992 48.096 46.56 48.544 46.944C48.992 47.312 49.728 47.496 50.752 47.496H54.736ZM75.7611 48.288C75.7611 47.488 75.0571 47.088 73.6491 47.088C72.3051 47.088 71.5371 47.536 71.3451 48.432H68.2731C68.4011 47.088 68.9691 46.072 69.9771 45.384C70.9851 44.696 72.2891 44.352 73.8891 44.352C75.4891 44.352 76.7531 44.688 77.6811 45.36C78.6251 46.016 79.0971 46.864 79.0971 47.904C79.0971 49.104 78.6811 49.888 77.8491 50.256V50.88C78.9211 51.232 79.4571 52.08 79.4571 53.424C79.4571 54.56 78.9451 55.496 77.9211 56.232C76.8971 56.952 75.5531 57.312 73.8891 57.312C72.0011 57.312 70.5531 56.952 69.5451 56.232C68.5531 55.496 67.9851 54.464 67.8411 53.136H70.9371C71.2091 54.096 72.1371 54.576 73.7211 54.576C75.3051 54.576 76.0971 54.136 76.0971 53.256C76.0971 52.824 75.9371 52.512 75.6171 52.32C75.3131 52.128 74.8091 52.032 74.1051 52.032H72.0891V49.464H73.9851C75.1691 49.464 75.7611 49.072 75.7611 48.288ZM90.0006 57V55.944H89.3766C88.5926 56.856 87.4406 57.312 85.9206 57.312C84.5766 57.312 83.5126 56.92 82.7286 56.136C81.9446 55.336 81.5526 54.36 81.5526 53.208C81.5526 52.104 81.9686 51.144 82.8006 50.328C83.6326 49.512 84.8886 49.104 86.5686 49.104H89.8566V48.792C89.8566 47.512 89.1286 46.872 87.6726 46.872C86.3766 46.872 85.6806 47.312 85.5846 48.192H82.2486C82.2806 47.024 82.7846 46.096 83.7606 45.408C84.7366 44.704 85.9846 44.352 87.5046 44.352C89.2646 44.352 90.6326 44.728 91.6086 45.48C92.6006 46.232 93.0966 47.4 93.0966 48.984V57H90.0006ZM87.0966 54.648C87.9126 54.648 88.5766 54.408 89.0886 53.928C89.6006 53.448 89.8566 52.824 89.8566 52.056V51.288H87.2166C85.6806 51.288 84.9126 51.84 84.9126 52.944C84.9126 54.08 85.6406 54.648 87.0966 54.648ZM105.023 57L102.527 52.08H99.8391V57H96.4791V44.664H99.8391V49.272H102.575L104.927 44.664H108.359L105.335 50.616L108.551 57H105.023ZM118.735 57V55.944H118.111C117.327 56.856 116.175 57.312 114.655 57.312C113.311 57.312 112.247 56.92 111.463 56.136C110.679 55.336 110.287 54.36 110.287 53.208C110.287 52.104 110.703 51.144 111.535 50.328C112.367 49.512 113.623 49.104 115.303 49.104H118.591V48.792C118.591 47.512 117.863 46.872 116.407 46.872C115.111 46.872 114.415 47.312 114.319 48.192H110.983C111.015 47.024 111.519 46.096 112.495 45.408C113.471 44.704 114.719 44.352 116.239 44.352C117.999 44.352 119.367 44.728 120.343 45.48C121.335 46.232 121.831 47.4 121.831 48.984V57H118.735ZM115.831 54.648C116.647 54.648 117.311 54.408 117.823 53.928C118.335 53.448 118.591 52.824 118.591 52.056V51.288H115.951C114.415 51.288 113.647 51.84 113.647 52.944C113.647 54.08 114.375 54.648 115.831 54.648ZM132.246 48.288C132.246 47.488 131.542 47.088 130.134 47.088C128.79 47.088 128.022 47.536 127.83 48.432H124.758C124.886 47.088 125.454 46.072 126.462 45.384C127.47 44.696 128.774 44.352 130.374 44.352C131.974 44.352 133.238 44.688 134.166 45.36C135.11 46.016 135.582 46.864 135.582 47.904C135.582 49.104 135.166 49.888 134.334 50.256V50.88C135.406 51.232 135.942 52.08 135.942 53.424C135.942 54.56 135.43 55.496 134.406 56.232C133.382 56.952 132.038 57.312 130.374 57.312C128.486 57.312 127.038 56.952 126.03 56.232C125.038 55.496 124.47 54.464 124.326 53.136H127.422C127.694 54.096 128.622 54.576 130.206 54.576C131.79 54.576 132.582 54.136 132.582 53.256C132.582 52.824 132.422 52.512 132.102 52.32C131.798 52.128 131.294 52.032 130.59 52.032H128.574V49.464H130.47C131.654 49.464 132.246 49.072 132.246 48.288ZM146.485 57V55.944H145.861C145.077 56.856 143.925 57.312 142.405 57.312C141.061 57.312 139.997 56.92 139.213 56.136C138.429 55.336 138.037 54.36 138.037 53.208C138.037 52.104 138.453 51.144 139.285 50.328C140.117 49.512 141.373 49.104 143.053 49.104H146.341V48.792C146.341 47.512 145.613 46.872 144.157 46.872C142.861 46.872 142.165 47.312 142.069 48.192H138.733C138.765 47.024 139.269 46.096 140.245 45.408C141.221 44.704 142.469 44.352 143.989 44.352C145.749 44.352 147.117 44.728 148.093 45.48C149.085 46.232 149.581 47.4 149.581 48.984V57H146.485ZM143.581 54.648C144.397 54.648 145.061 54.408 145.573 53.928C146.085 53.448 146.341 52.824 146.341 52.056V51.288H143.701C142.165 51.288 141.397 51.84 141.397 52.944C141.397 54.08 142.125 54.648 143.581 54.648ZM151.716 57V53.784H152.148C152.948 53.784 153.524 53.504 153.876 52.944C154.228 52.368 154.404 51.336 154.404 49.848V44.664H164.94V57H161.58V47.472H157.5V49.968C157.5 52.544 157.076 54.36 156.228 55.416C155.38 56.472 154.02 57 152.148 57H151.716ZM181.422 47.16C180.43 47.16 179.678 47.512 179.166 48.216C178.67 48.904 178.422 49.776 178.422 50.832C178.422 51.888 178.67 52.768 179.166 53.472C179.678 54.176 180.43 54.528 181.422 54.528C182.382 54.528 183.11 54.184 183.606 53.496C184.118 52.808 184.374 51.92 184.374 50.832C184.374 49.76 184.118 48.88 183.606 48.192C183.11 47.504 182.382 47.16 181.422 47.16ZM175.182 44.664H178.422V45.792H179.046C179.814 44.832 180.966 44.352 182.502 44.352C184.102 44.352 185.374 44.96 186.318 46.176C187.262 47.376 187.734 48.928 187.734 50.832C187.734 52.752 187.262 54.312 186.318 55.512C185.374 56.712 184.102 57.312 182.502 57.312C180.998 57.312 179.886 56.832 179.166 55.872H178.542V61.8H175.182V44.664ZM202.053 50.208V51.216H193.221C193.317 53.424 194.317 54.528 196.221 54.528C197.437 54.528 198.205 54.096 198.525 53.232H201.933C201.677 54.512 201.061 55.512 200.085 56.232C199.109 56.952 197.805 57.312 196.173 57.312C194.237 57.312 192.701 56.72 191.565 55.536C190.445 54.352 189.885 52.768 189.885 50.784C189.885 48.816 190.445 47.256 191.565 46.104C192.685 44.936 194.197 44.352 196.101 44.352C197.925 44.352 199.365 44.896 200.421 45.984C201.477 47.072 202.021 48.48 202.053 50.208ZM198.621 48.984C198.397 47.576 197.549 46.872 196.077 46.872C194.605 46.872 193.693 47.576 193.341 48.984H198.621ZM216.877 54.216H219.061V60.432H215.893V57H206.749V60.432H203.581V54.216H205.405C206.125 52.376 206.485 50.376 206.485 48.216V44.664H216.877V54.216ZM213.517 54.216V47.472H209.509V48.24C209.509 50.528 209.205 52.52 208.597 54.216H213.517ZM230.086 57L227.59 52.08H224.902V57H221.542V44.664H224.902V49.272H227.638L229.99 44.664H233.422L230.398 50.616L233.614 57H230.086ZM239.478 57H236.214V44.664H239.478V51.624H240.054L244.83 44.664H248.142V57H244.878V50.064H244.302L239.478 57ZM254.946 57H251.682V44.664H254.946V51.624H255.522L260.298 44.664H263.61V57H260.346V50.064H259.77L254.946 57ZM259.41 39.768H262.002C261.906 40.904 261.482 41.792 260.73 42.432C259.994 43.056 258.962 43.368 257.634 43.368C256.306 43.368 255.274 43.056 254.538 42.432C253.802 41.792 253.386 40.904 253.29 39.768H255.882C255.93 40.2 256.098 40.552 256.386 40.824C256.674 41.096 257.09 41.232 257.634 41.232C258.706 41.232 259.298 40.744 259.41 39.768ZM281.415 57V55.944H280.791C280.007 56.856 278.855 57.312 277.335 57.312C275.991 57.312 274.927 56.92 274.143 56.136C273.359 55.336 272.967 54.36 272.967 53.208C272.967 52.104 273.383 51.144 274.215 50.328C275.047 49.512 276.303 49.104 277.983 49.104H281.271V48.792C281.271 47.512 280.543 46.872 279.087 46.872C277.791 46.872 277.095 47.312 276.999 48.192H273.663C273.695 47.024 274.199 46.096 275.175 45.408C276.151 44.704 277.399 44.352 278.919 44.352C280.679 44.352 282.047 44.728 283.023 45.48C284.015 46.232 284.511 47.4 284.511 48.984V57H281.415ZM278.511 54.648C279.327 54.648 279.991 54.408 280.503 53.928C281.015 53.448 281.271 52.824 281.271 52.056V51.288H278.631C277.095 51.288 276.327 51.84 276.327 52.944C276.327 54.08 277.055 54.648 278.511 54.648ZM299.749 57H296.389V52.08H291.253V57H287.893V44.664H291.253V49.272H296.389V44.664H299.749V57ZM302.236 47.472V44.664H313.684V47.472H309.652V57H306.292V47.472H302.236ZM319.446 57H316.182V44.664H319.446V51.624H320.022L324.798 44.664H328.11V57H324.846V50.064H324.27L319.446 57ZM340.195 57L337.699 52.08H335.011V57H331.651V44.664H335.011V49.272H337.747L340.099 44.664H343.531L340.507 50.616L343.723 57H340.195ZM355.851 50.16V50.784C356.475 50.944 356.979 51.264 357.363 51.744C357.747 52.224 357.939 52.84 357.939 53.592C357.939 55.864 356.483 57 353.571 57H346.323V44.664H353.379C354.611 44.664 355.563 44.944 356.235 45.504C356.923 46.048 357.267 46.808 357.267 47.784C357.267 48.904 356.795 49.696 355.851 50.16ZM349.611 54.576H352.803C353.971 54.576 354.555 54.12 354.555 53.208C354.555 52.28 353.971 51.816 352.803 51.816H349.611V54.576ZM349.611 47.088V49.464H352.467C353.427 49.464 353.907 49.072 353.907 48.288C353.907 47.488 353.427 47.088 352.467 47.088H349.611ZM368.438 57V55.944H367.814C367.03 56.856 365.878 57.312 364.358 57.312C363.014 57.312 361.95 56.92 361.166 56.136C360.382 55.336 359.99 54.36 359.99 53.208C359.99 52.104 360.406 51.144 361.238 50.328C362.07 49.512 363.326 49.104 365.006 49.104H368.294V48.792C368.294 47.512 367.566 46.872 366.11 46.872C364.814 46.872 364.118 47.312 364.022 48.192H360.686C360.718 47.024 361.222 46.096 362.198 45.408C363.174 44.704 364.422 44.352 365.942 44.352C367.702 44.352 369.07 44.728 370.046 45.48C371.038 46.232 371.534 47.4 371.534 48.984V57H368.438ZM365.534 54.648C366.35 54.648 367.014 54.408 367.526 53.928C368.038 53.448 368.294 52.824 368.294 52.056V51.288H365.654C364.118 51.288 363.35 51.84 363.35 52.944C363.35 54.08 364.078 54.648 365.534 54.648ZM381.157 47.16C380.165 47.16 379.413 47.512 378.901 48.216C378.405 48.904 378.157 49.776 378.157 50.832C378.157 51.888 378.405 52.768 378.901 53.472C379.413 54.176 380.165 54.528 381.157 54.528C382.117 54.528 382.845 54.184 383.341 53.496C383.853 52.808 384.109 51.92 384.109 50.832C384.109 49.76 383.853 48.88 383.341 48.192C382.845 47.504 382.117 47.16 381.157 47.16ZM374.917 44.664H378.157V45.792H378.781C379.549 44.832 380.701 44.352 382.237 44.352C383.837 44.352 385.109 44.96 386.053 46.176C386.997 47.376 387.469 48.928 387.469 50.832C387.469 52.752 386.997 54.312 386.053 55.512C385.109 56.712 383.837 57.312 382.237 57.312C380.733 57.312 379.621 56.832 378.901 55.872H378.277V61.8H374.917V44.664ZM402.171 57H398.811V52.08H393.675V57H390.315V44.664H393.675V49.272H398.811V44.664H402.171V57ZM405.714 44.664H409.074V48.264H411.858C413.442 48.264 414.658 48.648 415.506 49.416C416.37 50.168 416.802 51.224 416.802 52.584C416.802 53.96 416.37 55.04 415.506 55.824C414.658 56.608 413.442 57 411.858 57H405.714V44.664ZM409.074 50.904V54.216H411.378C412.146 54.216 412.682 54.08 412.986 53.808C413.29 53.52 413.442 53.104 413.442 52.56C413.442 52 413.29 51.584 412.986 51.312C412.682 51.04 412.146 50.904 411.378 50.904H409.074ZM418.65 44.664H422.01V57H418.65V44.664ZM428.829 57H425.565V44.664H428.829V51.624H429.405L434.181 44.664H437.493V57H434.229V50.064H433.653L428.829 57ZM433.293 39.768H435.885C435.789 40.904 435.365 41.792 434.613 42.432C433.877 43.056 432.845 43.368 431.517 43.368C430.189 43.368 429.157 43.056 428.421 42.432C427.685 41.792 427.269 40.904 427.173 39.768H429.765C429.813 40.2 429.981 40.552 430.269 40.824C430.557 41.096 430.973 41.232 431.517 41.232C432.589 41.232 433.181 40.744 433.293 39.768ZM459.474 57H456.114V47.472H451.074V57H447.714V44.664H459.474V57ZM469.258 47.16C468.266 47.16 467.514 47.512 467.002 48.216C466.506 48.904 466.258 49.776 466.258 50.832C466.258 51.888 466.506 52.768 467.002 53.472C467.514 54.176 468.266 54.528 469.258 54.528C470.218 54.528 470.946 54.184 471.442 53.496C471.954 52.808 472.21 51.92 472.21 50.832C472.21 49.76 471.954 48.88 471.442 48.192C470.946 47.504 470.218 47.16 469.258 47.16ZM463.018 44.664H466.258V45.792H466.882C467.65 44.832 468.802 44.352 470.338 44.352C471.938 44.352 473.21 44.96 474.154 46.176C475.098 47.376 475.57 48.928 475.57 50.832C475.57 52.752 475.098 54.312 474.154 55.512C473.21 56.712 471.938 57.312 470.338 57.312C468.834 57.312 467.722 56.832 467.002 55.872H466.378V61.8H463.018V44.664ZM489.889 50.208V51.216H481.057C481.153 53.424 482.153 54.528 484.057 54.528C485.273 54.528 486.041 54.096 486.361 53.232H489.769C489.513 54.512 488.897 55.512 487.921 56.232C486.945 56.952 485.641 57.312 484.009 57.312C482.073 57.312 480.537 56.72 479.401 55.536C478.281 54.352 477.721 52.768 477.721 50.784C477.721 48.816 478.281 47.256 479.401 46.104C480.521 44.936 482.033 44.352 483.937 44.352C485.761 44.352 487.201 44.896 488.257 45.984C489.313 47.072 489.857 48.48 489.889 50.208ZM486.457 48.984C486.233 47.576 485.385 46.872 483.913 46.872C482.441 46.872 481.529 47.576 481.177 48.984H486.457ZM504.713 54.216H506.897V60.432H503.729V57H494.585V60.432H491.417V54.216H493.241C493.961 52.376 494.321 50.376 494.321 48.216V44.664H504.713V54.216ZM501.353 54.216V47.472H497.345V48.24C497.345 50.528 497.041 52.52 496.433 54.216H501.353ZM509.378 57V44.664H513.842L516.338 49.848H516.962L519.458 44.664H523.898V57H520.634V49.128H520.01L518.042 53.112H515.234L513.266 49.128H512.642V57H509.378ZM538.92 50.208V51.216H530.088C530.184 53.424 531.184 54.528 533.088 54.528C534.304 54.528 535.072 54.096 535.392 53.232H538.8C538.544 54.512 537.928 55.512 536.952 56.232C535.976 56.952 534.672 57.312 533.04 57.312C531.104 57.312 529.568 56.72 528.432 55.536C527.312 54.352 526.752 52.768 526.752 50.784C526.752 48.816 527.312 47.256 528.432 46.104C529.552 44.936 531.064 44.352 532.968 44.352C534.792 44.352 536.232 44.896 537.288 45.984C538.344 47.072 538.888 48.48 538.92 50.208ZM535.488 48.984C535.264 47.576 534.416 46.872 532.944 46.872C531.472 46.872 530.56 47.576 530.208 48.984H535.488ZM540.548 47.472V44.664H551.996V47.472H547.964V57H544.604V47.472H540.548ZM48.04 89H44.776V76.664H48.04V83.624H48.616L53.392 76.664H56.704V89H53.44V82.064H52.864L48.04 89ZM67.2768 80.288C67.2768 79.488 66.5728 79.088 65.1648 79.088C63.8208 79.088 63.0528 79.536 62.8608 80.432H59.7888C59.9168 79.088 60.4848 78.072 61.4928 77.384C62.5008 76.696 63.8048 76.352 65.4048 76.352C67.0048 76.352 68.2688 76.688 69.1968 77.36C70.1408 78.016 70.6128 78.864 70.6128 79.904C70.6128 81.104 70.1968 81.888 69.3648 82.256V82.88C70.4368 83.232 70.9728 84.08 70.9728 85.424C70.9728 86.56 70.4608 87.496 69.4368 88.232C68.4128 88.952 67.0688 89.312 65.4048 89.312C63.5168 89.312 62.0688 88.952 61.0608 88.232C60.0688 87.496 59.5008 86.464 59.3568 85.136H62.4528C62.7248 86.096 63.6528 86.576 65.2368 86.576C66.8208 86.576 67.6128 86.136 67.6128 85.256C67.6128 84.824 67.4528 84.512 67.1328 84.32C66.8288 84.128 66.3248 84.032 65.6208 84.032H63.6048V81.464H65.5008C66.6848 81.464 67.2768 81.072 67.2768 80.288ZM86.0839 71.864H94.1479V89H90.5719V82.544H85.9399L83.6359 89H80.0359L82.6039 81.776C80.9079 80.88 80.0599 79.352 80.0599 77.192C80.0599 75.512 80.5879 74.208 81.6439 73.28C82.6999 72.336 84.1799 71.864 86.0839 71.864ZM90.5719 79.496V75.008H86.9479C85.7639 75.008 84.9239 75.184 84.4279 75.536C83.9479 75.872 83.7079 76.44 83.7079 77.24C83.7079 77.992 83.9319 78.56 84.3799 78.944C84.8279 79.312 85.5639 79.496 86.5879 79.496H90.5719ZM109.645 89H106.285V79.472H101.245V89H97.8854V76.664H109.645V89ZM118.878 76.352C120.83 76.352 122.382 76.944 123.534 78.128C124.686 79.312 125.262 80.88 125.262 82.832C125.262 84.784 124.686 86.352 123.534 87.536C122.382 88.72 120.83 89.312 118.878 89.312C116.942 89.312 115.39 88.72 114.222 87.536C113.07 86.336 112.494 84.768 112.494 82.832C112.494 80.896 113.07 79.336 114.222 78.152C115.39 76.952 116.942 76.352 118.878 76.352ZM118.878 86.528C119.886 86.528 120.638 86.184 121.134 85.496C121.646 84.792 121.902 83.904 121.902 82.832C121.902 81.776 121.646 80.904 121.134 80.216C120.638 79.512 119.886 79.16 118.878 79.16C117.886 79.16 117.134 79.512 116.622 80.216C116.11 80.904 115.854 81.776 115.854 82.832C115.854 83.904 116.11 84.792 116.622 85.496C117.134 86.184 117.886 86.528 118.878 86.528ZM139.976 89H136.616V84.08H131.48V89H128.12V76.664H131.48V81.272H136.616V76.664H139.976V89ZM146.782 89H143.518V76.664H146.782V83.624H147.358L152.134 76.664H155.446V89H152.182V82.064H151.606L146.782 89ZM162.251 89H158.987V76.664H162.251V83.624H162.827L167.603 76.664H170.915V89H167.651V82.064H167.075L162.251 89ZM180.439 76.664H183.823V80.264C183.823 80.536 183.839 80.768 183.871 80.96C183.919 81.136 184.015 81.328 184.159 81.536C184.303 81.728 184.543 81.88 184.879 81.992C185.215 82.088 185.639 82.136 186.151 82.136C186.967 82.136 187.743 82.048 188.479 81.872V76.664H191.839V89H188.479V84.584C187.407 84.808 186.263 84.92 185.047 84.92C184.055 84.92 183.231 84.816 182.575 84.608C181.935 84.384 181.463 84.064 181.159 83.648C180.871 83.232 180.679 82.816 180.583 82.4C180.487 81.984 180.439 81.488 180.439 80.912V76.664ZM206.693 82.208V83.216H197.861C197.957 85.424 198.957 86.528 200.861 86.528C202.077 86.528 202.845 86.096 203.165 85.232H206.573C206.317 86.512 205.701 87.512 204.725 88.232C203.749 88.952 202.445 89.312 200.813 89.312C198.877 89.312 197.341 88.72 196.205 87.536C195.085 86.352 194.525 84.768 194.525 82.784C194.525 80.816 195.085 79.256 196.205 78.104C197.325 76.936 198.837 76.352 200.741 76.352C202.565 76.352 204.005 76.896 205.061 77.984C206.117 79.072 206.661 80.48 206.693 82.208ZM203.261 80.984C203.037 79.576 202.189 78.872 200.717 78.872C199.245 78.872 198.333 79.576 197.981 80.984H203.261ZM215.782 79.16C214.79 79.16 214.038 79.512 213.526 80.216C213.03 80.904 212.782 81.776 212.782 82.832C212.782 83.888 213.03 84.768 213.526 85.472C214.038 86.176 214.79 86.528 215.782 86.528C216.742 86.528 217.47 86.184 217.966 85.496C218.478 84.808 218.734 83.92 218.734 82.832C218.734 81.76 218.478 80.88 217.966 80.192C217.47 79.504 216.742 79.16 215.782 79.16ZM209.542 76.664H212.782V77.792H213.406C214.174 76.832 215.326 76.352 216.862 76.352C218.462 76.352 219.734 76.96 220.678 78.176C221.622 79.376 222.094 80.928 222.094 82.832C222.094 84.752 221.622 86.312 220.678 87.512C219.734 88.712 218.462 89.312 216.862 89.312C215.358 89.312 214.246 88.832 213.526 87.872H212.902V93.8H209.542V76.664ZM236.412 82.208V83.216H227.58C227.676 85.424 228.676 86.528 230.58 86.528C231.796 86.528 232.564 86.096 232.884 85.232H236.292C236.036 86.512 235.42 87.512 234.444 88.232C233.468 88.952 232.164 89.312 230.532 89.312C228.596 89.312 227.06 88.72 225.924 87.536C224.804 86.352 224.244 84.768 224.244 82.784C224.244 80.816 224.804 79.256 225.924 78.104C227.044 76.936 228.556 76.352 230.46 76.352C232.284 76.352 233.724 76.896 234.78 77.984C235.836 79.072 236.38 80.48 236.412 82.208ZM232.98 80.984C232.756 79.576 231.908 78.872 230.436 78.872C228.964 78.872 228.052 79.576 227.7 80.984H232.98ZM246.292 80.288C246.292 79.488 245.588 79.088 244.18 79.088C242.836 79.088 242.068 79.536 241.876 80.432H238.804C238.932 79.088 239.5 78.072 240.508 77.384C241.516 76.696 242.82 76.352 244.42 76.352C246.02 76.352 247.284 76.688 248.212 77.36C249.156 78.016 249.628 78.864 249.628 79.904C249.628 81.104 249.212 81.888 248.38 82.256V82.88C249.452 83.232 249.988 84.08 249.988 85.424C249.988 86.56 249.476 87.496 248.452 88.232C247.428 88.952 246.084 89.312 244.42 89.312C242.532 89.312 241.084 88.952 240.076 88.232C239.084 87.496 238.516 86.464 238.372 85.136H241.468C241.74 86.096 242.668 86.576 244.252 86.576C245.836 86.576 246.628 86.136 246.628 85.256C246.628 84.824 246.468 84.512 246.148 84.32C245.844 84.128 245.34 84.032 244.636 84.032H242.62V81.464H244.516C245.7 81.464 246.292 81.072 246.292 80.288ZM269.156 82.16V82.784C269.78 82.944 270.284 83.264 270.668 83.744C271.052 84.224 271.244 84.84 271.244 85.592C271.244 87.864 269.788 89 266.876 89H259.628V76.664H266.684C267.916 76.664 268.868 76.944 269.54 77.504C270.228 78.048 270.572 78.808 270.572 79.784C270.572 80.904 270.1 81.696 269.156 82.16ZM262.916 86.576H266.108C267.276 86.576 267.86 86.12 267.86 85.208C267.86 84.28 267.276 83.816 266.108 83.816H262.916V86.576ZM262.916 79.088V81.464H265.772C266.732 81.464 267.212 81.072 267.212 80.288C267.212 79.488 266.732 79.088 265.772 79.088H262.916ZM281.743 89V87.944H281.119C280.335 88.856 279.183 89.312 277.663 89.312C276.319 89.312 275.255 88.92 274.471 88.136C273.687 87.336 273.295 86.36 273.295 85.208C273.295 84.104 273.711 83.144 274.543 82.328C275.375 81.512 276.631 81.104 278.311 81.104H281.599V80.792C281.599 79.512 280.871 78.872 279.415 78.872C278.119 78.872 277.423 79.312 277.327 80.192H273.991C274.023 79.024 274.527 78.096 275.503 77.408C276.479 76.704 277.727 76.352 279.247 76.352C281.007 76.352 282.375 76.728 283.351 77.48C284.343 78.232 284.839 79.4 284.839 80.984V89H281.743ZM278.839 86.648C279.655 86.648 280.319 86.408 280.831 85.928C281.343 85.448 281.599 84.824 281.599 84.056V83.288H278.959C277.423 83.288 276.655 83.84 276.655 84.944C276.655 86.08 277.383 86.648 278.839 86.648ZM302.069 76.664H305.309V89H288.221V76.664H291.485V86.216H295.157V76.664H298.397V86.216H302.069V76.664ZM323.397 84.848H326.709C326.549 86.192 325.949 87.272 324.909 88.088C323.885 88.904 322.605 89.312 321.069 89.312C319.165 89.312 317.653 88.728 316.533 87.56C315.413 86.376 314.853 84.8 314.853 82.832C314.853 80.88 315.413 79.312 316.533 78.128C317.653 76.944 319.165 76.352 321.069 76.352C322.605 76.352 323.869 76.744 324.861 77.528C325.869 78.296 326.453 79.32 326.613 80.6H323.277C323.005 79.64 322.277 79.16 321.093 79.16C320.101 79.16 319.373 79.496 318.909 80.168C318.445 80.84 318.213 81.72 318.213 82.808C318.213 83.896 318.445 84.792 318.909 85.496C319.389 86.184 320.117 86.528 321.093 86.528C322.421 86.528 323.189 85.968 323.397 84.848ZM341.014 82.208V83.216H332.182C332.278 85.424 333.278 86.528 335.182 86.528C336.398 86.528 337.166 86.096 337.486 85.232H340.894C340.638 86.512 340.022 87.512 339.046 88.232C338.07 88.952 336.766 89.312 335.134 89.312C333.198 89.312 331.662 88.72 330.526 87.536C329.406 86.352 328.846 84.768 328.846 82.784C328.846 80.816 329.406 79.256 330.526 78.104C331.646 76.936 333.158 76.352 335.062 76.352C336.886 76.352 338.326 76.896 339.382 77.984C340.438 79.072 340.982 80.48 341.014 82.208ZM337.582 80.984C337.358 79.576 336.51 78.872 335.038 78.872C333.566 78.872 332.654 79.576 332.302 80.984H337.582ZM350.102 79.16C349.11 79.16 348.358 79.512 347.846 80.216C347.35 80.904 347.102 81.776 347.102 82.832C347.102 83.888 347.35 84.768 347.846 85.472C348.358 86.176 349.11 86.528 350.102 86.528C351.062 86.528 351.79 86.184 352.286 85.496C352.798 84.808 353.054 83.92 353.054 82.832C353.054 81.76 352.798 80.88 352.286 80.192C351.79 79.504 351.062 79.16 350.102 79.16ZM343.862 76.664H347.102V77.792H347.726C348.494 76.832 349.646 76.352 351.182 76.352C352.782 76.352 354.054 76.96 354.998 78.176C355.942 79.376 356.414 80.928 356.414 82.832C356.414 84.752 355.942 86.312 354.998 87.512C354.054 88.712 352.782 89.312 351.182 89.312C349.678 89.312 348.566 88.832 347.846 87.872H347.222V93.8H343.862V76.664ZM368.788 82.16V82.784C369.412 82.944 369.916 83.264 370.3 83.744C370.684 84.224 370.876 84.84 370.876 85.592C370.876 87.864 369.42 89 366.508 89H359.26V76.664H366.316C367.548 76.664 368.5 76.944 369.172 77.504C369.86 78.048 370.204 78.808 370.204 79.784C370.204 80.904 369.732 81.696 368.788 82.16ZM362.548 86.576H365.74C366.908 86.576 367.492 86.12 367.492 85.208C367.492 84.28 366.908 83.816 365.74 83.816H362.548V86.576ZM362.548 79.088V81.464H365.404C366.364 81.464 366.844 81.072 366.844 80.288C366.844 79.488 366.364 79.088 365.404 79.088H362.548ZM377.056 89H373.792V76.664H377.056V83.624H377.632L382.408 76.664H385.72V89H382.456V82.064H381.88L377.056 89ZM397.108 84.848H400.42C400.26 86.192 399.66 87.272 398.62 88.088C397.596 88.904 396.316 89.312 394.78 89.312C392.876 89.312 391.364 88.728 390.244 87.56C389.124 86.376 388.564 84.8 388.564 82.832C388.564 80.88 389.124 79.312 390.244 78.128C391.364 76.944 392.876 76.352 394.78 76.352C396.316 76.352 397.58 76.744 398.572 77.528C399.58 78.296 400.164 79.32 400.324 80.6H396.988C396.716 79.64 395.988 79.16 394.804 79.16C393.812 79.16 393.084 79.496 392.62 80.168C392.156 80.84 391.924 81.72 391.924 82.808C391.924 83.896 392.156 84.792 392.62 85.496C393.1 86.184 393.828 86.528 394.804 86.528C396.132 86.528 396.9 85.968 397.108 84.848ZM404.765 89H403.133V85.352H406.829V89.6L404.981 92.408H402.941L404.765 89.6V89ZM420.228 89H416.964V76.664H420.228V83.624H420.804L425.58 76.664H428.892V89H425.628V82.064H425.052L420.228 89ZM444.8 76.352C446.752 76.352 448.304 76.944 449.456 78.128C450.608 79.312 451.184 80.88 451.184 82.832C451.184 84.784 450.608 86.352 449.456 87.536C448.304 88.72 446.752 89.312 444.8 89.312C442.864 89.312 441.312 88.72 440.144 87.536C438.992 86.336 438.416 84.768 438.416 82.832C438.416 80.896 438.992 79.336 440.144 78.152C441.312 76.952 442.864 76.352 444.8 76.352ZM444.8 86.528C445.808 86.528 446.56 86.184 447.056 85.496C447.568 84.792 447.824 83.904 447.824 82.832C447.824 81.776 447.568 80.904 447.056 80.216C446.56 79.512 445.808 79.16 444.8 79.16C443.808 79.16 443.056 79.512 442.544 80.216C442.032 80.904 441.776 81.776 441.776 82.832C441.776 83.904 442.032 84.792 442.544 85.496C443.056 86.184 443.808 86.528 444.8 86.528ZM461.89 84.848H465.202C465.042 86.192 464.442 87.272 463.402 88.088C462.378 88.904 461.098 89.312 459.562 89.312C457.658 89.312 456.146 88.728 455.026 87.56C453.906 86.376 453.346 84.8 453.346 82.832C453.346 80.88 453.906 79.312 455.026 78.128C456.146 76.944 457.658 76.352 459.562 76.352C461.098 76.352 462.362 76.744 463.354 77.528C464.362 78.296 464.946 79.32 465.106 80.6H461.77C461.498 79.64 460.77 79.16 459.586 79.16C458.594 79.16 457.866 79.496 457.402 80.168C456.938 80.84 456.706 81.72 456.706 82.808C456.706 83.896 456.938 84.792 457.402 85.496C457.882 86.184 458.61 86.528 459.586 86.528C460.914 86.528 461.682 85.968 461.89 84.848ZM466.978 79.472V76.664H478.426V79.472H474.394V89H471.034V79.472H466.978ZM488.508 89V87.944H487.884C487.1 88.856 485.948 89.312 484.428 89.312C483.084 89.312 482.02 88.92 481.236 88.136C480.452 87.336 480.06 86.36 480.06 85.208C480.06 84.104 480.476 83.144 481.308 82.328C482.14 81.512 483.396 81.104 485.076 81.104H488.364V80.792C488.364 79.512 487.636 78.872 486.18 78.872C484.884 78.872 484.188 79.312 484.092 80.192H480.756C480.788 79.024 481.292 78.096 482.268 77.408C483.244 76.704 484.492 76.352 486.012 76.352C487.772 76.352 489.14 76.728 490.116 77.48C491.108 78.232 491.604 79.4 491.604 80.984V89H488.508ZM485.604 86.648C486.42 86.648 487.084 86.408 487.596 85.928C488.108 85.448 488.364 84.824 488.364 84.056V83.288H485.724C484.188 83.288 483.42 83.84 483.42 84.944C483.42 86.08 484.148 86.648 485.604 86.648ZM493.739 89V85.784H494.171C494.971 85.784 495.547 85.504 495.899 84.944C496.251 84.368 496.427 83.336 496.427 81.848V76.664H506.963V89H503.603V79.472H499.523V81.968C499.523 84.544 499.099 86.36 498.251 87.416C497.403 88.472 496.043 89 494.171 89H493.739ZM518.374 84.848H521.686C521.526 86.192 520.926 87.272 519.886 88.088C518.862 88.904 517.582 89.312 516.046 89.312C514.142 89.312 512.63 88.728 511.51 87.56C510.39 86.376 509.83 84.8 509.83 82.832C509.83 80.88 510.39 79.312 511.51 78.128C512.63 76.944 514.142 76.352 516.046 76.352C517.582 76.352 518.846 76.744 519.838 77.528C520.846 78.296 521.43 79.32 521.59 80.6H518.254C517.982 79.64 517.254 79.16 516.07 79.16C515.078 79.16 514.35 79.496 513.886 80.168C513.422 80.84 513.19 81.72 513.19 82.808C513.19 83.896 513.422 84.792 513.886 85.496C514.366 86.184 515.094 86.528 516.07 86.528C517.398 86.528 518.166 85.968 518.374 84.848ZM529.054 76.664H535.318V89H531.958V84.872H528.886L527.302 89H523.99L525.862 84.152C524.646 83.464 524.038 82.344 524.038 80.792C524.038 79.496 524.47 78.488 525.334 77.768C526.214 77.032 527.454 76.664 529.054 76.664ZM531.958 82.4V79.352H529.318C528.598 79.352 528.086 79.48 527.782 79.736C527.494 79.992 527.35 80.368 527.35 80.864C527.35 81.376 527.494 81.76 527.782 82.016C528.086 82.272 528.598 82.4 529.318 82.4H531.958ZM54.304 114.16V114.784C54.928 114.944 55.432 115.264 55.816 115.744C56.2 116.224 56.392 116.84 56.392 117.592C56.392 119.864 54.936 121 52.024 121H44.776V108.664H51.832C53.064 108.664 54.016 108.944 54.688 109.504C55.376 110.048 55.72 110.808 55.72 111.784C55.72 112.904 55.248 113.696 54.304 114.16ZM48.064 118.576H51.256C52.424 118.576 53.008 118.12 53.008 117.208C53.008 116.28 52.424 115.816 51.256 115.816H48.064V118.576ZM48.064 111.088V113.464H50.92C51.88 113.464 52.36 113.072 52.36 112.288C52.36 111.488 51.88 111.088 50.92 111.088H48.064ZM71.0673 121H67.7073V111.472H62.6673V121H59.3073V108.664H71.0673V121ZM86.0839 114.208V115.216H77.2519C77.3479 117.424 78.3479 118.528 80.2519 118.528C81.4679 118.528 82.2359 118.096 82.5559 117.232H85.9639C85.7079 118.512 85.0919 119.512 84.1159 120.232C83.1399 120.952 81.8359 121.312 80.2039 121.312C78.2679 121.312 76.7319 120.72 75.5959 119.536C74.4759 118.352 73.9159 116.768 73.9159 114.784C73.9159 112.816 74.4759 111.256 75.5959 110.104C76.7159 108.936 78.2279 108.352 80.1319 108.352C81.9559 108.352 83.3959 108.896 84.4519 109.984C85.5079 111.072 86.0519 112.48 86.0839 114.208ZM82.6519 112.984C82.4279 111.576 81.5799 110.872 80.1079 110.872C78.6359 110.872 77.7239 111.576 77.3719 112.984H82.6519ZM88.2363 108.664H91.6203V112.264C91.6203 112.536 91.6363 112.768 91.6683 112.96C91.7163 113.136 91.8123 113.328 91.9563 113.536C92.1003 113.728 92.3403 113.88 92.6763 113.992C93.0123 114.088 93.4363 114.136 93.9483 114.136C94.7643 114.136 95.5403 114.048 96.2763 113.872V108.664H99.6363V121H96.2763V116.584C95.2043 116.808 94.0603 116.92 92.8443 116.92C91.8523 116.92 91.0283 116.816 90.3723 116.608C89.7323 116.384 89.2603 116.064 88.9563 115.648C88.6683 115.232 88.4763 114.816 88.3803 114.4C88.2843 113.984 88.2363 113.488 88.2363 112.912V108.664ZM110.602 121V119.944H109.978C109.194 120.856 108.042 121.312 106.522 121.312C105.178 121.312 104.114 120.92 103.33 120.136C102.546 119.336 102.154 118.36 102.154 117.208C102.154 116.104 102.57 115.144 103.402 114.328C104.234 113.512 105.49 113.104 107.17 113.104H110.458V112.792C110.458 111.512 109.73 110.872 108.274 110.872C106.978 110.872 106.282 111.312 106.186 112.192H102.85C102.882 111.024 103.386 110.096 104.362 109.408C105.338 108.704 106.586 108.352 108.106 108.352C109.866 108.352 111.234 108.728 112.21 109.48C113.202 110.232 113.698 111.4 113.698 112.984V121H110.602ZM107.698 118.648C108.514 118.648 109.178 118.408 109.69 117.928C110.202 117.448 110.458 116.824 110.458 116.056V115.288H107.818C106.282 115.288 105.514 115.84 105.514 116.944C105.514 118.08 106.242 118.648 107.698 118.648ZM116.025 111.472V108.664H127.473V111.472H123.441V121H120.081V111.472H116.025ZM128.184 121V117.784H128.616C129.416 117.784 129.992 117.504 130.344 116.944C130.696 116.368 130.872 115.336 130.872 113.848V108.664H141.408V121H138.048V111.472H133.968V113.968C133.968 116.544 133.544 118.36 132.696 119.416C131.848 120.472 130.488 121 128.616 121H128.184ZM156.443 114.208V115.216H147.611C147.707 117.424 148.707 118.528 150.611 118.528C151.827 118.528 152.595 118.096 152.915 117.232H156.323C156.067 118.512 155.451 119.512 154.475 120.232C153.499 120.952 152.195 121.312 150.563 121.312C148.627 121.312 147.091 120.72 145.955 119.536C144.835 118.352 144.275 116.768 144.275 114.784C144.275 112.816 144.835 111.256 145.955 110.104C147.075 108.936 148.587 108.352 150.491 108.352C152.315 108.352 153.755 108.896 154.811 109.984C155.867 111.072 156.411 112.48 156.443 114.208ZM153.011 112.984C152.787 111.576 151.939 110.872 150.467 110.872C148.995 110.872 148.083 111.576 147.731 112.984H153.011ZM171.148 121H167.788V116.08H162.652V121H159.292V108.664H162.652V113.272H167.788V108.664H171.148V121ZM178.266 121H174.57V117.352H178.266V121ZM200.545 111.784V112.408C201.185 112.696 201.713 113.168 202.129 113.824C202.561 114.48 202.777 115.216 202.777 116.032C202.777 117.536 202.281 118.744 201.289 119.656C200.297 120.552 198.825 121 196.873 121H188.617V103.864H196.657C198.465 103.864 199.857 104.296 200.833 105.16C201.809 106.024 202.297 107.104 202.297 108.4C202.297 109.168 202.137 109.856 201.817 110.464C201.513 111.056 201.089 111.496 200.545 111.784ZM192.193 110.656H196.225C197.825 110.656 198.625 110.016 198.625 108.736C198.625 107.472 197.817 106.84 196.201 106.84H192.193V110.656ZM192.193 117.952H196.345C198.185 117.952 199.105 117.248 199.105 115.84C199.105 114.384 198.201 113.656 196.393 113.656H192.193V117.952ZM213.616 116.848H216.928C216.768 118.192 216.168 119.272 215.128 120.088C214.104 120.904 212.824 121.312 211.288 121.312C209.384 121.312 207.872 120.728 206.752 119.56C205.632 118.376 205.072 116.8 205.072 114.832C205.072 112.88 205.632 111.312 206.752 110.128C207.872 108.944 209.384 108.352 211.288 108.352C212.824 108.352 214.088 108.744 215.08 109.528C216.088 110.296 216.672 111.32 216.832 112.6H213.496C213.224 111.64 212.496 111.16 211.312 111.16C210.32 111.16 209.592 111.496 209.128 112.168C208.664 112.84 208.432 113.72 208.432 114.808C208.432 115.896 208.664 116.792 209.128 117.496C209.608 118.184 210.336 118.528 211.312 118.528C212.64 118.528 213.408 117.968 213.616 116.848ZM231.232 114.208V115.216H222.4C222.496 117.424 223.496 118.528 225.4 118.528C226.616 118.528 227.384 118.096 227.704 117.232H231.112C230.856 118.512 230.24 119.512 229.264 120.232C228.288 120.952 226.984 121.312 225.352 121.312C223.416 121.312 221.88 120.72 220.744 119.536C219.624 118.352 219.064 116.768 219.064 114.784C219.064 112.816 219.624 111.256 220.744 110.104C221.864 108.936 223.376 108.352 225.28 108.352C227.104 108.352 228.544 108.896 229.6 109.984C230.656 111.072 231.2 112.48 231.232 114.208ZM227.8 112.984C227.576 111.576 226.728 110.872 225.256 110.872C223.784 110.872 222.872 111.576 222.52 112.984H227.8ZM252.52 121H249.16V111.472H244.12V121H240.76V108.664H252.52V121ZM262.305 111.16C261.313 111.16 260.561 111.512 260.049 112.216C259.553 112.904 259.305 113.776 259.305 114.832C259.305 115.888 259.553 116.768 260.049 117.472C260.561 118.176 261.313 118.528 262.305 118.528C263.265 118.528 263.993 118.184 264.489 117.496C265.001 116.808 265.257 115.92 265.257 114.832C265.257 113.76 265.001 112.88 264.489 112.192C263.993 111.504 263.265 111.16 262.305 111.16ZM256.065 108.664H259.305V109.792H259.929C260.697 108.832 261.849 108.352 263.385 108.352C264.985 108.352 266.257 108.96 267.201 110.176C268.145 111.376 268.617 112.928 268.617 114.832C268.617 116.752 268.145 118.312 267.201 119.512C266.257 120.712 264.985 121.312 263.385 121.312C261.881 121.312 260.769 120.832 260.049 119.872H259.425V125.8H256.065V108.664ZM274.728 121H271.464V108.664H274.728V115.624H275.304L280.08 108.664H283.392V121H280.128V114.064H279.552L274.728 121ZM300.78 108.664H304.02V121H286.932V108.664H290.196V118.216H293.868V108.664H297.108V118.216H300.78V108.664ZM306.333 121V117.784H306.765C307.565 117.784 308.141 117.504 308.493 116.944C308.845 116.368 309.021 115.336 309.021 113.848V108.664H319.557V121H316.197V111.472H312.117V113.968C312.117 116.544 311.693 118.36 310.845 119.416C309.997 120.472 308.637 121 306.765 121H306.333ZM328.808 108.352C330.76 108.352 332.312 108.944 333.464 110.128C334.616 111.312 335.192 112.88 335.192 114.832C335.192 116.784 334.616 118.352 333.464 119.536C332.312 120.72 330.76 121.312 328.808 121.312C326.872 121.312 325.32 120.72 324.152 119.536C323 118.336 322.424 116.768 322.424 114.832C322.424 112.896 323 111.336 324.152 110.152C325.32 108.952 326.872 108.352 328.808 108.352ZM328.808 118.528C329.816 118.528 330.568 118.184 331.064 117.496C331.576 116.792 331.832 115.904 331.832 114.832C331.832 113.776 331.576 112.904 331.064 112.216C330.568 111.512 329.816 111.16 328.808 111.16C327.816 111.16 327.064 111.512 326.552 112.216C326.04 112.904 325.784 113.776 325.784 114.832C325.784 115.904 326.04 116.792 326.552 117.496C327.064 118.184 327.816 118.528 328.808 118.528ZM354.257 114.16V114.784C354.881 114.944 355.385 115.264 355.769 115.744C356.153 116.224 356.345 116.84 356.345 117.592C356.345 119.864 354.889 121 351.977 121H344.729V108.664H351.785C353.017 108.664 353.969 108.944 354.641 109.504C355.329 110.048 355.673 110.808 355.673 111.784C355.673 112.904 355.201 113.696 354.257 114.16ZM348.017 118.576H351.209C352.377 118.576 352.961 118.12 352.961 117.208C352.961 116.28 352.377 115.816 351.209 115.816H348.017V118.576ZM348.017 111.088V113.464H350.873C351.833 113.464 352.313 113.072 352.313 112.288C352.313 111.488 351.833 111.088 350.873 111.088H348.017ZM371.628 108.352C373.58 108.352 375.132 108.944 376.284 110.128C377.436 111.312 378.012 112.88 378.012 114.832C378.012 116.784 377.436 118.352 376.284 119.536C375.132 120.72 373.58 121.312 371.628 121.312C369.692 121.312 368.14 120.72 366.972 119.536C365.82 118.336 365.244 116.768 365.244 114.832C365.244 112.896 365.82 111.336 366.972 110.152C368.14 108.952 369.692 108.352 371.628 108.352ZM371.628 118.528C372.636 118.528 373.388 118.184 373.884 117.496C374.396 116.792 374.652 115.904 374.652 114.832C374.652 113.776 374.396 112.904 373.884 112.216C373.388 111.512 372.636 111.16 371.628 111.16C370.636 111.16 369.884 111.512 369.372 112.216C368.86 112.904 368.604 113.776 368.604 114.832C368.604 115.904 368.86 116.792 369.372 117.496C369.884 118.184 370.636 118.528 371.628 118.528ZM379.579 111.472V108.664H391.027V111.472H386.995V121H383.635V111.472H379.579ZM391.739 121V117.784H392.171C392.971 117.784 393.547 117.504 393.899 116.944C394.251 116.368 394.427 115.336 394.427 113.848V108.664H404.963V121H401.603V111.472H397.523V113.968C397.523 116.544 397.099 118.36 396.251 119.416C395.403 120.472 394.043 121 392.171 121H391.739ZM411.79 121H408.526V108.664H411.79V115.624H412.366L417.142 108.664H420.454V121H417.19V114.064H416.614L411.79 121ZM423.299 108.664H426.683V112.264C426.683 112.536 426.699 112.768 426.731 112.96C426.779 113.136 426.875 113.328 427.019 113.536C427.163 113.728 427.403 113.88 427.739 113.992C428.075 114.088 428.499 114.136 429.011 114.136C429.827 114.136 430.603 114.048 431.339 113.872V108.664H434.699V121H431.339V116.584C430.267 116.808 429.123 116.92 427.907 116.92C426.915 116.92 426.091 116.816 425.435 116.608C424.795 116.384 424.323 116.064 424.019 115.648C423.731 115.232 423.539 114.816 423.443 114.4C423.347 113.984 423.299 113.488 423.299 112.912V108.664ZM449.937 121H446.577V116.08H441.441V121H438.081V108.664H441.441V113.272H446.577V108.664H449.937V121ZM459.167 108.352C461.119 108.352 462.671 108.944 463.823 110.128C464.975 111.312 465.551 112.88 465.551 114.832C465.551 116.784 464.975 118.352 463.823 119.536C462.671 120.72 461.119 121.312 459.167 121.312C457.231 121.312 455.679 120.72 454.511 119.536C453.359 118.336 452.783 116.768 452.783 114.832C452.783 112.896 453.359 111.336 454.511 110.152C455.679 108.952 457.231 108.352 459.167 108.352ZM459.167 118.528C460.175 118.528 460.927 118.184 461.423 117.496C461.935 116.792 462.191 115.904 462.191 114.832C462.191 113.776 461.935 112.904 461.423 112.216C460.927 111.512 460.175 111.16 459.167 111.16C458.175 111.16 457.423 111.512 456.911 112.216C456.399 112.904 456.143 113.776 456.143 114.832C456.143 115.904 456.399 116.792 456.911 117.496C457.423 118.184 458.175 118.528 459.167 118.528ZM468.409 121V108.664H472.873L475.369 113.848H475.993L478.489 108.664H482.929V121H479.665V113.128H479.041L477.073 117.112H474.265L472.297 113.128H471.673V121H468.409ZM52.624 148.848H55.936C55.776 150.192 55.176 151.272 54.136 152.088C53.112 152.904 51.832 153.312 50.296 153.312C48.392 153.312 46.88 152.728 45.76 151.56C44.64 150.376 44.08 148.8 44.08 146.832C44.08 144.88 44.64 143.312 45.76 142.128C46.88 140.944 48.392 140.352 50.296 140.352C51.832 140.352 53.096 140.744 54.088 141.528C55.096 142.296 55.68 143.32 55.84 144.6H52.504C52.232 143.64 51.504 143.16 50.32 143.16C49.328 143.16 48.6 143.496 48.136 144.168C47.672 144.84 47.44 145.72 47.44 146.808C47.44 147.896 47.672 148.792 48.136 149.496C48.616 150.184 49.344 150.528 50.32 150.528C51.648 150.528 52.416 149.968 52.624 148.848ZM64.4562 140.352C66.4082 140.352 67.9602 140.944 69.1122 142.128C70.2642 143.312 70.8402 144.88 70.8402 146.832C70.8402 148.784 70.2642 150.352 69.1122 151.536C67.9602 152.72 66.4082 153.312 64.4562 153.312C62.5202 153.312 60.9682 152.72 59.8002 151.536C58.6482 150.336 58.0722 148.768 58.0722 146.832C58.0722 144.896 58.6482 143.336 59.8002 142.152C60.9682 140.952 62.5202 140.352 64.4562 140.352ZM64.4562 150.528C65.4642 150.528 66.2162 150.184 66.7122 149.496C67.2242 148.792 67.4802 147.904 67.4802 146.832C67.4802 145.776 67.2242 144.904 66.7122 144.216C66.2162 143.512 65.4642 143.16 64.4562 143.16C63.4642 143.16 62.7122 143.512 62.2002 144.216C61.6882 144.904 61.4322 145.776 61.4322 146.832C61.4322 147.904 61.6882 148.792 62.2002 149.496C62.7122 150.184 63.4642 150.528 64.4562 150.528ZM81.5459 148.848H84.8579C84.6979 150.192 84.0979 151.272 83.0579 152.088C82.0339 152.904 80.7539 153.312 79.2179 153.312C77.3139 153.312 75.8019 152.728 74.6819 151.56C73.5619 150.376 73.0019 148.8 73.0019 146.832C73.0019 144.88 73.5619 143.312 74.6819 142.128C75.8019 140.944 77.3139 140.352 79.2179 140.352C80.7539 140.352 82.0179 140.744 83.0099 141.528C84.0179 142.296 84.6019 143.32 84.7619 144.6H81.4259C81.1539 143.64 80.4259 143.16 79.2419 143.16C78.2499 143.16 77.5219 143.496 77.0579 144.168C76.5939 144.84 76.3619 145.72 76.3619 146.808C76.3619 147.896 76.5939 148.792 77.0579 149.496C77.5379 150.184 78.2659 150.528 79.2419 150.528C80.5699 150.528 81.3379 149.968 81.5459 148.848ZM86.6341 143.472V140.664H98.0821V143.472H94.0501V153H90.6901V143.472H86.6341ZM106.269 140.352C108.221 140.352 109.773 140.944 110.925 142.128C112.077 143.312 112.653 144.88 112.653 146.832C112.653 148.784 112.077 150.352 110.925 151.536C109.773 152.72 108.221 153.312 106.269 153.312C104.333 153.312 102.781 152.72 101.613 151.536C100.461 150.336 99.8847 148.768 99.8847 146.832C99.8847 144.896 100.461 143.336 101.613 142.152C102.781 140.952 104.333 140.352 106.269 140.352ZM106.269 150.528C107.277 150.528 108.029 150.184 108.525 149.496C109.037 148.792 109.293 147.904 109.293 146.832C109.293 145.776 109.037 144.904 108.525 144.216C108.029 143.512 107.277 143.16 106.269 143.16C105.277 143.16 104.525 143.512 104.013 144.216C103.501 144.904 103.245 145.776 103.245 146.832C103.245 147.904 103.501 148.792 104.013 149.496C104.525 150.184 105.277 150.528 106.269 150.528ZM120.046 140.664H126.31V153H122.95V148.872H119.878L118.294 153H114.982L116.854 148.152C115.638 147.464 115.03 146.344 115.03 144.792C115.03 143.496 115.462 142.488 116.326 141.768C117.206 141.032 118.446 140.664 120.046 140.664ZM122.95 146.4V143.352H120.31C119.59 143.352 119.078 143.48 118.774 143.736C118.486 143.992 118.342 144.368 118.342 144.864C118.342 145.376 118.486 145.76 118.774 146.016C119.078 146.272 119.59 146.4 120.31 146.4H122.95ZM141.687 153H138.327V148.08H133.191V153H129.831V140.664H133.191V145.272H138.327V140.664H141.687V153ZM148.493 153H145.229V140.664H148.493V147.624H149.069L153.845 140.664H157.157V153H153.893V146.064H153.317L148.493 153ZM163.962 153H160.698V140.664H163.962V147.624H164.538L169.314 140.664H172.626V153H169.362V146.064H168.786L163.962 153ZM177.679 153H176.047V149.352H179.743V153.6L177.895 156.408H175.855L177.679 153.6V153ZM193.142 153H189.878V140.664H193.142V147.624H193.718L198.494 140.664H201.806V153H198.542V146.064H197.966L193.142 153ZM221.554 146.16V146.784C222.178 146.944 222.682 147.264 223.066 147.744C223.45 148.224 223.642 148.84 223.642 149.592C223.642 151.864 222.186 153 219.274 153H212.026V140.664H219.082C220.314 140.664 221.266 140.944 221.938 141.504C222.626 142.048 222.97 142.808 222.97 143.784C222.97 144.904 222.498 145.696 221.554 146.16ZM215.314 150.576H218.506C219.674 150.576 220.258 150.12 220.258 149.208C220.258 148.28 219.674 147.816 218.506 147.816H215.314V150.576ZM215.314 143.088V145.464H218.17C219.13 145.464 219.61 145.072 219.61 144.288C219.61 143.488 219.13 143.088 218.17 143.088H215.314ZM234.141 153V151.944H233.517C232.733 152.856 231.581 153.312 230.061 153.312C228.717 153.312 227.653 152.92 226.869 152.136C226.085 151.336 225.693 150.36 225.693 149.208C225.693 148.104 226.109 147.144 226.941 146.328C227.773 145.512 229.029 145.104 230.709 145.104H233.997V144.792C233.997 143.512 233.269 142.872 231.813 142.872C230.517 142.872 229.821 143.312 229.725 144.192H226.389C226.421 143.024 226.925 142.096 227.901 141.408C228.877 140.704 230.125 140.352 231.645 140.352C233.405 140.352 234.773 140.728 235.749 141.48C236.741 142.232 237.237 143.4 237.237 144.984V153H234.141ZM231.237 150.648C232.053 150.648 232.717 150.408 233.229 149.928C233.741 149.448 233.997 148.824 233.997 148.056V147.288H231.357C229.821 147.288 229.053 147.84 229.053 148.944C229.053 150.08 229.781 150.648 231.237 150.648ZM254.468 140.664H257.708V153H240.62V140.664H243.884V150.216H247.556V140.664H250.796V150.216H254.468V140.664ZM268.852 153V151.944H268.228C267.444 152.856 266.292 153.312 264.772 153.312C263.428 153.312 262.364 152.92 261.58 152.136C260.796 151.336 260.404 150.36 260.404 149.208C260.404 148.104 260.82 147.144 261.652 146.328C262.484 145.512 263.74 145.104 265.42 145.104H268.708V144.792C268.708 143.512 267.98 142.872 266.524 142.872C265.228 142.872 264.532 143.312 264.436 144.192H261.1C261.132 143.024 261.636 142.096 262.612 141.408C263.588 140.704 264.836 140.352 266.356 140.352C268.116 140.352 269.484 140.728 270.46 141.48C271.452 142.232 271.948 143.4 271.948 144.984V153H268.852ZM265.948 150.648C266.764 150.648 267.428 150.408 267.94 149.928C268.452 149.448 268.708 148.824 268.708 148.056V147.288H266.068C264.532 147.288 263.764 147.84 263.764 148.944C263.764 150.08 264.492 150.648 265.948 150.648ZM282.01 153V140.664H291.994V143.472H285.37V153H282.01ZM301.899 153V151.944H301.275C300.491 152.856 299.339 153.312 297.819 153.312C296.475 153.312 295.411 152.92 294.627 152.136C293.843 151.336 293.451 150.36 293.451 149.208C293.451 148.104 293.867 147.144 294.699 146.328C295.531 145.512 296.787 145.104 298.467 145.104H301.755V144.792C301.755 143.512 301.027 142.872 299.571 142.872C298.275 142.872 297.579 143.312 297.483 144.192H294.147C294.179 143.024 294.683 142.096 295.659 141.408C296.635 140.704 297.883 140.352 299.403 140.352C301.163 140.352 302.531 140.728 303.507 141.48C304.499 142.232 304.995 143.4 304.995 144.984V153H301.899ZM298.995 150.648C299.811 150.648 300.475 150.408 300.987 149.928C301.499 149.448 301.755 148.824 301.755 148.056V147.288H299.115C297.579 147.288 296.811 147.84 296.811 148.944C296.811 150.08 297.539 150.648 298.995 150.648ZM314.618 143.16C313.626 143.16 312.874 143.512 312.362 144.216C311.866 144.904 311.618 145.776 311.618 146.832C311.618 147.888 311.866 148.768 312.362 149.472C312.874 150.176 313.626 150.528 314.618 150.528C315.578 150.528 316.306 150.184 316.802 149.496C317.314 148.808 317.57 147.92 317.57 146.832C317.57 145.76 317.314 144.88 316.802 144.192C316.306 143.504 315.578 143.16 314.618 143.16ZM308.378 140.664H311.618V141.792H312.242C313.01 140.832 314.162 140.352 315.698 140.352C317.298 140.352 318.57 140.96 319.514 142.176C320.458 143.376 320.93 144.928 320.93 146.832C320.93 148.752 320.458 150.312 319.514 151.512C318.57 152.712 317.298 153.312 315.698 153.312C314.194 153.312 313.082 152.832 312.362 151.872H311.738V157.8H308.378V140.664ZM331.36 153V151.944H330.736C329.952 152.856 328.8 153.312 327.28 153.312C325.936 153.312 324.872 152.92 324.088 152.136C323.304 151.336 322.912 150.36 322.912 149.208C322.912 148.104 323.328 147.144 324.16 146.328C324.992 145.512 326.248 145.104 327.928 145.104H331.216V144.792C331.216 143.512 330.488 142.872 329.032 142.872C327.736 142.872 327.04 143.312 326.944 144.192H323.608C323.64 143.024 324.144 142.096 325.12 141.408C326.096 140.704 327.344 140.352 328.864 140.352C330.624 140.352 331.992 140.728 332.968 141.48C333.96 142.232 334.456 143.4 334.456 144.984V153H331.36ZM328.456 150.648C329.272 150.648 329.936 150.408 330.448 149.928C330.96 149.448 331.216 148.824 331.216 148.056V147.288H328.576C327.04 147.288 326.272 147.84 326.272 148.944C326.272 150.08 327 150.648 328.456 150.648ZM349.695 153H346.335V148.08H341.199V153H337.839V140.664H341.199V145.272H346.335V140.664H349.695V153ZM352.181 143.472V140.664H363.629V143.472H359.597V153H356.237V143.472H352.181ZM369.392 153H366.128V140.664H369.392V147.624H369.968L374.744 140.664H378.056V153H374.792V146.064H374.216L369.392 153ZM386.132 140.664H392.396V153H389.036V148.872H385.964L384.38 153H381.068L382.94 148.152C381.724 147.464 381.116 146.344 381.116 144.792C381.116 143.496 381.548 142.488 382.412 141.768C383.292 141.032 384.532 140.664 386.132 140.664ZM389.036 146.4V143.352H386.396C385.676 143.352 385.164 143.48 384.86 143.736C384.572 143.992 384.428 144.368 384.428 144.864C384.428 145.376 384.572 145.76 384.86 146.016C385.164 146.272 385.676 146.4 386.396 146.4H389.036ZM411.14 153L408.644 148.08H405.956V153H402.596V140.664H405.956V145.272H408.692L411.044 140.664H414.476L411.452 146.616L414.668 153H411.14ZM424.852 153V151.944H424.228C423.444 152.856 422.292 153.312 420.772 153.312C419.428 153.312 418.364 152.92 417.58 152.136C416.796 151.336 416.404 150.36 416.404 149.208C416.404 148.104 416.82 147.144 417.652 146.328C418.484 145.512 419.74 145.104 421.42 145.104H424.708V144.792C424.708 143.512 423.98 142.872 422.524 142.872C421.228 142.872 420.532 143.312 420.436 144.192H417.1C417.132 143.024 417.636 142.096 418.612 141.408C419.588 140.704 420.836 140.352 422.356 140.352C424.116 140.352 425.484 140.728 426.46 141.48C427.452 142.232 427.948 143.4 427.948 144.984V153H424.852ZM421.948 150.648C422.764 150.648 423.428 150.408 423.94 149.928C424.452 149.448 424.708 148.824 424.708 148.056V147.288H422.068C420.532 147.288 419.764 147.84 419.764 148.944C419.764 150.08 420.492 150.648 421.948 150.648ZM430.635 140.664H434.019V144.264C434.019 144.536 434.035 144.768 434.067 144.96C434.115 145.136 434.211 145.328 434.355 145.536C434.499 145.728 434.739 145.88 435.075 145.992C435.411 146.088 435.835 146.136 436.347 146.136C437.163 146.136 437.939 146.048 438.675 145.872V140.664H442.035V153H438.675V148.584C437.603 148.808 436.459 148.92 435.243 148.92C434.251 148.92 433.427 148.816 432.771 148.608C432.131 148.384 431.659 148.064 431.355 147.648C431.067 147.232 430.875 146.816 430.779 146.4C430.683 145.984 430.635 145.488 430.635 144.912V140.664ZM456.889 146.208V147.216H448.057C448.153 149.424 449.153 150.528 451.057 150.528C452.273 150.528 453.041 150.096 453.361 149.232H456.769C456.513 150.512 455.897 151.512 454.921 152.232C453.945 152.952 452.641 153.312 451.009 153.312C449.073 153.312 447.537 152.72 446.401 151.536C445.281 150.352 444.721 148.768 444.721 146.784C444.721 144.816 445.281 143.256 446.401 142.104C447.521 140.936 449.033 140.352 450.937 140.352C452.761 140.352 454.201 140.896 455.257 141.984C456.313 143.072 456.857 144.48 456.889 146.208ZM453.457 144.984C453.233 143.576 452.385 142.872 450.913 142.872C449.441 142.872 448.529 143.576 448.177 144.984H453.457ZM467.585 148.848H470.897C470.737 150.192 470.137 151.272 469.097 152.088C468.073 152.904 466.793 153.312 465.257 153.312C463.353 153.312 461.841 152.728 460.721 151.56C459.601 150.376 459.041 148.8 459.041 146.832C459.041 144.88 459.601 143.312 460.721 142.128C461.841 140.944 463.353 140.352 465.257 140.352C466.793 140.352 468.057 140.744 469.049 141.528C470.057 142.296 470.641 143.32 470.801 144.6H467.465C467.193 143.64 466.465 143.16 465.281 143.16C464.289 143.16 463.561 143.496 463.097 144.168C462.633 144.84 462.401 145.72 462.401 146.808C462.401 147.896 462.633 148.792 463.097 149.496C463.577 150.184 464.305 150.528 465.281 150.528C466.609 150.528 467.377 149.968 467.585 148.848ZM472.673 143.472V140.664H484.121V143.472H480.089V153H476.729V143.472H472.673ZM496.148 146.16V146.784C496.772 146.944 497.276 147.264 497.66 147.744C498.044 148.224 498.236 148.84 498.236 149.592C498.236 151.864 496.78 153 493.868 153H486.62V140.664H493.676C494.908 140.664 495.86 140.944 496.532 141.504C497.22 142.048 497.564 142.808 497.564 143.784C497.564 144.904 497.092 145.696 496.148 146.16ZM489.908 150.576H493.1C494.268 150.576 494.852 150.12 494.852 149.208C494.852 148.28 494.268 147.816 493.1 147.816H489.908V150.576ZM489.908 143.088V145.464H492.764C493.724 145.464 494.204 145.072 494.204 144.288C494.204 143.488 493.724 143.088 492.764 143.088H489.908ZM508.735 153V151.944H508.111C507.327 152.856 506.175 153.312 504.655 153.312C503.311 153.312 502.247 152.92 501.463 152.136C500.679 151.336 500.287 150.36 500.287 149.208C500.287 148.104 500.703 147.144 501.535 146.328C502.367 145.512 503.623 145.104 505.303 145.104H508.591V144.792C508.591 143.512 507.863 142.872 506.407 142.872C505.111 142.872 504.415 143.312 504.319 144.192H500.983C501.015 143.024 501.519 142.096 502.495 141.408C503.471 140.704 504.719 140.352 506.239 140.352C507.999 140.352 509.367 140.728 510.343 141.48C511.335 142.232 511.831 143.4 511.831 144.984V153H508.735ZM505.831 150.648C506.647 150.648 507.311 150.408 507.823 149.928C508.335 149.448 508.591 148.824 508.591 148.056V147.288H505.951C504.415 147.288 503.647 147.84 503.647 148.944C503.647 150.08 504.375 150.648 505.831 150.648ZM56.752 182.216H58.936V188.432H55.768V185H46.624V188.432H43.456V182.216H45.28C46 180.376 46.36 178.376 46.36 176.216V172.664H56.752V182.216ZM53.392 182.216V175.472H49.384V176.24C49.384 178.528 49.08 180.52 48.472 182.216H53.392ZM72.8886 178.208V179.216H64.0566C64.1526 181.424 65.1526 182.528 67.0566 182.528C68.2726 182.528 69.0406 182.096 69.3606 181.232H72.7686C72.5126 182.512 71.8966 183.512 70.9206 184.232C69.9446 184.952 68.6406 185.312 67.0086 185.312C65.0726 185.312 63.5366 184.72 62.4006 183.536C61.2806 182.352 60.7206 180.768 60.7206 178.784C60.7206 176.816 61.2806 175.256 62.4006 174.104C63.5206 172.936 65.0326 172.352 66.9366 172.352C68.7606 172.352 70.2006 172.896 71.2566 173.984C72.3126 175.072 72.8566 176.48 72.8886 178.208ZM69.4566 176.984C69.2326 175.576 68.3846 174.872 66.9126 174.872C65.4406 174.872 64.5286 175.576 64.1766 176.984H69.4566ZM79.0009 185H75.7369V172.664H79.0009V179.624H79.5769L84.3529 172.664H87.6649V185H84.4009V178.064H83.8249L79.0009 185ZM83.4649 167.768H86.0569C85.9609 168.904 85.5369 169.792 84.7849 170.432C84.0489 171.056 83.0169 171.368 81.6889 171.368C80.3609 171.368 79.3289 171.056 78.5929 170.432C77.8569 169.792 77.4409 168.904 77.3449 167.768H79.9369C79.9849 168.2 80.1529 168.552 80.4409 168.824C80.7289 169.096 81.1449 169.232 81.6889 169.232C82.7609 169.232 83.3529 168.744 83.4649 167.768ZM99.0537 180.848H102.366C102.206 182.192 101.606 183.272 100.566 184.088C99.5417 184.904 98.2617 185.312 96.7257 185.312C94.8217 185.312 93.3097 184.728 92.1897 183.56C91.0697 182.376 90.5097 180.8 90.5097 178.832C90.5097 176.88 91.0697 175.312 92.1897 174.128C93.3097 172.944 94.8217 172.352 96.7257 172.352C98.2617 172.352 99.5257 172.744 100.518 173.528C101.526 174.296 102.11 175.32 102.27 176.6H98.9337C98.6617 175.64 97.9337 175.16 96.7497 175.16C95.7577 175.16 95.0297 175.496 94.5657 176.168C94.1017 176.84 93.8697 177.72 93.8697 178.808C93.8697 179.896 94.1017 180.792 94.5657 181.496C95.0457 182.184 95.7737 182.528 96.7497 182.528C98.0777 182.528 98.8457 181.968 99.0537 180.848ZM104.142 175.472V172.664H115.59V175.472H111.558V185H108.198V175.472H104.142ZM127.617 178.16V178.784C128.241 178.944 128.745 179.264 129.129 179.744C129.513 180.224 129.705 180.84 129.705 181.592C129.705 183.864 128.249 185 125.337 185H118.089V172.664H125.145C126.377 172.664 127.329 172.944 128.001 173.504C128.689 174.048 129.033 174.808 129.033 175.784C129.033 176.904 128.561 177.696 127.617 178.16ZM121.377 182.576H124.569C125.737 182.576 126.321 182.12 126.321 181.208C126.321 180.28 125.737 179.816 124.569 179.816H121.377V182.576ZM121.377 175.088V177.464H124.233C125.193 177.464 125.673 177.072 125.673 176.288C125.673 175.488 125.193 175.088 124.233 175.088H121.377ZM135.884 185H132.62V172.664H135.884V179.624H136.46L141.236 172.664H144.548V185H141.284V178.064H140.708L135.884 185ZM147.033 175.472V172.664H158.481V175.472H154.449V185H151.089V175.472H147.033ZM172.451 178.208V179.216H163.619C163.715 181.424 164.715 182.528 166.619 182.528C167.835 182.528 168.603 182.096 168.923 181.232H172.331C172.075 182.512 171.459 183.512 170.483 184.232C169.507 184.952 168.203 185.312 166.571 185.312C164.635 185.312 163.099 184.72 161.963 183.536C160.843 182.352 160.283 180.768 160.283 178.784C160.283 176.816 160.843 175.256 161.963 174.104C163.083 172.936 164.595 172.352 166.499 172.352C168.323 172.352 169.763 172.896 170.819 173.984C171.875 175.072 172.419 176.48 172.451 178.208ZM169.019 176.984C168.795 175.576 167.947 174.872 166.475 174.872C165.003 174.872 164.091 175.576 163.739 176.984H169.019ZM174.051 185V181.784H174.483C175.283 181.784 175.859 181.504 176.211 180.944C176.563 180.368 176.739 179.336 176.739 177.848V172.664H187.275V185H183.915V175.472H179.835V177.968C179.835 180.544 179.411 182.36 178.563 183.416C177.715 184.472 176.355 185 174.483 185H174.051ZM194.199 172.664V176.264H197.223C198.807 176.264 200.023 176.648 200.871 177.416C201.735 178.168 202.167 179.224 202.167 180.584C202.167 181.96 201.735 183.04 200.871 183.824C200.023 184.608 198.807 185 197.223 185H190.839V172.664H194.199ZM194.199 182.216H196.743C197.511 182.216 198.047 182.08 198.351 181.808C198.655 181.52 198.807 181.104 198.807 180.56C198.807 180 198.655 179.584 198.351 179.312C198.047 179.04 197.511 178.904 196.743 178.904H194.199V182.216ZM216.663 185H213.303V180.08H208.167V185H204.807V172.664H208.167V177.272H213.303V172.664H216.663V185ZM225.894 172.352C227.846 172.352 229.398 172.944 230.55 174.128C231.702 175.312 232.278 176.88 232.278 178.832C232.278 180.784 231.702 182.352 230.55 183.536C229.398 184.72 227.846 185.312 225.894 185.312C223.958 185.312 222.406 184.72 221.238 183.536C220.086 182.336 219.51 180.768 219.51 178.832C219.51 176.896 220.086 175.336 221.238 174.152C222.406 172.952 223.958 172.352 225.894 172.352ZM225.894 182.528C226.902 182.528 227.654 182.184 228.15 181.496C228.662 180.792 228.918 179.904 228.918 178.832C228.918 177.776 228.662 176.904 228.15 176.216C227.654 175.512 226.902 175.16 225.894 175.16C224.902 175.16 224.15 175.512 223.638 176.216C223.126 176.904 222.87 177.776 222.87 178.832C222.87 179.904 223.126 180.792 223.638 181.496C224.15 182.184 224.902 182.528 225.894 182.528ZM248.055 175.16C247.063 175.16 246.311 175.512 245.799 176.216C245.303 176.904 245.055 177.776 245.055 178.832C245.055 179.888 245.303 180.768 245.799 181.472C246.311 182.176 247.063 182.528 248.055 182.528C249.015 182.528 249.743 182.184 250.239 181.496C250.751 180.808 251.007 179.92 251.007 178.832C251.007 177.76 250.751 176.88 250.239 176.192C249.743 175.504 249.015 175.16 248.055 175.16ZM241.815 172.664H245.055V173.792H245.679C246.447 172.832 247.599 172.352 249.135 172.352C250.735 172.352 252.007 172.96 252.951 174.176C253.895 175.376 254.367 176.928 254.367 178.832C254.367 180.752 253.895 182.312 252.951 183.512C252.007 184.712 250.735 185.312 249.135 185.312C247.631 185.312 246.519 184.832 245.799 183.872H245.175V189.8H241.815V172.664ZM264.798 185V183.944H264.174C263.39 184.856 262.238 185.312 260.718 185.312C259.374 185.312 258.31 184.92 257.526 184.136C256.742 183.336 256.35 182.36 256.35 181.208C256.35 180.104 256.766 179.144 257.598 178.328C258.43 177.512 259.686 177.104 261.366 177.104H264.654V176.792C264.654 175.512 263.926 174.872 262.47 174.872C261.174 174.872 260.478 175.312 260.382 176.192H257.046C257.078 175.024 257.582 174.096 258.558 173.408C259.534 172.704 260.782 172.352 262.302 172.352C264.062 172.352 265.43 172.728 266.406 173.48C267.398 174.232 267.894 175.4 267.894 176.984V185H264.798ZM261.894 182.648C262.71 182.648 263.374 182.408 263.886 181.928C264.398 181.448 264.654 180.824 264.654 180.056V179.288H262.014C260.478 179.288 259.71 179.84 259.71 180.944C259.71 182.08 260.438 182.648 261.894 182.648ZM277.54 173.072C279.3 173.072 280.716 173.648 281.788 174.8C282.876 175.936 283.42 177.4 283.42 179.192C283.42 180.984 282.828 182.456 281.644 183.608C280.476 184.744 278.94 185.312 277.036 185.312C274.988 185.312 273.396 184.664 272.26 183.368C271.14 182.072 270.58 180.184 270.58 177.704C270.58 172.392 272.204 169.48 275.452 168.968L278.62 168.464C279.1 168.384 279.42 168.288 279.58 168.176C279.74 168.048 279.836 167.84 279.868 167.552H282.58C282.58 168.432 282.412 169.168 282.076 169.76C281.74 170.352 281.076 170.736 280.084 170.912L276.028 171.56C275.164 171.688 274.508 172 274.06 172.496C273.612 172.992 273.3 173.744 273.124 174.752H273.748C274.532 173.632 275.796 173.072 277.54 173.072ZM274.732 181.544C275.26 182.2 276.02 182.528 277.012 182.528C278.004 182.528 278.756 182.2 279.268 181.544C279.78 180.888 280.036 180.072 280.036 179.096C280.036 178.12 279.78 177.312 279.268 176.672C278.756 176.032 278.004 175.712 277.012 175.712C276.004 175.712 275.244 176.032 274.732 176.672C274.22 177.312 273.964 178.12 273.964 179.096C273.964 180.072 274.22 180.888 274.732 181.544ZM291.964 172.352C293.916 172.352 295.468 172.944 296.62 174.128C297.772 175.312 298.348 176.88 298.348 178.832C298.348 180.784 297.772 182.352 296.62 183.536C295.468 184.72 293.916 185.312 291.964 185.312C290.028 185.312 288.476 184.72 287.308 183.536C286.156 182.336 285.58 180.768 285.58 178.832C285.58 176.896 286.156 175.336 287.308 174.152C288.476 172.952 290.028 172.352 291.964 172.352ZM291.964 182.528C292.972 182.528 293.724 182.184 294.22 181.496C294.732 180.792 294.988 179.904 294.988 178.832C294.988 177.776 294.732 176.904 294.22 176.216C293.724 175.512 292.972 175.16 291.964 175.16C290.972 175.16 290.22 175.512 289.708 176.216C289.196 176.904 288.94 177.776 288.94 178.832C288.94 179.904 289.196 180.792 289.708 181.496C290.22 182.184 290.972 182.528 291.964 182.528ZM299.915 175.472V172.664H311.363V175.472H307.331V185H303.971V175.472H299.915ZM321.446 185V183.944H320.822C320.038 184.856 318.886 185.312 317.366 185.312C316.022 185.312 314.958 184.92 314.174 184.136C313.39 183.336 312.998 182.36 312.998 181.208C312.998 180.104 313.414 179.144 314.246 178.328C315.078 177.512 316.334 177.104 318.014 177.104H321.302V176.792C321.302 175.512 320.574 174.872 319.118 174.872C317.822 174.872 317.126 175.312 317.03 176.192H313.694C313.726 175.024 314.23 174.096 315.206 173.408C316.182 172.704 317.43 172.352 318.95 172.352C320.71 172.352 322.078 172.728 323.054 173.48C324.046 174.232 324.542 175.4 324.542 176.984V185H321.446ZM318.542 182.648C319.358 182.648 320.022 182.408 320.534 181.928C321.046 181.448 321.302 180.824 321.302 180.056V179.288H318.662C317.126 179.288 316.358 179.84 316.358 180.944C316.358 182.08 317.086 182.648 318.542 182.648ZM339.396 178.208V179.216H330.564C330.66 181.424 331.66 182.528 333.564 182.528C334.78 182.528 335.548 182.096 335.868 181.232H339.276C339.02 182.512 338.404 183.512 337.428 184.232C336.452 184.952 335.148 185.312 333.516 185.312C331.58 185.312 330.044 184.72 328.908 183.536C327.788 182.352 327.228 180.768 327.228 178.784C327.228 176.816 327.788 175.256 328.908 174.104C330.028 172.936 331.54 172.352 333.444 172.352C335.268 172.352 336.708 172.896 337.764 173.984C338.82 175.072 339.364 176.48 339.396 178.208ZM335.964 176.984C335.74 175.576 334.892 174.872 333.42 174.872C331.948 174.872 331.036 175.576 330.684 176.984H335.964ZM341.025 175.472V172.664H352.473V175.472H348.441V185H345.081V175.472H341.025ZM357.024 185H353.328V181.352H357.024V185ZM378.199 179.528H381.919C381.663 181.272 380.895 182.672 379.615 183.728C378.351 184.784 376.735 185.312 374.767 185.312C372.191 185.312 370.175 184.504 368.719 182.888C367.279 181.256 366.559 179.104 366.559 176.432C366.559 173.76 367.287 171.616 368.743 170C370.199 168.368 372.207 167.552 374.767 167.552C376.639 167.552 378.199 168.04 379.447 169.016C380.695 169.976 381.463 171.256 381.751 172.856H378.007C377.607 171.448 376.527 170.744 374.767 170.744C373.295 170.744 372.167 171.28 371.383 172.352C370.615 173.408 370.231 174.768 370.231 176.432C370.231 178.096 370.615 179.464 371.383 180.536C372.167 181.592 373.295 182.12 374.767 182.12C375.679 182.12 376.431 181.896 377.023 181.448C377.631 180.984 378.023 180.344 378.199 179.528ZM396.614 185H393.254V175.472H388.214V185H384.854V172.664H396.614V185ZM407.743 185V183.944H407.119C406.335 184.856 405.183 185.312 403.663 185.312C402.319 185.312 401.255 184.92 400.471 184.136C399.687 183.336 399.295 182.36 399.295 181.208C399.295 180.104 399.711 179.144 400.543 178.328C401.375 177.512 402.631 177.104 404.311 177.104H407.599V176.792C407.599 175.512 406.871 174.872 405.415 174.872C404.119 174.872 403.423 175.312 403.327 176.192H399.991C400.023 175.024 400.527 174.096 401.503 173.408C402.479 172.704 403.727 172.352 405.247 172.352C407.007 172.352 408.375 172.728 409.351 173.48C410.343 174.232 410.839 175.4 410.839 176.984V185H407.743ZM404.839 182.648C405.655 182.648 406.319 182.408 406.831 181.928C407.343 181.448 407.599 180.824 407.599 180.056V179.288H404.959C403.423 179.288 402.655 179.84 402.655 180.944C402.655 182.08 403.383 182.648 404.839 182.648ZM422.069 180.848H425.381C425.221 182.192 424.621 183.272 423.581 184.088C422.557 184.904 421.277 185.312 419.741 185.312C417.837 185.312 416.325 184.728 415.205 183.56C414.085 182.376 413.525 180.8 413.525 178.832C413.525 176.88 414.085 175.312 415.205 174.128C416.325 172.944 417.837 172.352 419.741 172.352C421.277 172.352 422.541 172.744 423.533 173.528C424.541 174.296 425.125 175.32 425.285 176.6H421.949C421.677 175.64 420.949 175.16 419.765 175.16C418.773 175.16 418.045 175.496 417.581 176.168C417.117 176.84 416.885 177.72 416.885 178.808C416.885 179.896 417.117 180.792 417.581 181.496C418.061 182.184 418.789 182.528 419.765 182.528C421.093 182.528 421.861 181.968 422.069 180.848ZM431.478 185H428.214V172.664H431.478V179.624H432.054L436.83 172.664H440.142V185H436.878V178.064H436.302L431.478 185ZM449.946 173.072C451.706 173.072 453.122 173.648 454.194 174.8C455.282 175.936 455.826 177.4 455.826 179.192C455.826 180.984 455.234 182.456 454.05 183.608C452.882 184.744 451.346 185.312 449.442 185.312C447.394 185.312 445.802 184.664 444.666 183.368C443.546 182.072 442.986 180.184 442.986 177.704C442.986 172.392 444.61 169.48 447.858 168.968L451.026 168.464C451.506 168.384 451.826 168.288 451.986 168.176C452.146 168.048 452.242 167.84 452.274 167.552H454.986C454.986 168.432 454.818 169.168 454.482 169.76C454.146 170.352 453.482 170.736 452.49 170.912L448.434 171.56C447.57 171.688 446.914 172 446.466 172.496C446.018 172.992 445.706 173.744 445.53 174.752H446.154C446.938 173.632 448.202 173.072 449.946 173.072ZM447.138 181.544C447.666 182.2 448.426 182.528 449.418 182.528C450.41 182.528 451.162 182.2 451.674 181.544C452.186 180.888 452.442 180.072 452.442 179.096C452.442 178.12 452.186 177.312 451.674 176.672C451.162 176.032 450.41 175.712 449.418 175.712C448.41 175.712 447.65 176.032 447.138 176.672C446.626 177.312 446.37 178.12 446.37 179.096C446.37 180.072 446.626 180.888 447.138 181.544ZM464.37 172.352C466.322 172.352 467.874 172.944 469.026 174.128C470.178 175.312 470.754 176.88 470.754 178.832C470.754 180.784 470.178 182.352 469.026 183.536C467.874 184.72 466.322 185.312 464.37 185.312C462.434 185.312 460.882 184.72 459.714 183.536C458.562 182.336 457.986 180.768 457.986 178.832C457.986 176.896 458.562 175.336 459.714 174.152C460.882 172.952 462.434 172.352 464.37 172.352ZM464.37 182.528C465.378 182.528 466.13 182.184 466.626 181.496C467.138 180.792 467.394 179.904 467.394 178.832C467.394 177.776 467.138 176.904 466.626 176.216C466.13 175.512 465.378 175.16 464.37 175.16C463.378 175.16 462.626 175.512 462.114 176.216C461.602 176.904 461.346 177.776 461.346 178.832C461.346 179.904 461.602 180.792 462.114 181.496C462.626 182.184 463.378 182.528 464.37 182.528ZM487.324 176.288C487.324 175.488 486.62 175.088 485.212 175.088C483.868 175.088 483.1 175.536 482.908 176.432H479.836C479.964 175.088 480.532 174.072 481.54 173.384C482.548 172.696 483.852 172.352 485.452 172.352C487.052 172.352 488.316 172.688 489.244 173.36C490.188 174.016 490.66 174.864 490.66 175.904C490.66 177.104 490.244 177.888 489.412 178.256V178.88C490.484 179.232 491.02 180.08 491.02 181.424C491.02 182.56 490.508 183.496 489.484 184.232C488.46 184.952 487.116 185.312 485.452 185.312C483.564 185.312 482.116 184.952 481.108 184.232C480.116 183.496 479.548 182.464 479.404 181.136H482.5C482.772 182.096 483.7 182.576 485.284 182.576C486.868 182.576 487.66 182.136 487.66 181.256C487.66 180.824 487.5 180.512 487.18 180.32C486.876 180.128 486.372 180.032 485.668 180.032H483.652V177.464H485.548C486.732 177.464 487.324 177.072 487.324 176.288ZM501.563 185V183.944H500.939C500.155 184.856 499.003 185.312 497.483 185.312C496.139 185.312 495.075 184.92 494.291 184.136C493.507 183.336 493.115 182.36 493.115 181.208C493.115 180.104 493.531 179.144 494.363 178.328C495.195 177.512 496.451 177.104 498.131 177.104H501.419V176.792C501.419 175.512 500.691 174.872 499.235 174.872C497.939 174.872 497.243 175.312 497.147 176.192H493.811C493.843 175.024 494.347 174.096 495.323 173.408C496.299 172.704 497.547 172.352 499.067 172.352C500.827 172.352 502.195 172.728 503.171 173.48C504.163 174.232 504.659 175.4 504.659 176.984V185H501.563ZM498.659 182.648C499.475 182.648 500.139 182.408 500.651 181.928C501.163 181.448 501.419 180.824 501.419 180.056V179.288H498.779C497.243 179.288 496.475 179.84 496.475 180.944C496.475 182.08 497.203 182.648 498.659 182.648ZM524.249 178.16V178.784C524.873 178.944 525.377 179.264 525.761 179.744C526.145 180.224 526.337 180.84 526.337 181.592C526.337 183.864 524.881 185 521.969 185H514.721V172.664H521.777C523.009 172.664 523.961 172.944 524.633 173.504C525.321 174.048 525.665 174.808 525.665 175.784C525.665 176.904 525.193 177.696 524.249 178.16ZM518.009 182.576H521.201C522.369 182.576 522.953 182.12 522.953 181.208C522.953 180.28 522.369 179.816 521.201 179.816H518.009V182.576ZM518.009 175.088V177.464H520.865C521.825 177.464 522.305 177.072 522.305 176.288C522.305 175.488 521.825 175.088 520.865 175.088H518.009ZM536.837 185V183.944H536.213C535.429 184.856 534.277 185.312 532.757 185.312C531.413 185.312 530.349 184.92 529.565 184.136C528.781 183.336 528.389 182.36 528.389 181.208C528.389 180.104 528.805 179.144 529.637 178.328C530.469 177.512 531.725 177.104 533.405 177.104H536.693V176.792C536.693 175.512 535.965 174.872 534.509 174.872C533.213 174.872 532.517 175.312 532.421 176.192H529.085C529.117 175.024 529.621 174.096 530.597 173.408C531.573 172.704 532.821 172.352 534.341 172.352C536.101 172.352 537.469 172.728 538.445 173.48C539.437 174.232 539.933 175.4 539.933 176.984V185H536.837ZM533.933 182.648C534.749 182.648 535.413 182.408 535.925 181.928C536.437 181.448 536.693 180.824 536.693 180.056V179.288H534.053C532.517 179.288 531.749 179.84 531.749 180.944C531.749 182.08 532.477 182.648 533.933 182.648ZM557.163 172.664H560.403V185H543.315V172.664H546.579V182.216H550.251V172.664H553.491V182.216H557.163V172.664ZM575.436 178.208V179.216H566.604C566.7 181.424 567.7 182.528 569.604 182.528C570.82 182.528 571.588 182.096 571.908 181.232H575.316C575.06 182.512 574.444 183.512 573.468 184.232C572.492 184.952 571.188 185.312 569.556 185.312C567.62 185.312 566.084 184.72 564.948 183.536C563.828 182.352 563.268 180.768 563.268 178.784C563.268 176.816 563.828 175.256 564.948 174.104C566.068 172.936 567.58 172.352 569.484 172.352C571.308 172.352 572.748 172.896 573.804 173.984C574.86 175.072 575.404 176.48 575.436 178.208ZM572.004 176.984C571.78 175.576 570.932 174.872 569.46 174.872C567.988 174.872 567.076 175.576 566.724 176.984H572.004ZM56.536 217H53.176V207.472H48.136V217H44.776V204.664H56.536V217ZM66.3207 207.16C65.3287 207.16 64.5767 207.512 64.0647 208.216C63.5687 208.904 63.3207 209.776 63.3207 210.832C63.3207 211.888 63.5687 212.768 64.0647 213.472C64.5767 214.176 65.3287 214.528 66.3207 214.528C67.2807 214.528 68.0087 214.184 68.5047 213.496C69.0167 212.808 69.2727 211.92 69.2727 210.832C69.2727 209.76 69.0167 208.88 68.5047 208.192C68.0087 207.504 67.2807 207.16 66.3207 207.16ZM60.0807 204.664H63.3207V205.792H63.9447C64.7127 204.832 65.8647 204.352 67.4007 204.352C69.0007 204.352 70.2727 204.96 71.2167 206.176C72.1607 207.376 72.6327 208.928 72.6327 210.832C72.6327 212.752 72.1607 214.312 71.2167 215.512C70.2727 216.712 69.0007 217.312 67.4007 217.312C65.8967 217.312 64.7847 216.832 64.0647 215.872H63.4407V221.8H60.0807V204.664ZM81.1671 204.352C83.1191 204.352 84.6711 204.944 85.8231 206.128C86.9751 207.312 87.5511 208.88 87.5511 210.832C87.5511 212.784 86.9751 214.352 85.8231 215.536C84.6711 216.72 83.1191 217.312 81.1671 217.312C79.2311 217.312 77.6791 216.72 76.5111 215.536C75.3591 214.336 74.7831 212.768 74.7831 210.832C74.7831 208.896 75.3591 207.336 76.5111 206.152C77.6791 204.952 79.2311 204.352 81.1671 204.352ZM81.1671 214.528C82.1751 214.528 82.9271 214.184 83.4231 213.496C83.9351 212.792 84.1911 211.904 84.1911 210.832C84.1911 209.776 83.9351 208.904 83.4231 208.216C82.9271 207.512 82.1751 207.16 81.1671 207.16C80.1751 207.16 79.4231 207.512 78.9111 208.216C78.3991 208.904 78.1431 209.776 78.1431 210.832C78.1431 211.904 78.3991 212.792 78.9111 213.496C79.4231 214.184 80.1751 214.528 81.1671 214.528ZM99.6488 217V221.8H96.3848V217H96.1688C94.1368 217 92.5528 216.432 91.4168 215.296C90.2808 214.144 89.7128 212.656 89.7128 210.832C89.7128 209.024 90.2648 207.552 91.3688 206.416C92.4888 205.28 94.0488 204.696 96.0488 204.664H96.3848V199.552H99.6488V204.664H99.9848C101.953 204.696 103.497 205.28 104.617 206.416C105.753 207.552 106.321 209.024 106.321 210.832C106.321 212.688 105.729 214.184 104.545 215.32C103.377 216.44 101.745 217 99.6488 217ZM93.0008 210.832C93.0008 211.856 93.2648 212.704 93.7928 213.376C94.3368 214.032 95.1128 214.376 96.1208 214.408H96.3848V207.256H96.1448C95.1208 207.288 94.3368 207.64 93.7928 208.312C93.2648 208.984 93.0008 209.824 93.0008 210.832ZM99.6488 214.408H99.8408C100.881 214.376 101.665 214.032 102.193 213.376C102.737 212.704 103.009 211.856 103.009 210.832C103.009 209.808 102.737 208.968 102.193 208.312C101.665 207.64 100.881 207.288 99.8408 207.256H99.6488V214.408ZM120.654 210.208V211.216H111.822C111.918 213.424 112.918 214.528 114.822 214.528C116.038 214.528 116.806 214.096 117.126 213.232H120.534C120.278 214.512 119.662 215.512 118.686 216.232C117.71 216.952 116.406 217.312 114.774 217.312C112.838 217.312 111.302 216.72 110.166 215.536C109.046 214.352 108.486 212.768 108.486 210.784C108.486 208.816 109.046 207.256 110.166 206.104C111.286 204.936 112.798 204.352 114.702 204.352C116.526 204.352 117.966 204.896 119.022 205.984C120.078 207.072 120.622 208.48 120.654 210.208ZM117.222 208.984C116.998 207.576 116.15 206.872 114.678 206.872C113.206 206.872 112.294 207.576 111.942 208.984H117.222ZM131.351 212.848H134.663C134.503 214.192 133.903 215.272 132.863 216.088C131.839 216.904 130.559 217.312 129.023 217.312C127.119 217.312 125.607 216.728 124.487 215.56C123.367 214.376 122.807 212.8 122.807 210.832C122.807 208.88 123.367 207.312 124.487 206.128C125.607 204.944 127.119 204.352 129.023 204.352C130.559 204.352 131.823 204.744 132.815 205.528C133.823 206.296 134.407 207.32 134.567 208.6H131.231C130.959 207.64 130.231 207.16 129.047 207.16C128.055 207.16 127.327 207.496 126.863 208.168C126.399 208.84 126.167 209.72 126.167 210.808C126.167 211.896 126.399 212.792 126.863 213.496C127.343 214.184 128.071 214.528 129.047 214.528C130.375 214.528 131.143 213.968 131.351 212.848ZM145.343 212.848H148.655C148.495 214.192 147.895 215.272 146.855 216.088C145.831 216.904 144.551 217.312 143.015 217.312C141.111 217.312 139.599 216.728 138.479 215.56C137.359 214.376 136.799 212.8 136.799 210.832C136.799 208.88 137.359 207.312 138.479 206.128C139.599 204.944 141.111 204.352 143.015 204.352C144.551 204.352 145.815 204.744 146.807 205.528C147.815 206.296 148.399 207.32 148.559 208.6H145.223C144.951 207.64 144.223 207.16 143.039 207.16C142.047 207.16 141.319 207.496 140.855 208.168C140.391 208.84 140.159 209.72 140.159 210.808C140.159 211.896 140.391 212.792 140.855 213.496C141.335 214.184 142.063 214.528 143.039 214.528C144.367 214.528 145.135 213.968 145.343 212.848ZM154.751 217H151.487V204.664H154.751V211.624H155.327L160.103 204.664H163.415V217H160.151V210.064H159.575L154.751 217ZM172.644 204.352C174.596 204.352 176.148 204.944 177.3 206.128C178.452 207.312 179.028 208.88 179.028 210.832C179.028 212.784 178.452 214.352 177.3 215.536C176.148 216.72 174.596 217.312 172.644 217.312C170.708 217.312 169.156 216.72 167.988 215.536C166.836 214.336 166.26 212.768 166.26 210.832C166.26 208.896 166.836 207.336 167.988 206.152C169.156 204.952 170.708 204.352 172.644 204.352ZM172.644 214.528C173.652 214.528 174.404 214.184 174.9 213.496C175.412 212.792 175.668 211.904 175.668 210.832C175.668 209.776 175.412 208.904 174.9 208.216C174.404 207.512 173.652 207.16 172.644 207.16C171.652 207.16 170.9 207.512 170.388 208.216C169.876 208.904 169.62 209.776 169.62 210.832C169.62 211.904 169.876 212.792 170.388 213.496C170.9 214.184 171.652 214.528 172.644 214.528ZM193.741 217H190.381V212.08H185.245V217H181.885V204.664H185.245V209.272H190.381V204.664H193.741V217ZM204.868 217V215.944H204.244C203.46 216.856 202.308 217.312 200.788 217.312C199.444 217.312 198.38 216.92 197.596 216.136C196.812 215.336 196.42 214.36 196.42 213.208C196.42 212.104 196.836 211.144 197.668 210.328C198.5 209.512 199.756 209.104 201.436 209.104H204.724V208.792C204.724 207.512 203.996 206.872 202.54 206.872C201.244 206.872 200.548 207.312 200.452 208.192H197.116C197.148 207.024 197.652 206.096 198.628 205.408C199.604 204.704 200.852 204.352 202.372 204.352C204.132 204.352 205.5 204.728 206.476 205.48C207.468 206.232 207.964 207.4 207.964 208.984V217H204.868ZM201.964 214.648C202.78 214.648 203.444 214.408 203.956 213.928C204.468 213.448 204.724 212.824 204.724 212.056V211.288H202.084C200.548 211.288 199.78 211.84 199.78 212.944C199.78 214.08 200.508 214.648 201.964 214.648ZM210.098 217V213.784H210.53C211.33 213.784 211.906 213.504 212.258 212.944C212.61 212.368 212.786 211.336 212.786 209.848V204.664H223.322V217H219.962V207.472H215.882V209.968C215.882 212.544 215.458 214.36 214.61 215.416C213.762 216.472 212.402 217 210.53 217H210.098ZM230.245 204.664V208.264H233.269C234.853 208.264 236.069 208.648 236.917 209.416C237.781 210.168 238.213 211.224 238.213 212.584C238.213 213.96 237.781 215.04 236.917 215.824C236.069 216.608 234.853 217 233.269 217H226.885V204.664H230.245ZM230.245 214.216H232.789C233.557 214.216 234.093 214.08 234.397 213.808C234.701 213.52 234.853 213.104 234.853 212.56C234.853 212 234.701 211.584 234.397 211.312C234.093 211.04 233.557 210.904 232.789 210.904H230.245V214.216ZM252.71 217H249.35V212.08H244.214V217H240.854V204.664H244.214V209.272H249.35V204.664H252.71V217ZM261.941 204.352C263.893 204.352 265.445 204.944 266.597 206.128C267.749 207.312 268.325 208.88 268.325 210.832C268.325 212.784 267.749 214.352 266.597 215.536C265.445 216.72 263.893 217.312 261.941 217.312C260.005 217.312 258.453 216.72 257.285 215.536C256.133 214.336 255.557 212.768 255.557 210.832C255.557 208.896 256.133 207.336 257.285 206.152C258.453 204.952 260.005 204.352 261.941 204.352ZM261.941 214.528C262.949 214.528 263.701 214.184 264.197 213.496C264.709 212.792 264.965 211.904 264.965 210.832C264.965 209.776 264.709 208.904 264.197 208.216C263.701 207.512 262.949 207.16 261.941 207.16C260.949 207.16 260.197 207.512 259.685 208.216C259.173 208.904 258.917 209.776 258.917 210.832C258.917 211.904 259.173 212.792 259.685 213.496C260.197 214.184 260.949 214.528 261.941 214.528ZM282.654 210.208V211.216H273.822C273.918 213.424 274.918 214.528 276.822 214.528C278.038 214.528 278.806 214.096 279.126 213.232H282.534C282.278 214.512 281.662 215.512 280.686 216.232C279.71 216.952 278.406 217.312 276.774 217.312C274.838 217.312 273.302 216.72 272.166 215.536C271.046 214.352 270.486 212.768 270.486 210.784C270.486 208.816 271.046 207.256 272.166 206.104C273.286 204.936 274.798 204.352 276.702 204.352C278.526 204.352 279.966 204.896 281.022 205.984C282.078 207.072 282.622 208.48 282.654 210.208ZM279.222 208.984C278.998 207.576 278.15 206.872 276.678 206.872C275.206 206.872 274.294 207.576 273.942 208.984H279.222ZM297.87 204.352C299.822 204.352 301.374 204.944 302.526 206.128C303.678 207.312 304.254 208.88 304.254 210.832C304.254 212.784 303.678 214.352 302.526 215.536C301.374 216.72 299.822 217.312 297.87 217.312C295.934 217.312 294.382 216.72 293.214 215.536C292.062 214.336 291.486 212.768 291.486 210.832C291.486 208.896 292.062 207.336 293.214 206.152C294.382 204.952 295.934 204.352 297.87 204.352ZM297.87 214.528C298.878 214.528 299.63 214.184 300.126 213.496C300.638 212.792 300.894 211.904 300.894 210.832C300.894 209.776 300.638 208.904 300.126 208.216C299.63 207.512 298.878 207.16 297.87 207.16C296.878 207.16 296.126 207.512 295.614 208.216C295.102 208.904 294.846 209.776 294.846 210.832C294.846 211.904 295.102 212.792 295.614 213.496C296.126 214.184 296.878 214.528 297.87 214.528ZM313.376 205.072C315.136 205.072 316.552 205.648 317.624 206.8C318.712 207.936 319.256 209.4 319.256 211.192C319.256 212.984 318.664 214.456 317.48 215.608C316.312 216.744 314.776 217.312 312.872 217.312C310.824 217.312 309.232 216.664 308.096 215.368C306.976 214.072 306.416 212.184 306.416 209.704C306.416 204.392 308.04 201.48 311.288 200.968L314.456 200.464C314.936 200.384 315.256 200.288 315.416 200.176C315.576 200.048 315.672 199.84 315.704 199.552H318.416C318.416 200.432 318.248 201.168 317.912 201.76C317.576 202.352 316.912 202.736 315.92 202.912L311.864 203.56C311 203.688 310.344 204 309.896 204.496C309.448 204.992 309.136 205.744 308.96 206.752H309.584C310.368 205.632 311.632 205.072 313.376 205.072ZM310.568 213.544C311.096 214.2 311.856 214.528 312.848 214.528C313.84 214.528 314.592 214.2 315.104 213.544C315.616 212.888 315.872 212.072 315.872 211.096C315.872 210.12 315.616 209.312 315.104 208.672C314.592 208.032 313.84 207.712 312.848 207.712C311.84 207.712 311.08 208.032 310.568 208.672C310.056 209.312 309.8 210.12 309.8 211.096C309.8 212.072 310.056 212.888 310.568 213.544ZM329.96 212.848H333.272C333.112 214.192 332.512 215.272 331.472 216.088C330.448 216.904 329.168 217.312 327.632 217.312C325.728 217.312 324.216 216.728 323.096 215.56C321.976 214.376 321.416 212.8 321.416 210.832C321.416 208.88 321.976 207.312 323.096 206.128C324.216 204.944 325.728 204.352 327.632 204.352C329.168 204.352 330.432 204.744 331.424 205.528C332.432 206.296 333.016 207.32 333.176 208.6H329.84C329.568 207.64 328.84 207.16 327.656 207.16C326.664 207.16 325.936 207.496 325.472 208.168C325.008 208.84 324.776 209.72 324.776 210.808C324.776 211.896 325.008 212.792 325.472 213.496C325.952 214.184 326.68 214.528 327.656 214.528C328.984 214.528 329.752 213.968 329.96 212.848ZM334.856 217V213.784H335.288C336.088 213.784 336.664 213.504 337.016 212.944C337.368 212.368 337.544 211.336 337.544 209.848V204.664H348.08V217H344.72V207.472H340.64V209.968C340.64 212.544 340.216 214.36 339.368 215.416C338.52 216.472 337.16 217 335.288 217H334.856ZM356.275 221.8H352.915L355.531 215.728L350.299 204.664H353.803L356.875 211.24H357.499L360.331 204.664H363.715L356.275 221.8ZM370.597 212.104L368.365 217H364.957L367.861 210.664L365.149 204.664H368.509L370.597 209.296H372.973V204.664H376.093V209.296H378.445L380.533 204.664H383.917L381.181 210.664L384.109 217H380.677L378.445 212.104H376.093V217H372.973V212.104H370.597ZM389.97 217H386.706V204.664H389.97V211.624H390.546L395.322 204.664H398.634V217H395.37V210.064H394.794L389.97 217ZM411.702 210.16V210.784C412.326 210.944 412.83 211.264 413.214 211.744C413.598 212.224 413.79 212.84 413.79 213.592C413.79 215.864 412.334 217 409.422 217H402.174V204.664H409.23C410.462 204.664 411.414 204.944 412.086 205.504C412.774 206.048 413.118 206.808 413.118 207.784C413.118 208.904 412.646 209.696 411.702 210.16ZM405.462 214.576H408.654C409.822 214.576 410.406 214.12 410.406 213.208C410.406 212.28 409.822 211.816 408.654 211.816H405.462V214.576ZM405.462 207.088V209.464H408.318C409.278 209.464 409.758 209.072 409.758 208.288C409.758 207.488 409.278 207.088 408.318 207.088H405.462ZM424.29 217V215.944H423.666C422.882 216.856 421.73 217.312 420.21 217.312C418.866 217.312 417.802 216.92 417.018 216.136C416.234 215.336 415.842 214.36 415.842 213.208C415.842 212.104 416.258 211.144 417.09 210.328C417.922 209.512 419.178 209.104 420.858 209.104H424.146V208.792C424.146 207.512 423.418 206.872 421.962 206.872C420.666 206.872 419.97 207.312 419.874 208.192H416.538C416.57 207.024 417.074 206.096 418.05 205.408C419.026 204.704 420.274 204.352 421.794 204.352C423.554 204.352 424.922 204.728 425.898 205.48C426.89 206.232 427.386 207.4 427.386 208.984V217H424.29ZM421.386 214.648C422.202 214.648 422.866 214.408 423.378 213.928C423.89 213.448 424.146 212.824 424.146 212.056V211.288H421.506C419.97 211.288 419.202 211.84 419.202 212.944C419.202 214.08 419.93 214.648 421.386 214.648ZM442.624 217H439.264V212.08H434.128V217H430.768V204.664H434.128V209.272H439.264V204.664H442.624V217ZM449.431 217H446.167V204.664H449.431V211.624H450.007L454.783 204.664H458.095V217H454.831V210.064H454.255L449.431 217ZM473.107 210.208V211.216H464.275C464.371 213.424 465.371 214.528 467.275 214.528C468.491 214.528 469.259 214.096 469.579 213.232H472.987C472.731 214.512 472.115 215.512 471.139 216.232C470.163 216.952 468.859 217.312 467.227 217.312C465.291 217.312 463.755 216.72 462.619 215.536C461.499 214.352 460.939 212.768 460.939 210.784C460.939 208.816 461.499 207.256 462.619 206.104C463.739 204.936 465.251 204.352 467.155 204.352C468.979 204.352 470.419 204.896 471.475 205.984C472.531 207.072 473.075 208.48 473.107 210.208ZM469.675 208.984C469.451 207.576 468.603 206.872 467.131 206.872C465.659 206.872 464.747 207.576 464.395 208.984H469.675Z" fill="#111827"/>
<path d="M57.64 309.56H60.112V315.2H58.528V311H44.824V315.2H43.24V309.56H45.016C46.536 305.96 47.296 301.88 47.296 297.32V293.864H57.64V309.56ZM56.056 309.56V295.304H48.88V297.32C48.88 301.96 48.184 306.04 46.792 309.56H56.056ZM63.5556 311V299H66.2436L69.4356 304.808H69.9156L73.0356 299H75.7236V311H74.2116V300.488H73.7796L70.6596 306.2H68.6436L65.4996 300.488H65.0676V311H63.5556ZM82.4618 311H79.7978V299H81.3098V309.512H81.7898L87.3578 299H90.1418V311H88.6298V300.488H88.1498L82.4618 311ZM92.8919 300.344V299H102.876V300.344H98.6519V311H97.1399V300.344H92.8919ZM111.458 311.312C109.762 311.312 108.482 310.76 107.618 309.656H107.138V315.8H105.626V299H107.09V300.344H107.57C108.45 299.24 109.746 298.688 111.458 298.688C113.09 298.688 114.386 299.288 115.346 300.488C116.322 301.672 116.81 303.176 116.81 305C116.81 306.84 116.33 308.352 115.37 309.536C114.41 310.72 113.106 311.312 111.458 311.312ZM111.266 300.032C109.89 300.032 108.858 300.512 108.17 301.472C107.482 302.432 107.138 303.608 107.138 305C107.138 306.408 107.482 307.592 108.17 308.552C108.858 309.496 109.89 309.968 111.266 309.968C112.546 309.968 113.538 309.52 114.242 308.624C114.946 307.712 115.298 306.504 115.298 305C115.298 303.496 114.946 302.296 114.242 301.4C113.538 300.488 112.546 300.032 111.266 300.032ZM122.774 311H120.11V299H121.622V309.512H122.102L127.67 299H130.454V311H128.942V300.488H128.462L122.774 311ZM137.188 311H134.524V299H136.036V309.512H136.516L142.084 299H144.868V311H143.356V300.488H142.876L137.188 311ZM141.844 293.552H143.116V293.84C143.116 294.832 142.788 295.616 142.132 296.192C141.476 296.752 140.644 297.032 139.636 297.032C138.628 297.032 137.796 296.752 137.14 296.192C136.5 295.632 136.18 294.848 136.18 293.84V293.552H137.452V293.84C137.452 294.464 137.652 294.96 138.052 295.328C138.452 295.68 138.98 295.856 139.636 295.856C140.308 295.856 140.844 295.68 141.244 295.328C141.644 294.96 141.844 294.464 141.844 293.84V293.552Z" fill="#6B7280"/>
<path d="M566.539 267.589C566.539 272.232 565.834 276.22 564.426 279.554C563.018 283.006 561.198 285.804 558.968 287.946C556.738 290.208 554.215 291.815 551.398 292.768C548.464 293.839 545.588 294.375 542.771 294.375L542.771 288.125C545.823 288.125 548.698 287.054 551.398 284.911C553.98 282.887 555.506 280.089 555.975 276.518C555.623 276.637 555.212 276.756 554.743 276.875C554.391 276.994 553.98 277.113 553.511 277.232C552.924 277.351 552.278 277.411 551.574 277.411C548.053 277.411 545.119 276.042 542.771 273.304C540.424 270.685 539.25 267.589 539.25 264.018C539.25 260.446 540.482 257.292 542.947 254.554C545.295 251.935 548.464 250.625 552.454 250.625C556.914 250.625 560.377 252.292 562.842 255.625C565.306 259.077 566.539 263.065 566.539 267.589ZM601.75 267.589C601.75 272.232 601.046 276.22 599.637 279.554C598.229 283.006 596.41 285.804 594.18 287.946C591.95 290.208 589.426 291.815 586.609 292.768C583.675 293.839 580.799 294.375 577.982 294.375L577.982 288.125C581.034 288.125 583.91 287.054 586.609 284.911C589.191 282.887 590.717 280.089 591.187 276.518C590.835 276.637 590.424 276.756 589.954 276.875C589.602 276.994 589.191 277.113 588.722 277.232C588.135 277.351 587.489 277.411 586.785 277.411C583.264 277.411 580.33 276.042 577.982 273.304C575.635 270.685 574.461 267.589 574.461 264.018C574.461 260.446 575.694 257.292 578.158 254.554C580.506 251.935 583.675 250.625 587.665 250.625C592.126 250.625 595.588 252.292 598.053 255.625C600.518 259.077 601.75 263.065 601.75 267.589Z" fill="#EDE9FE"/>
</svg>
