<svg width="626" height="350" viewBox="0 0 626 350" fill="none" xmlns="http://www.w3.org/2000/svg">
<rect width="626" height="350" rx="16" fill="#F9FAFB"/>
<path d="M56.92 47.784V48.408C57.56 48.696 58.088 49.168 58.504 49.824C58.936 50.48 59.152 51.216 59.152 52.032C59.152 53.536 58.656 54.744 57.664 55.656C56.672 56.552 55.2 57 53.248 57H44.992V39.864H53.032C54.84 39.864 56.232 40.296 57.208 41.16C58.184 42.024 58.672 43.104 58.672 44.4C58.672 45.168 58.512 45.856 58.192 46.464C57.888 47.056 57.464 47.496 56.92 47.784ZM48.568 46.656H52.6C54.2 46.656 55 46.016 55 44.736C55 43.472 54.192 42.84 52.576 42.84H48.568V46.656ZM48.568 53.952H52.72C54.56 53.952 55.48 53.248 55.48 51.84C55.48 50.384 54.576 49.656 52.768 49.656H48.568V53.952ZM69.7272 57V55.944H69.1032C68.3192 56.856 67.1672 57.312 65.6472 57.312C64.3032 57.312 63.2392 56.92 62.4552 56.136C61.6712 55.336 61.2792 54.36 61.2792 53.208C61.2792 52.104 61.6952 51.144 62.5272 50.328C63.3592 49.512 64.6152 49.104 66.2952 49.104H69.5832V48.792C69.5832 47.512 68.8552 46.872 67.3992 46.872C66.1032 46.872 65.4072 47.312 65.3112 48.192H61.9752C62.0072 47.024 62.5112 46.096 63.4872 45.408C64.4632 44.704 65.7112 44.352 67.2312 44.352C68.9912 44.352 70.3592 44.728 71.3352 45.48C72.3272 46.232 72.8232 47.4 72.8232 48.984V57H69.7272ZM66.8232 54.648C67.6392 54.648 68.3032 54.408 68.8152 53.928C69.3272 53.448 69.5832 52.824 69.5832 52.056V51.288H66.9432C65.4072 51.288 64.6392 51.84 64.6392 52.944C64.6392 54.08 65.3672 54.648 66.8232 54.648ZM90.0537 44.664H93.2937V57H76.2057V44.664H79.4697V54.216H83.1417V44.664H86.3817V54.216H90.0537V44.664ZM111.382 52.848H114.694C114.534 54.192 113.934 55.272 112.894 56.088C111.87 56.904 110.59 57.312 109.054 57.312C107.15 57.312 105.638 56.728 104.518 55.56C103.398 54.376 102.838 52.8 102.838 50.832C102.838 48.88 103.398 47.312 104.518 46.128C105.638 44.944 107.15 44.352 109.054 44.352C110.59 44.352 111.854 44.744 112.846 45.528C113.854 46.296 114.438 47.32 114.598 48.6H111.262C110.99 47.64 110.262 47.16 109.078 47.16C108.086 47.16 107.358 47.496 106.894 48.168C106.43 48.84 106.198 49.72 106.198 50.808C106.198 51.896 106.43 52.792 106.894 53.496C107.374 54.184 108.102 54.528 109.078 54.528C110.406 54.528 111.174 53.968 111.382 52.848ZM128.998 50.208V51.216H120.166C120.262 53.424 121.262 54.528 123.166 54.528C124.382 54.528 125.15 54.096 125.47 53.232H128.878C128.622 54.512 128.006 55.512 127.03 56.232C126.054 56.952 124.75 57.312 123.118 57.312C121.182 57.312 119.646 56.72 118.51 55.536C117.39 54.352 116.83 52.768 116.83 50.784C116.83 48.816 117.39 47.256 118.51 46.104C119.63 44.936 121.142 44.352 123.046 44.352C124.87 44.352 126.31 44.896 127.366 45.984C128.422 47.072 128.966 48.48 128.998 50.208ZM125.566 48.984C125.342 47.576 124.494 46.872 123.022 46.872C121.55 46.872 120.638 47.576 120.286 48.984H125.566ZM138.086 47.16C137.094 47.16 136.342 47.512 135.83 48.216C135.334 48.904 135.086 49.776 135.086 50.832C135.086 51.888 135.334 52.768 135.83 53.472C136.342 54.176 137.094 54.528 138.086 54.528C139.046 54.528 139.774 54.184 140.27 53.496C140.782 52.808 141.038 51.92 141.038 50.832C141.038 49.76 140.782 48.88 140.27 48.192C139.774 47.504 139.046 47.16 138.086 47.16ZM131.846 44.664H135.086V45.792H135.71C136.478 44.832 137.63 44.352 139.166 44.352C140.766 44.352 142.038 44.96 142.982 46.176C143.926 47.376 144.398 48.928 144.398 50.832C144.398 52.752 143.926 54.312 142.982 55.512C142.038 56.712 140.766 57.312 139.166 57.312C137.662 57.312 136.55 56.832 135.83 55.872H135.206V61.8H131.846V44.664ZM156.773 50.16V50.784C157.397 50.944 157.901 51.264 158.285 51.744C158.669 52.224 158.861 52.84 158.861 53.592C158.861 55.864 157.405 57 154.493 57H147.245V44.664H154.301C155.533 44.664 156.485 44.944 157.157 45.504C157.845 46.048 158.189 46.808 158.189 47.784C158.189 48.904 157.717 49.696 156.773 50.16ZM150.533 54.576H153.725C154.893 54.576 155.477 54.12 155.477 53.208C155.477 52.28 154.893 51.816 153.725 51.816H150.533V54.576ZM150.533 47.088V49.464H153.389C154.349 49.464 154.829 49.072 154.829 48.288C154.829 47.488 154.349 47.088 153.389 47.088H150.533ZM165.04 57H161.776V44.664H165.04V51.624H165.616L170.392 44.664H173.704V57H170.44V50.064H169.864L165.04 57ZM185.093 52.848H188.405C188.245 54.192 187.645 55.272 186.605 56.088C185.581 56.904 184.301 57.312 182.765 57.312C180.861 57.312 179.349 56.728 178.229 55.56C177.109 54.376 176.549 52.8 176.549 50.832C176.549 48.88 177.109 47.312 178.229 46.128C179.349 44.944 180.861 44.352 182.765 44.352C184.301 44.352 185.565 44.744 186.557 45.528C187.565 46.296 188.149 47.32 188.309 48.6H184.973C184.701 47.64 183.973 47.16 182.789 47.16C181.797 47.16 181.069 47.496 180.605 48.168C180.141 48.84 179.909 49.72 179.909 50.808C179.909 51.896 180.141 52.792 180.605 53.496C181.085 54.184 181.813 54.528 182.789 54.528C184.117 54.528 184.885 53.968 185.093 52.848ZM209.893 54.216H212.077V60.432H208.909V57H199.765V60.432H196.597V54.216H198.421C199.141 52.376 199.501 50.376 199.501 48.216V44.664H209.893V54.216ZM206.533 54.216V47.472H202.525V48.24C202.525 50.528 202.221 52.52 201.613 54.216H206.533ZM226.029 50.208V51.216H217.197C217.293 53.424 218.293 54.528 220.197 54.528C221.413 54.528 222.181 54.096 222.501 53.232H225.909C225.653 54.512 225.037 55.512 224.061 56.232C223.085 56.952 221.781 57.312 220.149 57.312C218.213 57.312 216.677 56.72 215.541 55.536C214.421 54.352 213.861 52.768 213.861 50.784C213.861 48.816 214.421 47.256 215.541 46.104C216.661 44.936 218.173 44.352 220.077 44.352C221.901 44.352 223.341 44.896 224.397 45.984C225.453 47.072 225.997 48.48 226.029 50.208ZM222.597 48.984C222.373 47.576 221.525 46.872 220.053 46.872C218.581 46.872 217.669 47.576 217.317 48.984H222.597ZM232.142 57H228.878V44.664H232.142V51.624H232.718L237.494 44.664H240.806V57H237.542V50.064H236.966L232.142 57ZM236.606 39.768H239.198C239.102 40.904 238.678 41.792 237.926 42.432C237.19 43.056 236.158 43.368 234.83 43.368C233.502 43.368 232.47 43.056 231.734 42.432C230.998 41.792 230.582 40.904 230.486 39.768H233.078C233.126 40.2 233.294 40.552 233.582 40.824C233.87 41.096 234.286 41.232 234.83 41.232C235.902 41.232 236.494 40.744 236.606 39.768ZM252.194 52.848H255.506C255.346 54.192 254.746 55.272 253.706 56.088C252.682 56.904 251.402 57.312 249.866 57.312C247.962 57.312 246.45 56.728 245.33 55.56C244.21 54.376 243.65 52.8 243.65 50.832C243.65 48.88 244.21 47.312 245.33 46.128C246.45 44.944 247.962 44.352 249.866 44.352C251.402 44.352 252.666 44.744 253.658 45.528C254.666 46.296 255.25 47.32 255.41 48.6H252.074C251.802 47.64 251.074 47.16 249.89 47.16C248.898 47.16 248.17 47.496 247.706 48.168C247.242 48.84 247.01 49.72 247.01 50.808C247.01 51.896 247.242 52.792 247.706 53.496C248.186 54.184 248.914 54.528 249.89 54.528C251.218 54.528 251.986 53.968 252.194 52.848ZM257.283 47.472V44.664H268.731V47.472H264.699V57H261.339V47.472H257.283ZM280.757 50.16V50.784C281.381 50.944 281.885 51.264 282.269 51.744C282.653 52.224 282.845 52.84 282.845 53.592C282.845 55.864 281.389 57 278.477 57H271.229V44.664H278.285C279.517 44.664 280.469 44.944 281.141 45.504C281.829 46.048 282.173 46.808 282.173 47.784C282.173 48.904 281.701 49.696 280.757 50.16ZM274.517 54.576H277.709C278.877 54.576 279.461 54.12 279.461 53.208C279.461 52.28 278.877 51.816 277.709 51.816H274.517V54.576ZM274.517 47.088V49.464H277.373C278.333 49.464 278.813 49.072 278.813 48.288C278.813 47.488 278.333 47.088 277.373 47.088H274.517ZM289.024 57H285.76V44.664H289.024V51.624H289.6L294.376 44.664H297.688V57H294.424V50.064H293.848L289.024 57ZM300.173 47.472V44.664H311.621V47.472H307.589V57H304.229V47.472H300.173ZM325.592 50.208V51.216H316.76C316.856 53.424 317.856 54.528 319.76 54.528C320.976 54.528 321.744 54.096 322.064 53.232H325.472C325.216 54.512 324.6 55.512 323.624 56.232C322.648 56.952 321.344 57.312 319.712 57.312C317.776 57.312 316.24 56.72 315.104 55.536C313.984 54.352 313.424 52.768 313.424 50.784C313.424 48.816 313.984 47.256 315.104 46.104C316.224 44.936 317.736 44.352 319.64 44.352C321.464 44.352 322.904 44.896 323.96 45.984C325.016 47.072 325.56 48.48 325.592 50.208ZM322.16 48.984C321.936 47.576 321.088 46.872 319.616 46.872C318.144 46.872 317.232 47.576 316.88 48.984H322.16ZM327.192 57V53.784H327.624C328.424 53.784 329 53.504 329.352 52.944C329.704 52.368 329.88 51.336 329.88 49.848V44.664H340.416V57H337.056V47.472H332.976V49.968C332.976 52.544 332.552 54.36 331.704 55.416C330.856 56.472 329.496 57 327.624 57H327.192ZM347.339 44.664V48.264H350.363C351.947 48.264 353.163 48.648 354.011 49.416C354.875 50.168 355.307 51.224 355.307 52.584C355.307 53.96 354.875 55.04 354.011 55.824C353.163 56.608 351.947 57 350.363 57H343.979V44.664H347.339ZM347.339 54.216H349.883C350.651 54.216 351.187 54.08 351.491 53.808C351.795 53.52 351.947 53.104 351.947 52.56C351.947 52 351.795 51.584 351.491 51.312C351.187 51.04 350.651 50.904 349.883 50.904H347.339V54.216ZM369.804 57H366.444V52.08H361.308V57H357.948V44.664H361.308V49.272H366.444V44.664H369.804V57ZM379.034 44.352C380.986 44.352 382.538 44.944 383.69 46.128C384.842 47.312 385.418 48.88 385.418 50.832C385.418 52.784 384.842 54.352 383.69 55.536C382.538 56.72 380.986 57.312 379.034 57.312C377.098 57.312 375.546 56.72 374.378 55.536C373.226 54.336 372.65 52.768 372.65 50.832C372.65 48.896 373.226 47.336 374.378 46.152C375.546 44.952 377.098 44.352 379.034 44.352ZM379.034 54.528C380.042 54.528 380.794 54.184 381.29 53.496C381.802 52.792 382.058 51.904 382.058 50.832C382.058 49.776 381.802 48.904 381.29 48.216C380.794 47.512 380.042 47.16 379.034 47.16C378.042 47.16 377.29 47.512 376.778 48.216C376.266 48.904 376.01 49.776 376.01 50.832C376.01 51.904 376.266 52.792 376.778 53.496C377.29 54.184 378.042 54.528 379.034 54.528ZM398.22 57H394.956V44.664H398.22V51.624H398.796L403.572 44.664H406.884V57H403.62V50.064H403.044L398.22 57ZM417.456 48.288C417.456 47.488 416.752 47.088 415.344 47.088C414 47.088 413.232 47.536 413.04 48.432H409.968C410.096 47.088 410.664 46.072 411.672 45.384C412.68 44.696 413.984 44.352 415.584 44.352C417.184 44.352 418.448 44.688 419.376 45.36C420.32 46.016 420.792 46.864 420.792 47.904C420.792 49.104 420.376 49.888 419.544 50.256V50.88C420.616 51.232 421.152 52.08 421.152 53.424C421.152 54.56 420.64 55.496 419.616 56.232C418.592 56.952 417.248 57.312 415.584 57.312C413.696 57.312 412.248 56.952 411.24 56.232C410.248 55.496 409.68 54.464 409.536 53.136H412.632C412.904 54.096 413.832 54.576 415.416 54.576C417 54.576 417.792 54.136 417.792 53.256C417.792 52.824 417.632 52.512 417.312 52.32C417.008 52.128 416.504 52.032 415.8 52.032H413.784V49.464H415.68C416.864 49.464 417.456 49.072 417.456 48.288ZM424.112 57V44.664H428.576L431.072 49.848H431.696L434.192 44.664H438.632V57H435.368V49.128H434.744L432.776 53.112H429.968L428 49.128H427.376V57H424.112ZM453.654 50.208V51.216H444.822C444.918 53.424 445.918 54.528 447.822 54.528C449.038 54.528 449.806 54.096 450.126 53.232H453.534C453.278 54.512 452.662 55.512 451.686 56.232C450.71 56.952 449.406 57.312 447.774 57.312C445.838 57.312 444.302 56.72 443.166 55.536C442.046 54.352 441.486 52.768 441.486 50.784C441.486 48.816 442.046 47.256 443.166 46.104C444.286 44.936 445.798 44.352 447.702 44.352C449.526 44.352 450.966 44.896 452.022 45.984C453.078 47.072 453.622 48.48 453.654 50.208ZM450.222 48.984C449.998 47.576 449.15 46.872 447.678 46.872C446.206 46.872 445.294 47.576 444.942 48.984H450.222ZM468.359 57H464.999V52.08H459.863V57H456.503V44.664H459.863V49.272H464.999V44.664H468.359V57ZM475.165 57H471.901V44.664H475.165V51.624H475.741L480.517 44.664H483.829V57H480.565V50.064H479.989L475.165 57ZM486.122 57V53.784H486.554C487.354 53.784 487.93 53.504 488.282 52.944C488.634 52.368 488.81 51.336 488.81 49.848V44.664H499.346V57H495.986V47.472H491.906V49.968C491.906 52.544 491.482 54.36 490.634 55.416C489.786 56.472 488.426 57 486.554 57H486.122ZM509.589 57V44.664H514.053L516.549 49.848H517.173L519.669 44.664H524.109V57H520.845V49.128H520.221L518.253 53.112H515.445L513.477 49.128H512.853V57H509.589ZM533.347 44.352C535.299 44.352 536.851 44.944 538.003 46.128C539.155 47.312 539.731 48.88 539.731 50.832C539.731 52.784 539.155 54.352 538.003 55.536C536.851 56.72 535.299 57.312 533.347 57.312C531.411 57.312 529.859 56.72 528.691 55.536C527.539 54.336 526.963 52.768 526.963 50.832C526.963 48.896 527.539 47.336 528.691 46.152C529.859 44.952 531.411 44.352 533.347 44.352ZM533.347 54.528C534.355 54.528 535.107 54.184 535.603 53.496C536.115 52.792 536.371 51.904 536.371 50.832C536.371 49.776 536.115 48.904 535.603 48.216C535.107 47.512 534.355 47.16 533.347 47.16C532.355 47.16 531.603 47.512 531.091 48.216C530.579 48.904 530.323 49.776 530.323 50.832C530.323 51.904 530.579 52.792 531.091 53.496C531.603 54.184 532.355 54.528 533.347 54.528ZM545.853 57H542.589V44.664H545.853V51.624H546.429L551.205 44.664H554.517V57H551.253V50.064H550.677L545.853 57ZM550.317 39.768H552.909C552.813 40.904 552.389 41.792 551.637 42.432C550.901 43.056 549.869 43.368 548.541 43.368C547.213 43.368 546.181 43.056 545.445 42.432C544.709 41.792 544.293 40.904 544.197 39.768H546.789C546.837 40.2 547.005 40.552 547.293 40.824C547.581 41.096 547.997 41.232 548.541 41.232C549.613 41.232 550.205 40.744 550.317 39.768ZM52.624 84.848H55.936C55.776 86.192 55.176 87.272 54.136 88.088C53.112 88.904 51.832 89.312 50.296 89.312C48.392 89.312 46.88 88.728 45.76 87.56C44.64 86.376 44.08 84.8 44.08 82.832C44.08 80.88 44.64 79.312 45.76 78.128C46.88 76.944 48.392 76.352 50.296 76.352C51.832 76.352 53.096 76.744 54.088 77.528C55.096 78.296 55.68 79.32 55.84 80.6H52.504C52.232 79.64 51.504 79.16 50.32 79.16C49.328 79.16 48.6 79.496 48.136 80.168C47.672 80.84 47.44 81.72 47.44 82.808C47.44 83.896 47.672 84.792 48.136 85.496C48.616 86.184 49.344 86.528 50.32 86.528C51.648 86.528 52.416 85.968 52.624 84.848ZM70.5282 89H67.1682V79.472H62.1282V89H58.7682V76.664H70.5282V89ZM79.7609 76.352C81.7129 76.352 83.2649 76.944 84.4169 78.128C85.5689 79.312 86.1449 80.88 86.1449 82.832C86.1449 84.784 85.5689 86.352 84.4169 87.536C83.2649 88.72 81.7129 89.312 79.7609 89.312C77.8249 89.312 76.2729 88.72 75.1049 87.536C73.9529 86.336 73.3769 84.768 73.3769 82.832C73.3769 80.896 73.9529 79.336 75.1049 78.152C76.2729 76.952 77.8249 76.352 79.7609 76.352ZM79.7609 86.528C80.7689 86.528 81.5209 86.184 82.0169 85.496C82.5289 84.792 82.7849 83.904 82.7849 82.832C82.7849 81.776 82.5289 80.904 82.0169 80.216C81.5209 79.512 80.7689 79.16 79.7609 79.16C78.7689 79.16 78.0169 79.512 77.5049 80.216C76.9929 80.904 76.7369 81.776 76.7369 82.832C76.7369 83.904 76.9929 84.792 77.5049 85.496C78.0169 86.184 78.7689 86.528 79.7609 86.528ZM96.8506 84.848H100.163C100.003 86.192 99.4026 87.272 98.3626 88.088C97.3386 88.904 96.0586 89.312 94.5226 89.312C92.6186 89.312 91.1066 88.728 89.9866 87.56C88.8666 86.376 88.3066 84.8 88.3066 82.832C88.3066 80.88 88.8666 79.312 89.9866 78.128C91.1066 76.944 92.6186 76.352 94.5226 76.352C96.0586 76.352 97.3226 76.744 98.3146 77.528C99.3226 78.296 99.9066 79.32 100.067 80.6H96.7306C96.4586 79.64 95.7306 79.16 94.5466 79.16C93.5546 79.16 92.8266 79.496 92.3626 80.168C91.8986 80.84 91.6666 81.72 91.6666 82.808C91.6666 83.896 91.8986 84.792 92.3626 85.496C92.8426 86.184 93.5706 86.528 94.5466 86.528C95.8746 86.528 96.6426 85.968 96.8506 84.848ZM108.683 76.352C110.635 76.352 112.187 76.944 113.339 78.128C114.491 79.312 115.067 80.88 115.067 82.832C115.067 84.784 114.491 86.352 113.339 87.536C112.187 88.72 110.635 89.312 108.683 89.312C106.747 89.312 105.195 88.72 104.027 87.536C102.875 86.336 102.299 84.768 102.299 82.832C102.299 80.896 102.875 79.336 104.027 78.152C105.195 76.952 106.747 76.352 108.683 76.352ZM108.683 86.528C109.691 86.528 110.443 86.184 110.939 85.496C111.451 84.792 111.707 83.904 111.707 82.832C111.707 81.776 111.451 80.904 110.939 80.216C110.443 79.512 109.691 79.16 108.683 79.16C107.691 79.16 106.939 79.512 106.427 80.216C105.915 80.904 105.659 81.776 105.659 82.832C105.659 83.904 105.915 84.792 106.427 85.496C106.939 86.184 107.691 86.528 108.683 86.528ZM124.188 77.072C125.948 77.072 127.364 77.648 128.436 78.8C129.524 79.936 130.068 81.4 130.068 83.192C130.068 84.984 129.476 86.456 128.292 87.608C127.124 88.744 125.588 89.312 123.684 89.312C121.636 89.312 120.044 88.664 118.908 87.368C117.788 86.072 117.228 84.184 117.228 81.704C117.228 76.392 118.852 73.48 122.1 72.968L125.268 72.464C125.748 72.384 126.068 72.288 126.228 72.176C126.388 72.048 126.484 71.84 126.516 71.552H129.228C129.228 72.432 129.06 73.168 128.724 73.76C128.388 74.352 127.724 74.736 126.732 74.912L122.676 75.56C121.812 75.688 121.156 76 120.708 76.496C120.26 76.992 119.948 77.744 119.772 78.752H120.396C121.18 77.632 122.444 77.072 124.188 77.072ZM121.38 85.544C121.908 86.2 122.668 86.528 123.66 86.528C124.652 86.528 125.404 86.2 125.916 85.544C126.428 84.888 126.684 84.072 126.684 83.096C126.684 82.12 126.428 81.312 125.916 80.672C125.404 80.032 124.652 79.712 123.66 79.712C122.652 79.712 121.892 80.032 121.38 80.672C120.868 81.312 120.612 82.12 120.612 83.096C120.612 84.072 120.868 84.888 121.38 85.544ZM151.364 89H148.004V79.472H142.964V89H139.604V76.664H151.364V89ZM160.597 76.352C162.549 76.352 164.101 76.944 165.253 78.128C166.405 79.312 166.981 80.88 166.981 82.832C166.981 84.784 166.405 86.352 165.253 87.536C164.101 88.72 162.549 89.312 160.597 89.312C158.661 89.312 157.109 88.72 155.941 87.536C154.789 86.336 154.213 84.768 154.213 82.832C154.213 80.896 154.789 79.336 155.941 78.152C157.109 76.952 158.661 76.352 160.597 76.352ZM160.597 86.528C161.605 86.528 162.357 86.184 162.853 85.496C163.365 84.792 163.621 83.904 163.621 82.832C163.621 81.776 163.365 80.904 162.853 80.216C162.357 79.512 161.605 79.16 160.597 79.16C159.605 79.16 158.853 79.512 158.341 80.216C157.829 80.904 157.573 81.776 157.573 82.832C157.573 83.904 157.829 84.792 158.341 85.496C158.853 86.184 159.605 86.528 160.597 86.528ZM178.383 89L175.887 84.08H173.199V89H169.839V76.664H173.199V81.272H175.935L178.287 76.664H181.719L178.695 82.616L181.911 89H178.383ZM189.142 93.8H185.782L188.398 87.728L183.166 76.664H186.67L189.742 83.24H190.366L193.198 76.664H196.582L189.142 93.8ZM210.52 89H207.16V79.472H202.12V89H198.76V76.664H210.52V89ZM219.753 76.352C221.705 76.352 223.257 76.944 224.409 78.128C225.561 79.312 226.137 80.88 226.137 82.832C226.137 84.784 225.561 86.352 224.409 87.536C223.257 88.72 221.705 89.312 219.753 89.312C217.817 89.312 216.265 88.72 215.097 87.536C213.945 86.336 213.369 84.768 213.369 82.832C213.369 80.896 213.945 79.336 215.097 78.152C216.265 76.952 217.817 76.352 219.753 76.352ZM219.753 86.528C220.761 86.528 221.513 86.184 222.009 85.496C222.521 84.792 222.777 83.904 222.777 82.832C222.777 81.776 222.521 80.904 222.009 80.216C221.513 79.512 220.761 79.16 219.753 79.16C218.761 79.16 218.009 79.512 217.497 80.216C216.985 80.904 216.729 81.776 216.729 82.832C216.729 83.904 216.985 84.792 217.497 85.496C218.009 86.184 218.761 86.528 219.753 86.528ZM237.539 89L235.043 84.08H232.355V89H228.995V76.664H232.355V81.272H235.091L237.443 76.664H240.875L237.851 82.616L241.067 89H237.539ZM247.243 89H243.547V85.352H247.243V89ZM262.85 71.864H270.914V89H267.338V82.544H262.706L260.402 89H256.802L259.37 81.776C257.674 80.88 256.826 79.352 256.826 77.192C256.826 75.512 257.354 74.208 258.41 73.28C259.466 72.336 260.946 71.864 262.85 71.864ZM267.338 79.496V75.008H263.714C262.53 75.008 261.69 75.184 261.194 75.536C260.714 75.872 260.474 76.44 260.474 77.24C260.474 77.992 260.698 78.56 261.146 78.944C261.594 79.312 262.33 79.496 263.354 79.496H267.338ZM287.595 77.072C289.355 77.072 290.771 77.648 291.843 78.8C292.931 79.936 293.475 81.4 293.475 83.192C293.475 84.984 292.883 86.456 291.699 87.608C290.531 88.744 288.995 89.312 287.091 89.312C285.043 89.312 283.451 88.664 282.315 87.368C281.195 86.072 280.635 84.184 280.635 81.704C280.635 76.392 282.259 73.48 285.507 72.968L288.675 72.464C289.155 72.384 289.475 72.288 289.635 72.176C289.795 72.048 289.891 71.84 289.923 71.552H292.635C292.635 72.432 292.467 73.168 292.131 73.76C291.795 74.352 291.131 74.736 290.139 74.912L286.083 75.56C285.219 75.688 284.563 76 284.115 76.496C283.667 76.992 283.355 77.744 283.179 78.752H283.803C284.587 77.632 285.851 77.072 287.595 77.072ZM284.787 85.544C285.315 86.2 286.075 86.528 287.067 86.528C288.059 86.528 288.811 86.2 289.323 85.544C289.835 84.888 290.091 84.072 290.091 83.096C290.091 82.12 289.835 81.312 289.323 80.672C288.811 80.032 288.059 79.712 287.067 79.712C286.059 79.712 285.299 80.032 284.787 80.672C284.275 81.312 284.019 82.12 284.019 83.096C284.019 84.072 284.275 84.888 284.787 85.544ZM302.019 76.352C303.971 76.352 305.523 76.944 306.675 78.128C307.827 79.312 308.403 80.88 308.403 82.832C308.403 84.784 307.827 86.352 306.675 87.536C305.523 88.72 303.971 89.312 302.019 89.312C300.083 89.312 298.531 88.72 297.363 87.536C296.211 86.336 295.635 84.768 295.635 82.832C295.635 80.896 296.211 79.336 297.363 78.152C298.531 76.952 300.083 76.352 302.019 76.352ZM302.019 86.528C303.027 86.528 303.779 86.184 304.275 85.496C304.787 84.792 305.043 83.904 305.043 82.832C305.043 81.776 304.787 80.904 304.275 80.216C303.779 79.512 303.027 79.16 302.019 79.16C301.027 79.16 300.275 79.512 299.763 80.216C299.251 80.904 298.995 81.776 298.995 82.832C298.995 83.904 299.251 84.792 299.763 85.496C300.275 86.184 301.027 86.528 302.019 86.528ZM310.012 89V85.784H310.444C311.244 85.784 311.82 85.504 312.172 84.944C312.524 84.368 312.7 83.336 312.7 81.848V76.664H323.236V89H319.876V79.472H315.796V81.968C315.796 84.544 315.372 86.36 314.524 87.416C313.676 88.472 312.316 89 310.444 89H310.012ZM330.159 76.664V80.264H333.183C334.767 80.264 335.983 80.648 336.831 81.416C337.695 82.168 338.127 83.224 338.127 84.584C338.127 85.96 337.695 87.04 336.831 87.824C335.983 88.608 334.767 89 333.183 89H326.799V76.664H330.159ZM330.159 86.216H332.703C333.471 86.216 334.007 86.08 334.311 85.808C334.615 85.52 334.767 85.104 334.767 84.56C334.767 84 334.615 83.584 334.311 83.312C334.007 83.04 333.471 82.904 332.703 82.904H330.159V86.216ZM354.616 76.664H357.856V89H340.768V76.664H344.032V86.216H347.704V76.664H350.944V86.216H354.616V76.664ZM372.889 82.208V83.216H364.057C364.153 85.424 365.153 86.528 367.057 86.528C368.273 86.528 369.041 86.096 369.361 85.232H372.769C372.513 86.512 371.897 87.512 370.921 88.232C369.945 88.952 368.641 89.312 367.009 89.312C365.073 89.312 363.537 88.72 362.401 87.536C361.281 86.352 360.721 84.768 360.721 82.784C360.721 80.816 361.281 79.256 362.401 78.104C363.521 76.936 365.033 76.352 366.937 76.352C368.761 76.352 370.201 76.896 371.257 77.984C372.313 79.072 372.857 80.48 372.889 82.208ZM369.457 80.984C369.233 79.576 368.385 78.872 366.913 78.872C365.441 78.872 364.529 79.576 364.177 80.984H369.457ZM394.273 89H390.913V84.08H385.777V89H382.417V76.664H385.777V81.272H390.913V76.664H394.273V89ZM409.287 82.208V83.216H400.455C400.551 85.424 401.551 86.528 403.455 86.528C404.671 86.528 405.439 86.096 405.759 85.232H409.167C408.911 86.512 408.295 87.512 407.319 88.232C406.343 88.952 405.039 89.312 403.407 89.312C401.471 89.312 399.935 88.72 398.799 87.536C397.679 86.352 397.119 84.768 397.119 82.784C397.119 80.816 397.679 79.256 398.799 78.104C399.919 76.936 401.431 76.352 403.335 76.352C405.159 76.352 406.599 76.896 407.655 77.984C408.711 79.072 409.255 80.48 409.287 82.208ZM405.855 80.984C405.631 79.576 404.783 78.872 403.311 78.872C401.839 78.872 400.927 79.576 400.575 80.984H405.855ZM430.575 89H427.215V79.472H422.175V89H418.815V76.664H430.575V89ZM445.592 82.208V83.216H436.76C436.856 85.424 437.856 86.528 439.76 86.528C440.976 86.528 441.744 86.096 442.064 85.232H445.472C445.216 86.512 444.6 87.512 443.624 88.232C442.648 88.952 441.344 89.312 439.712 89.312C437.776 89.312 436.24 88.72 435.104 87.536C433.984 86.352 433.424 84.768 433.424 82.784C433.424 80.816 433.984 79.256 435.104 78.104C436.224 76.936 437.736 76.352 439.64 76.352C441.464 76.352 442.904 76.896 443.96 77.984C445.016 79.072 445.56 80.48 445.592 82.208ZM442.16 80.984C441.936 79.576 441.088 78.872 439.616 78.872C438.144 78.872 437.232 79.576 436.88 80.984H442.16ZM454.68 79.16C453.688 79.16 452.936 79.512 452.424 80.216C451.928 80.904 451.68 81.776 451.68 82.832C451.68 83.888 451.928 84.768 452.424 85.472C452.936 86.176 453.688 86.528 454.68 86.528C455.64 86.528 456.368 86.184 456.864 85.496C457.376 84.808 457.632 83.92 457.632 82.832C457.632 81.76 457.376 80.88 456.864 80.192C456.368 79.504 455.64 79.16 454.68 79.16ZM448.44 76.664H451.68V77.792H452.304C453.072 76.832 454.224 76.352 455.76 76.352C457.36 76.352 458.632 76.96 459.576 78.176C460.52 79.376 460.992 80.928 460.992 82.832C460.992 84.752 460.52 86.312 459.576 87.512C458.632 88.712 457.36 89.312 455.76 89.312C454.256 89.312 453.144 88.832 452.424 87.872H451.8V93.8H448.44V76.664ZM475.311 82.208V83.216H466.479C466.575 85.424 467.575 86.528 469.479 86.528C470.695 86.528 471.463 86.096 471.783 85.232H475.191C474.935 86.512 474.319 87.512 473.343 88.232C472.367 88.952 471.063 89.312 469.431 89.312C467.495 89.312 465.959 88.72 464.823 87.536C463.703 86.352 463.143 84.768 463.143 82.784C463.143 80.816 463.703 79.256 464.823 78.104C465.943 76.936 467.455 76.352 469.359 76.352C471.183 76.352 472.623 76.896 473.679 77.984C474.735 79.072 475.279 80.48 475.311 82.208ZM471.879 80.984C471.655 79.576 470.807 78.872 469.335 78.872C467.863 78.872 466.951 79.576 466.599 80.984H471.879ZM482.863 84.104L480.631 89H477.223L480.127 82.664L477.415 76.664H480.775L482.863 81.296H485.239V76.664H488.359V81.296H490.711L492.799 76.664H496.183L493.447 82.664L496.375 89H492.943L490.711 84.104H488.359V89H485.239V84.104H482.863ZM502.235 89H498.971V76.664H502.235V83.624H502.811L507.587 76.664H510.899V89H507.635V82.064H507.059L502.235 89ZM523.968 82.16V82.784C524.592 82.944 525.096 83.264 525.48 83.744C525.864 84.224 526.056 84.84 526.056 85.592C526.056 87.864 524.6 89 521.688 89H514.44V76.664H521.496C522.728 76.664 523.68 76.944 524.352 77.504C525.04 78.048 525.384 78.808 525.384 79.784C525.384 80.904 524.912 81.696 523.968 82.16ZM517.728 86.576H520.92C522.088 86.576 522.672 86.12 522.672 85.208C522.672 84.28 522.088 83.816 520.92 83.816H517.728V86.576ZM517.728 79.088V81.464H520.584C521.544 81.464 522.024 81.072 522.024 80.288C522.024 79.488 521.544 79.088 520.584 79.088H517.728ZM536.555 89V87.944H535.931C535.147 88.856 533.995 89.312 532.475 89.312C531.131 89.312 530.067 88.92 529.283 88.136C528.499 87.336 528.107 86.36 528.107 85.208C528.107 84.104 528.523 83.144 529.355 82.328C530.187 81.512 531.443 81.104 533.123 81.104H536.411V80.792C536.411 79.512 535.683 78.872 534.227 78.872C532.931 78.872 532.235 79.312 532.139 80.192H528.803C528.835 79.024 529.339 78.096 530.315 77.408C531.291 76.704 532.539 76.352 534.059 76.352C535.819 76.352 537.187 76.728 538.163 77.48C539.155 78.232 539.651 79.4 539.651 80.984V89H536.555ZM533.651 86.648C534.467 86.648 535.131 86.408 535.643 85.928C536.155 85.448 536.411 84.824 536.411 84.056V83.288H533.771C532.235 83.288 531.467 83.84 531.467 84.944C531.467 86.08 532.195 86.648 533.651 86.648ZM554.77 76.352C556.642 76.352 558.162 76.968 559.33 78.2C560.498 79.416 561.082 80.96 561.082 82.832C561.082 84.72 560.498 86.272 559.33 87.488C558.162 88.704 556.642 89.312 554.77 89.312C553.09 89.312 551.69 88.84 550.57 87.896C549.466 86.936 548.802 85.664 548.578 84.08H546.322V89H543.034V76.664H546.322V81.272H548.65C548.938 79.768 549.626 78.576 550.714 77.696C551.818 76.8 553.17 76.352 554.77 76.352ZM554.746 86.528C555.722 86.528 556.458 86.184 556.954 85.496C557.466 84.792 557.722 83.904 557.722 82.832C557.722 81.776 557.466 80.904 556.954 80.216C556.458 79.512 555.722 79.16 554.746 79.16C553.754 79.16 553.002 79.512 552.49 80.216C551.994 80.904 551.746 81.776 551.746 82.832C551.746 83.904 551.994 84.792 552.49 85.496C553.002 86.184 553.754 86.528 554.746 86.528ZM50.464 108.352C52.416 108.352 53.968 108.944 55.12 110.128C56.272 111.312 56.848 112.88 56.848 114.832C56.848 116.784 56.272 118.352 55.12 119.536C53.968 120.72 52.416 121.312 50.464 121.312C48.528 121.312 46.976 120.72 45.808 119.536C44.656 118.336 44.08 116.768 44.08 114.832C44.08 112.896 44.656 111.336 45.808 110.152C46.976 108.952 48.528 108.352 50.464 108.352ZM50.464 118.528C51.472 118.528 52.224 118.184 52.72 117.496C53.232 116.792 53.488 115.904 53.488 114.832C53.488 113.776 53.232 112.904 52.72 112.216C52.224 111.512 51.472 111.16 50.464 111.16C49.472 111.16 48.72 111.512 48.208 112.216C47.696 112.904 47.44 113.776 47.44 114.832C47.44 115.904 47.696 116.792 48.208 117.496C48.72 118.184 49.472 118.528 50.464 118.528ZM64.3684 111.472V108.664H75.8164V111.472H71.7844V121H68.4244V111.472H64.3684ZM85.8991 121V119.944H85.2751C84.4911 120.856 83.3391 121.312 81.8191 121.312C80.4751 121.312 79.4111 120.92 78.6271 120.136C77.8431 119.336 77.4511 118.36 77.4511 117.208C77.4511 116.104 77.8671 115.144 78.6991 114.328C79.5311 113.512 80.7871 113.104 82.4671 113.104H85.7551V112.792C85.7551 111.512 85.0271 110.872 83.5711 110.872C82.2751 110.872 81.5791 111.312 81.4831 112.192H78.1471C78.1791 111.024 78.6831 110.096 79.6591 109.408C80.6351 108.704 81.8831 108.352 83.4031 108.352C85.1631 108.352 86.5311 108.728 87.5071 109.48C88.4991 110.232 88.9951 111.4 88.9951 112.984V121H85.8991ZM82.9951 118.648C83.8111 118.648 84.4751 118.408 84.9871 117.928C85.4991 117.448 85.7551 116.824 85.7551 116.056V115.288H83.1151C81.5791 115.288 80.8111 115.84 80.8111 116.944C80.8111 118.08 81.5391 118.648 82.9951 118.648ZM92.3776 121V108.664H96.8416L99.3376 113.848H99.9616L102.458 108.664H106.898V121H103.634V113.128H103.01L101.042 117.112H98.2336L96.2656 113.128H95.6416V121H92.3776ZM116.136 108.352C118.088 108.352 119.64 108.944 120.792 110.128C121.944 111.312 122.52 112.88 122.52 114.832C122.52 116.784 121.944 118.352 120.792 119.536C119.64 120.72 118.088 121.312 116.136 121.312C114.2 121.312 112.648 120.72 111.48 119.536C110.328 118.336 109.752 116.768 109.752 114.832C109.752 112.896 110.328 111.336 111.48 110.152C112.648 108.952 114.2 108.352 116.136 108.352ZM116.136 118.528C117.144 118.528 117.896 118.184 118.392 117.496C118.904 116.792 119.16 115.904 119.16 114.832C119.16 113.776 118.904 112.904 118.392 112.216C117.896 111.512 117.144 111.16 116.136 111.16C115.144 111.16 114.392 111.512 113.88 112.216C113.368 112.904 113.112 113.776 113.112 114.832C113.112 115.904 113.368 116.792 113.88 117.496C114.392 118.184 115.144 118.528 116.136 118.528ZM129.918 116.104L127.686 121H124.278L127.182 114.664L124.47 108.664H127.83L129.918 113.296H132.294V108.664H135.414V113.296H137.766L139.854 108.664H143.238L140.502 114.664L143.43 121H139.998L137.766 116.104H135.414V121H132.294V116.104H129.918ZM157.146 114.208V115.216H148.314C148.41 117.424 149.41 118.528 151.314 118.528C152.53 118.528 153.298 118.096 153.618 117.232H157.026C156.77 118.512 156.154 119.512 155.178 120.232C154.202 120.952 152.898 121.312 151.266 121.312C149.33 121.312 147.794 120.72 146.658 119.536C145.538 118.352 144.978 116.768 144.978 114.784C144.978 112.816 145.538 111.256 146.658 110.104C147.778 108.936 149.29 108.352 151.194 108.352C153.018 108.352 154.458 108.896 155.514 109.984C156.57 111.072 157.114 112.48 157.146 114.208ZM153.714 112.984C153.49 111.576 152.642 110.872 151.17 110.872C149.698 110.872 148.786 111.576 148.434 112.984H153.714ZM171.851 121H168.491V116.08H163.355V121H159.995V108.664H163.355V113.272H168.491V108.664H171.851V121ZM187.249 121H183.889V116.08H178.753V121H175.393V108.664H178.753V113.272H183.889V108.664H187.249V121ZM190.792 108.664H194.152V112.264H196.936C198.52 112.264 199.736 112.648 200.584 113.416C201.448 114.168 201.88 115.224 201.88 116.584C201.88 117.96 201.448 119.04 200.584 119.824C199.736 120.608 198.52 121 196.936 121H190.792V108.664ZM194.152 114.904V118.216H196.456C197.224 118.216 197.76 118.08 198.064 117.808C198.368 117.52 198.52 117.104 198.52 116.56C198.52 116 198.368 115.584 198.064 115.312C197.76 115.04 197.224 114.904 196.456 114.904H194.152ZM203.728 108.664H207.088V121H203.728V108.664ZM218.947 121L216.547 116.464H215.659L213.211 121H209.659L213.187 114.664L210.019 108.664H213.499L215.707 112.912H216.595L218.851 108.664H222.283L219.067 114.616L222.571 121H218.947ZM241.335 114.16V114.784C241.959 114.944 242.463 115.264 242.847 115.744C243.231 116.224 243.423 116.84 243.423 117.592C243.423 119.864 241.967 121 239.055 121H231.807V108.664H238.863C240.095 108.664 241.047 108.944 241.719 109.504C242.407 110.048 242.751 110.808 242.751 111.784C242.751 112.904 242.279 113.696 241.335 114.16ZM235.095 118.576H238.287C239.455 118.576 240.039 118.12 240.039 117.208C240.039 116.28 239.455 115.816 238.287 115.816H235.095V118.576ZM235.095 111.088V113.464H237.951C238.911 113.464 239.391 113.072 239.391 112.288C239.391 111.488 238.911 111.088 237.951 111.088H235.095ZM252.027 108.352C253.979 108.352 255.531 108.944 256.682 110.128C257.835 111.312 258.411 112.88 258.411 114.832C258.411 116.784 257.835 118.352 256.682 119.536C255.531 120.72 253.979 121.312 252.027 121.312C250.091 121.312 248.539 120.72 247.371 119.536C246.219 118.336 245.643 116.768 245.643 114.832C245.643 112.896 246.219 111.336 247.371 110.152C248.539 108.952 250.091 108.352 252.027 108.352ZM252.027 118.528C253.035 118.528 253.787 118.184 254.283 117.496C254.795 116.792 255.051 115.904 255.051 114.832C255.051 113.776 254.795 112.904 254.283 112.216C253.787 111.512 253.035 111.16 252.027 111.16C251.035 111.16 250.283 111.512 249.771 112.216C249.259 112.904 249.003 113.776 249.003 114.832C249.003 115.904 249.259 116.792 249.771 117.496C250.283 118.184 251.035 118.528 252.027 118.528ZM273.028 121H269.668V111.472H264.628V121H261.268V108.664H273.028V121ZM282.813 111.16C281.821 111.16 281.069 111.512 280.557 112.216C280.061 112.904 279.813 113.776 279.813 114.832C279.813 115.888 280.061 116.768 280.557 117.472C281.069 118.176 281.821 118.528 282.813 118.528C283.773 118.528 284.501 118.184 284.997 117.496C285.509 116.808 285.765 115.92 285.765 114.832C285.765 113.76 285.509 112.88 284.997 112.192C284.501 111.504 283.773 111.16 282.813 111.16ZM276.573 108.664H279.813V109.792H280.437C281.205 108.832 282.357 108.352 283.893 108.352C285.493 108.352 286.765 108.96 287.709 110.176C288.653 111.376 289.125 112.928 289.125 114.832C289.125 116.752 288.653 118.312 287.709 119.512C286.765 120.712 285.493 121.312 283.893 121.312C282.389 121.312 281.277 120.832 280.557 119.872H279.933V125.8H276.573V108.664ZM297.659 108.352C299.611 108.352 301.163 108.944 302.315 110.128C303.467 111.312 304.043 112.88 304.043 114.832C304.043 116.784 303.467 118.352 302.315 119.536C301.163 120.72 299.611 121.312 297.659 121.312C295.723 121.312 294.171 120.72 293.003 119.536C291.851 118.336 291.275 116.768 291.275 114.832C291.275 112.896 291.851 111.336 293.003 110.152C294.171 108.952 295.723 108.352 297.659 108.352ZM297.659 118.528C298.667 118.528 299.419 118.184 299.915 117.496C300.427 116.792 300.683 115.904 300.683 114.832C300.683 113.776 300.427 112.904 299.915 112.216C299.419 111.512 298.667 111.16 297.659 111.16C296.667 111.16 295.915 111.512 295.403 112.216C294.891 112.904 294.635 113.776 294.635 114.832C294.635 115.904 294.891 116.792 295.403 117.496C295.915 118.184 296.667 118.528 297.659 118.528ZM314.749 116.848H318.061C317.901 118.192 317.301 119.272 316.261 120.088C315.237 120.904 313.957 121.312 312.421 121.312C310.517 121.312 309.005 120.728 307.885 119.56C306.765 118.376 306.205 116.8 306.205 114.832C306.205 112.88 306.765 111.312 307.885 110.128C309.005 108.944 310.517 108.352 312.421 108.352C313.957 108.352 315.221 108.744 316.213 109.528C317.221 110.296 317.805 111.32 317.965 112.6H314.629C314.357 111.64 313.629 111.16 312.445 111.16C311.453 111.16 310.725 111.496 310.261 112.168C309.797 112.84 309.565 113.72 309.565 114.808C309.565 115.896 309.797 116.792 310.261 117.496C310.741 118.184 311.469 118.528 312.445 118.528C313.773 118.528 314.541 117.968 314.749 116.848ZM328.477 121V119.944H327.853C327.069 120.856 325.917 121.312 324.397 121.312C323.053 121.312 321.989 120.92 321.205 120.136C320.421 119.336 320.029 118.36 320.029 117.208C320.029 116.104 320.445 115.144 321.277 114.328C322.109 113.512 323.365 113.104 325.045 113.104H328.333V112.792C328.333 111.512 327.605 110.872 326.149 110.872C324.853 110.872 324.157 111.312 324.061 112.192H320.725C320.757 111.024 321.261 110.096 322.237 109.408C323.213 108.704 324.461 108.352 325.981 108.352C327.741 108.352 329.109 108.728 330.085 109.48C331.077 110.232 331.573 111.4 331.573 112.984V121H328.477ZM325.573 118.648C326.389 118.648 327.053 118.408 327.565 117.928C328.077 117.448 328.333 116.824 328.333 116.056V115.288H325.693C324.157 115.288 323.389 115.84 323.389 116.944C323.389 118.08 324.117 118.648 325.573 118.648ZM343.26 121L340.86 116.464H339.972L337.524 121H333.972L337.5 114.664L334.332 108.664H337.812L340.02 112.912H340.908L343.164 108.664H346.596L343.38 114.616L346.884 121H343.26ZM359.384 121H356.12V108.664H359.384V115.624H359.96L364.736 108.664H368.048V121H364.784V114.064H364.208L359.384 121ZM390.244 118.216H392.428V124.432H389.26V121H380.116V124.432H376.948V118.216H378.772C379.492 116.376 379.852 114.376 379.852 112.216V108.664H390.244V118.216ZM386.884 118.216V111.472H382.876V112.24C382.876 114.528 382.572 116.52 381.964 118.216H386.884ZM400.597 108.352C402.549 108.352 404.101 108.944 405.253 110.128C406.405 111.312 406.981 112.88 406.981 114.832C406.981 116.784 406.405 118.352 405.253 119.536C404.101 120.72 402.549 121.312 400.597 121.312C398.661 121.312 397.109 120.72 395.941 119.536C394.789 118.336 394.213 116.768 394.213 114.832C394.213 112.896 394.789 111.336 395.941 110.152C397.109 108.952 398.661 108.352 400.597 108.352ZM400.597 118.528C401.605 118.528 402.357 118.184 402.853 117.496C403.365 116.792 403.621 115.904 403.621 114.832C403.621 113.776 403.365 112.904 402.853 112.216C402.357 111.512 401.605 111.16 400.597 111.16C399.605 111.16 398.853 111.512 398.341 112.216C397.829 112.904 397.573 113.776 397.573 114.832C397.573 115.904 397.829 116.792 398.341 117.496C398.853 118.184 399.605 118.528 400.597 118.528ZM418.383 121L415.887 116.08H413.199V121H409.839V108.664H413.199V113.272H415.935L418.287 108.664H421.719L418.695 114.616L421.911 121H418.383ZM429.142 125.8H425.782L428.398 119.728L423.166 108.664H426.67L429.742 115.24H430.366L433.198 108.664H436.582L429.142 125.8ZM438.76 121V108.664H443.224L445.72 113.848H446.344L448.84 108.664H453.28V121H450.016V113.128H449.392L447.424 117.112H444.616L442.648 113.128H442.024V121H438.76ZM468.303 114.208V115.216H459.471C459.567 117.424 460.567 118.528 462.471 118.528C463.687 118.528 464.455 118.096 464.775 117.232H468.183C467.927 118.512 467.311 119.512 466.335 120.232C465.359 120.952 464.055 121.312 462.423 121.312C460.487 121.312 458.951 120.72 457.815 119.536C456.695 118.352 456.135 116.768 456.135 114.784C456.135 112.816 456.695 111.256 457.815 110.104C458.935 108.936 460.447 108.352 462.351 108.352C464.175 108.352 465.615 108.896 466.671 109.984C467.727 111.072 468.271 112.48 468.303 114.208ZM464.871 112.984C464.647 111.576 463.799 110.872 462.327 110.872C460.855 110.872 459.943 111.576 459.591 112.984H464.871ZM483.007 121H479.647V116.08H474.511V121H471.151V108.664H474.511V113.272H479.647V108.664H483.007V121ZM485.493 111.472V108.664H496.941V111.472H492.909V121H489.549V111.472H485.493ZM507.024 121V119.944H506.4C505.616 120.856 504.464 121.312 502.944 121.312C501.6 121.312 500.536 120.92 499.752 120.136C498.968 119.336 498.576 118.36 498.576 117.208C498.576 116.104 498.992 115.144 499.824 114.328C500.656 113.512 501.912 113.104 503.592 113.104H506.88V112.792C506.88 111.512 506.152 110.872 504.696 110.872C503.4 110.872 502.704 111.312 502.608 112.192H499.272C499.304 111.024 499.808 110.096 500.784 109.408C501.76 108.704 503.008 108.352 504.528 108.352C506.288 108.352 507.656 108.728 508.632 109.48C509.624 110.232 510.12 111.4 510.12 112.984V121H507.024ZM504.12 118.648C504.936 118.648 505.6 118.408 506.112 117.928C506.624 117.448 506.88 116.824 506.88 116.056V115.288H504.24C502.704 115.288 501.936 115.84 501.936 116.944C501.936 118.08 502.664 118.648 504.12 118.648ZM521.807 121L519.407 116.464H518.519L516.071 121H512.519L516.047 114.664L512.879 108.664H516.359L518.567 112.912H519.455L521.711 108.664H525.143L521.927 114.616L525.431 121H521.807ZM541.291 115.672H534.019V112.768H541.291V115.672ZM54.304 146.16V146.784C54.928 146.944 55.432 147.264 55.816 147.744C56.2 148.224 56.392 148.84 56.392 149.592C56.392 151.864 54.936 153 52.024 153H44.776V140.664H51.832C53.064 140.664 54.016 140.944 54.688 141.504C55.376 142.048 55.72 142.808 55.72 143.784C55.72 144.904 55.248 145.696 54.304 146.16ZM48.064 150.576H51.256C52.424 150.576 53.008 150.12 53.008 149.208C53.008 148.28 52.424 147.816 51.256 147.816H48.064V150.576ZM48.064 143.088V145.464H50.92C51.88 145.464 52.36 145.072 52.36 144.288C52.36 143.488 51.88 143.088 50.92 143.088H48.064ZM67.1553 148.848H70.4673C70.3073 150.192 69.7073 151.272 68.6673 152.088C67.6433 152.904 66.3633 153.312 64.8273 153.312C62.9233 153.312 61.4113 152.728 60.2913 151.56C59.1713 150.376 58.6113 148.8 58.6113 146.832C58.6113 144.88 59.1713 143.312 60.2913 142.128C61.4113 140.944 62.9233 140.352 64.8273 140.352C66.3633 140.352 67.6273 140.744 68.6193 141.528C69.6273 142.296 70.2113 143.32 70.3713 144.6H67.0353C66.7633 143.64 66.0353 143.16 64.8513 143.16C63.8593 143.16 63.1313 143.496 62.6673 144.168C62.2033 144.84 61.9713 145.72 61.9713 146.808C61.9713 147.896 62.2033 148.792 62.6673 149.496C63.1473 150.184 63.8753 150.528 64.8513 150.528C66.1793 150.528 66.9473 149.968 67.1553 148.848ZM84.7714 146.208V147.216H75.9394C76.0354 149.424 77.0354 150.528 78.9394 150.528C80.1554 150.528 80.9234 150.096 81.2434 149.232H84.6514C84.3954 150.512 83.7794 151.512 82.8034 152.232C81.8274 152.952 80.5234 153.312 78.8914 153.312C76.9554 153.312 75.4194 152.72 74.2834 151.536C73.1634 150.352 72.6034 148.768 72.6034 146.784C72.6034 144.816 73.1634 143.256 74.2834 142.104C75.4034 140.936 76.9154 140.352 78.8194 140.352C80.6434 140.352 82.0834 140.896 83.1394 141.984C84.1954 143.072 84.7394 144.48 84.7714 146.208ZM81.3394 144.984C81.1154 143.576 80.2674 142.872 78.7954 142.872C77.3234 142.872 76.4114 143.576 76.0594 144.984H81.3394ZM98.9314 157.8H95.5714L98.1874 151.728L92.9554 140.664H96.4594L99.5314 147.24H100.155L102.987 140.664H106.371L98.9314 157.8ZM124.757 146.16V146.784C125.381 146.944 125.885 147.264 126.269 147.744C126.653 148.224 126.845 148.84 126.845 149.592C126.845 151.864 125.389 153 122.477 153H115.229V140.664H122.285C123.517 140.664 124.469 140.944 125.141 141.504C125.829 142.048 126.173 142.808 126.173 143.784C126.173 144.904 125.701 145.696 124.757 146.16ZM118.517 150.576H121.709C122.877 150.576 123.461 150.12 123.461 149.208C123.461 148.28 122.877 147.816 121.709 147.816H118.517V150.576ZM118.517 143.088V145.464H121.373C122.333 145.464 122.813 145.072 122.813 144.288C122.813 143.488 122.333 143.088 121.373 143.088H118.517ZM137.344 153V151.944H136.72C135.936 152.856 134.784 153.312 133.264 153.312C131.92 153.312 130.856 152.92 130.072 152.136C129.288 151.336 128.896 150.36 128.896 149.208C128.896 148.104 129.312 147.144 130.144 146.328C130.976 145.512 132.232 145.104 133.912 145.104H137.2V144.792C137.2 143.512 136.472 142.872 135.016 142.872C133.72 142.872 133.024 143.312 132.928 144.192H129.592C129.624 143.024 130.128 142.096 131.104 141.408C132.08 140.704 133.328 140.352 134.848 140.352C136.608 140.352 137.976 140.728 138.952 141.48C139.944 142.232 140.44 143.4 140.44 144.984V153H137.344ZM134.44 150.648C135.256 150.648 135.92 150.408 136.432 149.928C136.944 149.448 137.2 148.824 137.2 148.056V147.288H134.56C133.024 147.288 132.256 147.84 132.256 148.944C132.256 150.08 132.984 150.648 134.44 150.648ZM151.671 148.848H154.983C154.823 150.192 154.223 151.272 153.183 152.088C152.159 152.904 150.879 153.312 149.343 153.312C147.439 153.312 145.927 152.728 144.807 151.56C143.687 150.376 143.127 148.8 143.127 146.832C143.127 144.88 143.687 143.312 144.807 142.128C145.927 140.944 147.439 140.352 149.343 140.352C150.879 140.352 152.143 140.744 153.135 141.528C154.143 142.296 154.727 143.32 154.887 144.6H151.551C151.279 143.64 150.551 143.16 149.367 143.16C148.375 143.16 147.647 143.496 147.183 144.168C146.719 144.84 146.487 145.72 146.487 146.808C146.487 147.896 146.719 148.792 147.183 149.496C147.663 150.184 148.391 150.528 149.367 150.528C150.695 150.528 151.463 149.968 151.671 148.848ZM174.023 146.16V146.784C174.647 146.944 175.151 147.264 175.535 147.744C175.919 148.224 176.111 148.84 176.111 149.592C176.111 151.864 174.655 153 171.743 153H164.495V140.664H171.551C172.783 140.664 173.735 140.944 174.407 141.504C175.095 142.048 175.439 142.808 175.439 143.784C175.439 144.904 174.967 145.696 174.023 146.16ZM167.783 150.576H170.975C172.143 150.576 172.727 150.12 172.727 149.208C172.727 148.28 172.143 147.816 170.975 147.816H167.783V150.576ZM167.783 143.088V145.464H170.639C171.599 145.464 172.079 145.072 172.079 144.288C172.079 143.488 171.599 143.088 170.639 143.088H167.783ZM197.466 153H194.106V143.472H189.066V153H185.706V140.664H197.466V153ZM206.698 140.352C208.65 140.352 210.202 140.944 211.354 142.128C212.506 143.312 213.082 144.88 213.082 146.832C213.082 148.784 212.506 150.352 211.354 151.536C210.202 152.72 208.65 153.312 206.698 153.312C204.762 153.312 203.21 152.72 202.042 151.536C200.89 150.336 200.314 148.768 200.314 146.832C200.314 144.896 200.89 143.336 202.042 142.152C203.21 140.952 204.762 140.352 206.698 140.352ZM206.698 150.528C207.706 150.528 208.458 150.184 208.954 149.496C209.466 148.792 209.722 147.904 209.722 146.832C209.722 145.776 209.466 144.904 208.954 144.216C208.458 143.512 207.706 143.16 206.698 143.16C205.706 143.16 204.954 143.512 204.442 144.216C203.93 144.904 203.674 145.776 203.674 146.832C203.674 147.904 203.93 148.792 204.442 149.496C204.954 150.184 205.706 150.528 206.698 150.528ZM222.18 143.16C221.188 143.16 220.436 143.512 219.924 144.216C219.428 144.904 219.18 145.776 219.18 146.832C219.18 147.888 219.428 148.768 219.924 149.472C220.436 150.176 221.188 150.528 222.18 150.528C223.14 150.528 223.868 150.184 224.364 149.496C224.876 148.808 225.132 147.92 225.132 146.832C225.132 145.76 224.876 144.88 224.364 144.192C223.868 143.504 223.14 143.16 222.18 143.16ZM215.94 140.664H219.18V141.792H219.804C220.572 140.832 221.724 140.352 223.26 140.352C224.86 140.352 226.132 140.96 227.076 142.176C228.02 143.376 228.492 144.928 228.492 146.832C228.492 148.752 228.02 150.312 227.076 151.512C226.132 152.712 224.86 153.312 223.26 153.312C221.756 153.312 220.644 152.832 219.924 151.872H219.3V157.8H215.94V140.664ZM235.875 140.664H242.139V153H238.779V148.872H235.707L234.123 153H230.811L232.683 148.152C231.467 147.464 230.859 146.344 230.859 144.792C230.859 143.496 231.291 142.488 232.155 141.768C233.035 141.032 234.275 140.664 235.875 140.664ZM238.779 146.4V143.352H236.139C235.419 143.352 234.907 143.48 234.603 143.736C234.315 143.992 234.171 144.368 234.171 144.864C234.171 145.376 234.315 145.76 234.603 146.016C234.907 146.272 235.419 146.4 236.139 146.4H238.779ZM257.635 150.216H259.819V156.432H256.651V153H247.507V156.432H244.339V150.216H246.163C246.883 148.376 247.243 146.376 247.243 144.216V140.664H257.635V150.216ZM254.275 150.216V143.472H250.267V144.24C250.267 146.528 249.963 148.52 249.355 150.216H254.275ZM270.843 153L268.347 148.08H265.659V153H262.299V140.664H265.659V145.272H268.395L270.747 140.664H274.179L271.155 146.616L274.371 153H270.843ZM288.092 146.208V147.216H279.26C279.356 149.424 280.356 150.528 282.26 150.528C283.476 150.528 284.244 150.096 284.564 149.232H287.972C287.716 150.512 287.1 151.512 286.124 152.232C285.148 152.952 283.844 153.312 282.212 153.312C280.276 153.312 278.74 152.72 277.604 151.536C276.484 150.352 275.924 148.768 275.924 146.784C275.924 144.816 276.484 143.256 277.604 142.104C278.724 140.936 280.236 140.352 282.14 140.352C283.964 140.352 285.404 140.896 286.46 141.984C287.516 143.072 288.06 144.48 288.092 146.208ZM284.66 144.984C284.436 143.576 283.588 142.872 282.116 142.872C280.644 142.872 279.732 143.576 279.38 144.984H284.66ZM294.516 153H290.82V149.352H294.516V153ZM315.691 147.528H319.411C319.155 149.272 318.387 150.672 317.107 151.728C315.843 152.784 314.227 153.312 312.259 153.312C309.683 153.312 307.667 152.504 306.211 150.888C304.771 149.256 304.051 147.104 304.051 144.432C304.051 141.76 304.779 139.616 306.235 138C307.691 136.368 309.699 135.552 312.259 135.552C314.131 135.552 315.691 136.04 316.939 137.016C318.187 137.976 318.955 139.256 319.243 140.856H315.499C315.099 139.448 314.019 138.744 312.259 138.744C310.787 138.744 309.659 139.28 308.875 140.352C308.107 141.408 307.723 142.768 307.723 144.432C307.723 146.096 308.107 147.464 308.875 148.536C309.659 149.592 310.787 150.12 312.259 150.12C313.171 150.12 313.923 149.896 314.515 149.448C315.123 148.984 315.515 148.344 315.691 147.528ZM334.106 153H330.746V143.472H325.706V153H322.346V140.664H334.106V153ZM345.235 153V151.944H344.611C343.827 152.856 342.675 153.312 341.155 153.312C339.811 153.312 338.747 152.92 337.963 152.136C337.179 151.336 336.787 150.36 336.787 149.208C336.787 148.104 337.203 147.144 338.035 146.328C338.867 145.512 340.123 145.104 341.803 145.104H345.091V144.792C345.091 143.512 344.363 142.872 342.907 142.872C341.611 142.872 340.915 143.312 340.819 144.192H337.483C337.515 143.024 338.019 142.096 338.995 141.408C339.971 140.704 341.219 140.352 342.739 140.352C344.499 140.352 345.867 140.728 346.843 141.48C347.835 142.232 348.331 143.4 348.331 144.984V153H345.235ZM342.331 150.648C343.147 150.648 343.811 150.408 344.323 149.928C344.835 149.448 345.091 148.824 345.091 148.056V147.288H342.451C340.915 147.288 340.147 147.84 340.147 148.944C340.147 150.08 340.875 150.648 342.331 150.648ZM359.562 148.848H362.874C362.714 150.192 362.114 151.272 361.074 152.088C360.05 152.904 358.77 153.312 357.234 153.312C355.33 153.312 353.818 152.728 352.698 151.56C351.578 150.376 351.018 148.8 351.018 146.832C351.018 144.88 351.578 143.312 352.698 142.128C353.818 140.944 355.33 140.352 357.234 140.352C358.77 140.352 360.034 140.744 361.026 141.528C362.034 142.296 362.618 143.32 362.778 144.6H359.442C359.17 143.64 358.442 143.16 357.258 143.16C356.266 143.16 355.538 143.496 355.074 144.168C354.61 144.84 354.378 145.72 354.378 146.808C354.378 147.896 354.61 148.792 355.074 149.496C355.554 150.184 356.282 150.528 357.258 150.528C358.586 150.528 359.354 149.968 359.562 148.848ZM368.97 153H365.706V140.664H368.97V147.624H369.546L374.322 140.664H377.634V153H374.37V146.064H373.794L368.97 153ZM387.438 141.072C389.198 141.072 390.614 141.648 391.686 142.8C392.774 143.936 393.318 145.4 393.318 147.192C393.318 148.984 392.726 150.456 391.542 151.608C390.374 152.744 388.838 153.312 386.934 153.312C384.886 153.312 383.294 152.664 382.158 151.368C381.038 150.072 380.478 148.184 380.478 145.704C380.478 140.392 382.102 137.48 385.35 136.968L388.518 136.464C388.998 136.384 389.318 136.288 389.478 136.176C389.638 136.048 389.734 135.84 389.766 135.552H392.478C392.478 136.432 392.31 137.168 391.974 137.76C391.638 138.352 390.974 138.736 389.982 138.912L385.926 139.56C385.062 139.688 384.406 140 383.958 140.496C383.51 140.992 383.198 141.744 383.022 142.752H383.646C384.43 141.632 385.694 141.072 387.438 141.072ZM384.63 149.544C385.158 150.2 385.918 150.528 386.91 150.528C387.902 150.528 388.654 150.2 389.166 149.544C389.678 148.888 389.934 148.072 389.934 147.096C389.934 146.12 389.678 145.312 389.166 144.672C388.654 144.032 387.902 143.712 386.91 143.712C385.902 143.712 385.142 144.032 384.63 144.672C384.118 145.312 383.862 146.12 383.862 147.096C383.862 148.072 384.118 148.888 384.63 149.544ZM401.862 140.352C403.814 140.352 405.366 140.944 406.518 142.128C407.67 143.312 408.246 144.88 408.246 146.832C408.246 148.784 407.67 150.352 406.518 151.536C405.366 152.72 403.814 153.312 401.862 153.312C399.926 153.312 398.374 152.72 397.206 151.536C396.054 150.336 395.478 148.768 395.478 146.832C395.478 144.896 396.054 143.336 397.206 142.152C398.374 140.952 399.926 140.352 401.862 140.352ZM401.862 150.528C402.87 150.528 403.622 150.184 404.118 149.496C404.63 148.792 404.886 147.904 404.886 146.832C404.886 145.776 404.63 144.904 404.118 144.216C403.622 143.512 402.87 143.16 401.862 143.16C400.87 143.16 400.118 143.512 399.606 144.216C399.094 144.904 398.838 145.776 398.838 146.832C398.838 147.904 399.094 148.792 399.606 149.496C400.118 150.184 400.87 150.528 401.862 150.528ZM424.816 144.288C424.816 143.488 424.112 143.088 422.704 143.088C421.36 143.088 420.592 143.536 420.4 144.432H417.328C417.456 143.088 418.024 142.072 419.032 141.384C420.04 140.696 421.344 140.352 422.944 140.352C424.544 140.352 425.808 140.688 426.736 141.36C427.68 142.016 428.152 142.864 428.152 143.904C428.152 145.104 427.736 145.888 426.904 146.256V146.88C427.976 147.232 428.512 148.08 428.512 149.424C428.512 150.56 428 151.496 426.976 152.232C425.952 152.952 424.608 153.312 422.944 153.312C421.056 153.312 419.608 152.952 418.6 152.232C417.608 151.496 417.04 150.464 416.896 149.136H419.992C420.264 150.096 421.192 150.576 422.776 150.576C424.36 150.576 425.152 150.136 425.152 149.256C425.152 148.824 424.992 148.512 424.672 148.32C424.368 148.128 423.864 148.032 423.16 148.032H421.144V145.464H423.04C424.224 145.464 424.816 145.072 424.816 144.288ZM439.055 153V151.944H438.431C437.647 152.856 436.495 153.312 434.975 153.312C433.631 153.312 432.567 152.92 431.783 152.136C430.999 151.336 430.607 150.36 430.607 149.208C430.607 148.104 431.023 147.144 431.855 146.328C432.687 145.512 433.943 145.104 435.623 145.104H438.911V144.792C438.911 143.512 438.183 142.872 436.727 142.872C435.431 142.872 434.735 143.312 434.639 144.192H431.303C431.335 143.024 431.839 142.096 432.815 141.408C433.791 140.704 435.039 140.352 436.559 140.352C438.319 140.352 439.687 140.728 440.663 141.48C441.655 142.232 442.151 143.4 442.151 144.984V153H439.055ZM436.151 150.648C436.967 150.648 437.631 150.408 438.143 149.928C438.655 149.448 438.911 148.824 438.911 148.056V147.288H436.271C434.735 147.288 433.967 147.84 433.967 148.944C433.967 150.08 434.695 150.648 436.151 150.648ZM461.742 146.16V146.784C462.366 146.944 462.87 147.264 463.254 147.744C463.638 148.224 463.83 148.84 463.83 149.592C463.83 151.864 462.374 153 459.462 153H452.214V140.664H459.27C460.502 140.664 461.454 140.944 462.126 141.504C462.814 142.048 463.158 142.808 463.158 143.784C463.158 144.904 462.686 145.696 461.742 146.16ZM455.502 150.576H458.694C459.862 150.576 460.446 150.12 460.446 149.208C460.446 148.28 459.862 147.816 458.694 147.816H455.502V150.576ZM455.502 143.088V145.464H458.358C459.318 145.464 459.798 145.072 459.798 144.288C459.798 143.488 459.318 143.088 458.358 143.088H455.502ZM474.329 153V151.944H473.705C472.921 152.856 471.769 153.312 470.249 153.312C468.905 153.312 467.841 152.92 467.057 152.136C466.273 151.336 465.881 150.36 465.881 149.208C465.881 148.104 466.297 147.144 467.129 146.328C467.961 145.512 469.217 145.104 470.897 145.104H474.185V144.792C474.185 143.512 473.457 142.872 472.001 142.872C470.705 142.872 470.009 143.312 469.913 144.192H466.577C466.609 143.024 467.113 142.096 468.089 141.408C469.065 140.704 470.313 140.352 471.833 140.352C473.593 140.352 474.961 140.728 475.937 141.48C476.929 142.232 477.425 143.4 477.425 144.984V153H474.329ZM471.425 150.648C472.241 150.648 472.905 150.408 473.417 149.928C473.929 149.448 474.185 148.824 474.185 148.056V147.288H471.545C470.009 147.288 469.241 147.84 469.241 148.944C469.241 150.08 469.969 150.648 471.425 150.648ZM494.655 140.664H497.895V153H480.807V140.664H484.071V150.216H487.743V140.664H490.983V150.216H494.655V140.664ZM512.928 146.208V147.216H504.096C504.192 149.424 505.192 150.528 507.096 150.528C508.312 150.528 509.08 150.096 509.4 149.232H512.808C512.552 150.512 511.936 151.512 510.96 152.232C509.984 152.952 508.68 153.312 507.048 153.312C505.112 153.312 503.576 152.72 502.44 151.536C501.32 150.352 500.76 148.768 500.76 146.784C500.76 144.816 501.32 143.256 502.44 142.104C503.56 140.936 505.072 140.352 506.976 140.352C508.8 140.352 510.24 140.896 511.296 141.984C512.352 143.072 512.896 144.48 512.928 146.208ZM509.496 144.984C509.272 143.576 508.424 142.872 506.952 142.872C505.48 142.872 504.568 143.576 504.216 144.984H509.496ZM53.32 185L50.824 180.08H48.136V185H44.776V172.664H48.136V177.272H50.872L53.224 172.664H56.656L53.632 178.616L56.848 185H53.32ZM67.0319 185V183.944H66.4079C65.6239 184.856 64.4719 185.312 62.9519 185.312C61.6079 185.312 60.5439 184.92 59.7599 184.136C58.9759 183.336 58.5839 182.36 58.5839 181.208C58.5839 180.104 58.9999 179.144 59.8319 178.328C60.6639 177.512 61.9199 177.104 63.5999 177.104H66.8879V176.792C66.8879 175.512 66.1599 174.872 64.7039 174.872C63.4079 174.872 62.7119 175.312 62.6159 176.192H59.2799C59.3119 175.024 59.8159 174.096 60.7919 173.408C61.7679 172.704 63.0159 172.352 64.5359 172.352C66.2959 172.352 67.6639 172.728 68.6399 173.48C69.6319 174.232 70.1279 175.4 70.1279 176.984V185H67.0319ZM64.1279 182.648C64.9439 182.648 65.6079 182.408 66.1199 181.928C66.6319 181.448 66.8879 180.824 66.8879 180.056V179.288H64.2479C62.7119 179.288 61.9439 179.84 61.9439 180.944C61.9439 182.08 62.6719 182.648 64.1279 182.648ZM72.8144 172.664H76.1984V176.264C76.1984 176.536 76.2144 176.768 76.2464 176.96C76.2944 177.136 76.3904 177.328 76.5344 177.536C76.6784 177.728 76.9184 177.88 77.2544 177.992C77.5904 178.088 78.0144 178.136 78.5264 178.136C79.3424 178.136 80.1184 178.048 80.8544 177.872V172.664H84.2144V185H80.8544V180.584C79.7824 180.808 78.6384 180.92 77.4224 180.92C76.4304 180.92 75.6064 180.816 74.9504 180.608C74.3104 180.384 73.8384 180.064 73.5344 179.648C73.2464 179.232 73.0544 178.816 72.9584 178.4C72.8624 177.984 72.8144 177.488 72.8144 176.912V172.664ZM99.0683 178.208V179.216H90.2363C90.3323 181.424 91.3323 182.528 93.2363 182.528C94.4523 182.528 95.2203 182.096 95.5403 181.232H98.9483C98.6923 182.512 98.0763 183.512 97.1003 184.232C96.1243 184.952 94.8203 185.312 93.1883 185.312C91.2523 185.312 89.7163 184.72 88.5803 183.536C87.4603 182.352 86.9003 180.768 86.9003 178.784C86.9003 176.816 87.4603 175.256 88.5803 174.104C89.7003 172.936 91.2123 172.352 93.1163 172.352C94.9403 172.352 96.3803 172.896 97.4363 173.984C98.4923 175.072 99.0363 176.48 99.0683 178.208ZM95.6363 176.984C95.4123 175.576 94.5643 174.872 93.0923 174.872C91.6203 174.872 90.7083 175.576 90.3563 176.984H95.6363ZM109.765 180.848H113.077C112.917 182.192 112.317 183.272 111.277 184.088C110.253 184.904 108.973 185.312 107.437 185.312C105.533 185.312 104.021 184.728 102.901 183.56C101.781 182.376 101.221 180.8 101.221 178.832C101.221 176.88 101.781 175.312 102.901 174.128C104.021 172.944 105.533 172.352 107.437 172.352C108.973 172.352 110.237 172.744 111.229 173.528C112.237 174.296 112.821 175.32 112.981 176.6H109.645C109.373 175.64 108.645 175.16 107.461 175.16C106.469 175.16 105.741 175.496 105.277 176.168C104.813 176.84 104.581 177.72 104.581 178.808C104.581 179.896 104.813 180.792 105.277 181.496C105.757 182.184 106.485 182.528 107.461 182.528C108.789 182.528 109.557 181.968 109.765 180.848ZM114.853 175.472V172.664H126.301V175.472H122.269V185H118.909V175.472H114.853ZM138.327 178.16V178.784C138.951 178.944 139.455 179.264 139.839 179.744C140.223 180.224 140.415 180.84 140.415 181.592C140.415 183.864 138.959 185 136.047 185H128.799V172.664H135.855C137.087 172.664 138.039 172.944 138.711 173.504C139.399 174.048 139.743 174.808 139.743 175.784C139.743 176.904 139.271 177.696 138.327 178.16ZM132.087 182.576H135.279C136.447 182.576 137.031 182.12 137.031 181.208C137.031 180.28 136.447 179.816 135.279 179.816H132.087V182.576ZM132.087 175.088V177.464H134.943C135.903 177.464 136.383 177.072 136.383 176.288C136.383 175.488 135.903 175.088 134.943 175.088H132.087ZM149.019 172.352C150.971 172.352 152.523 172.944 153.675 174.128C154.827 175.312 155.403 176.88 155.403 178.832C155.403 180.784 154.827 182.352 153.675 183.536C152.523 184.72 150.971 185.312 149.019 185.312C147.083 185.312 145.531 184.72 144.363 183.536C143.211 182.336 142.635 180.768 142.635 178.832C142.635 176.896 143.211 175.336 144.363 174.152C145.531 172.952 147.083 172.352 149.019 172.352ZM149.019 182.528C150.027 182.528 150.779 182.184 151.275 181.496C151.787 180.792 152.043 179.904 152.043 178.832C152.043 177.776 151.787 176.904 151.275 176.216C150.779 175.512 150.027 175.16 149.019 175.16C148.027 175.16 147.275 175.512 146.763 176.216C146.251 176.904 145.995 177.776 145.995 178.832C145.995 179.904 146.251 180.792 146.763 181.496C147.275 182.184 148.027 182.528 149.019 182.528ZM168.204 185H164.94V172.664H168.204V179.624H168.78L173.556 172.664H176.868V185H173.604V178.064H173.028L168.204 185ZM198.945 185H195.585V180.08H190.449V185H187.089V172.664H190.449V177.272H195.585V172.664H198.945V185ZM210.071 185V183.944H209.447C208.663 184.856 207.511 185.312 205.991 185.312C204.647 185.312 203.583 184.92 202.799 184.136C202.015 183.336 201.623 182.36 201.623 181.208C201.623 180.104 202.039 179.144 202.871 178.328C203.703 177.512 204.959 177.104 206.639 177.104H209.927V176.792C209.927 175.512 209.199 174.872 207.743 174.872C206.447 174.872 205.751 175.312 205.655 176.192H202.319C202.351 175.024 202.855 174.096 203.831 173.408C204.807 172.704 206.055 172.352 207.575 172.352C209.335 172.352 210.703 172.728 211.679 173.48C212.671 174.232 213.167 175.4 213.167 176.984V185H210.071ZM207.167 182.648C207.983 182.648 208.647 182.408 209.159 181.928C209.671 181.448 209.927 180.824 209.927 180.056V179.288H207.287C205.751 179.288 204.983 179.84 204.983 180.944C204.983 182.08 205.711 182.648 207.167 182.648ZM228.525 182.216H230.709V188.432H227.541V185H218.397V188.432H215.229V182.216H217.053C217.773 180.376 218.133 178.376 218.133 176.216V172.664H228.525V182.216ZM225.165 182.216V175.472H221.157V176.24C221.157 178.528 220.853 180.52 220.245 182.216H225.165ZM244.662 178.208V179.216H235.83C235.926 181.424 236.926 182.528 238.83 182.528C240.046 182.528 240.814 182.096 241.134 181.232H244.542C244.286 182.512 243.67 183.512 242.694 184.232C241.718 184.952 240.414 185.312 238.782 185.312C236.846 185.312 235.31 184.72 234.174 183.536C233.054 182.352 232.494 180.768 232.494 178.784C232.494 176.816 233.054 175.256 234.174 174.104C235.294 172.936 236.806 172.352 238.71 172.352C240.534 172.352 241.974 172.896 243.03 173.984C244.086 175.072 244.63 176.48 244.662 178.208ZM241.23 176.984C241.006 175.576 240.158 174.872 238.686 174.872C237.214 174.872 236.302 175.576 235.95 176.984H241.23ZM252.214 180.104L249.982 185H246.574L249.478 178.664L246.766 172.664H250.126L252.214 177.296H254.59V172.664H257.71V177.296H260.062L262.15 172.664H265.534L262.798 178.664L265.726 185H262.294L260.062 180.104H257.71V185H254.59V180.104H252.214ZM280.179 185H276.819V180.08H271.683V185H268.323V172.664H271.683V177.272H276.819V172.664H280.179V185ZM289.409 172.352C291.361 172.352 292.913 172.944 294.065 174.128C295.217 175.312 295.793 176.88 295.793 178.832C295.793 180.784 295.217 182.352 294.065 183.536C292.913 184.72 291.361 185.312 289.409 185.312C287.473 185.312 285.921 184.72 284.753 183.536C283.601 182.336 283.025 180.768 283.025 178.832C283.025 176.896 283.601 175.336 284.753 174.152C285.921 172.952 287.473 172.352 289.409 172.352ZM289.409 182.528C290.417 182.528 291.169 182.184 291.665 181.496C292.177 180.792 292.433 179.904 292.433 178.832C292.433 177.776 292.177 176.904 291.665 176.216C291.169 175.512 290.417 175.16 289.409 175.16C288.417 175.16 287.665 175.512 287.153 176.216C286.641 176.904 286.385 177.776 286.385 178.832C286.385 179.904 286.641 180.792 287.153 181.496C287.665 182.184 288.417 182.528 289.409 182.528ZM306.499 180.848H309.811C309.651 182.192 309.051 183.272 308.011 184.088C306.987 184.904 305.707 185.312 304.171 185.312C302.267 185.312 300.755 184.728 299.635 183.56C298.515 182.376 297.955 180.8 297.955 178.832C297.955 176.88 298.515 175.312 299.635 174.128C300.755 172.944 302.267 172.352 304.171 172.352C305.707 172.352 306.971 172.744 307.963 173.528C308.971 174.296 309.555 175.32 309.715 176.6H306.379C306.107 175.64 305.379 175.16 304.195 175.16C303.203 175.16 302.475 175.496 302.011 176.168C301.547 176.84 301.315 177.72 301.315 178.808C301.315 179.896 301.547 180.792 302.011 181.496C302.491 182.184 303.219 182.528 304.195 182.528C305.523 182.528 306.291 181.968 306.499 180.848ZM311.587 175.472V172.664H323.035V175.472H319.003V185H315.643V175.472H311.587ZM328.894 172.664V176.264H331.918C333.502 176.264 334.718 176.648 335.566 177.416C336.43 178.168 336.862 179.224 336.862 180.584C336.862 181.96 336.43 183.04 335.566 183.824C334.718 184.608 333.502 185 331.918 185H325.534V172.664H328.894ZM328.894 182.216H331.438C332.206 182.216 332.742 182.08 333.046 181.808C333.35 181.52 333.502 181.104 333.502 180.56C333.502 180 333.35 179.584 333.046 179.312C332.742 179.04 332.206 178.904 331.438 178.904H328.894V182.216Z" fill="#111827"/>
<path d="M46.84 309.56H57.304V311H45.256V293.864H56.896V295.304H46.84V301.352H55.024V302.792H46.84V309.56ZM68.8356 311L66.0756 305.48H62.0676V311H60.5556V299H62.0676V304.136H66.0996L68.6916 299H70.3236L67.3956 304.784L70.4916 311H68.8356ZM81.2451 311V309.656H80.7651C80.3811 310.152 79.8451 310.552 79.1571 310.856C78.4851 311.16 77.7251 311.312 76.8771 311.312C75.5171 311.312 74.4531 310.936 73.6851 310.184C72.9171 309.432 72.5331 308.52 72.5331 307.448C72.5331 306.36 72.8931 305.432 73.6131 304.664C74.3491 303.896 75.4851 303.512 77.0211 303.512H81.1971V302.768C81.1971 301.952 80.9331 301.296 80.4051 300.8C79.8771 300.288 79.0611 300.032 77.9571 300.032C76.9811 300.032 76.2291 300.216 75.7011 300.584C75.1731 300.936 74.8851 301.44 74.8371 302.096H73.3251C73.4211 301.024 73.8851 300.192 74.7171 299.6C75.5491 298.992 76.6291 298.688 77.9571 298.688C79.4131 298.688 80.5651 299.04 81.4131 299.744C82.2771 300.448 82.7091 301.424 82.7091 302.672V311H81.2451ZM77.0931 309.968C78.2291 309.968 79.1971 309.616 79.9971 308.912C80.7971 308.192 81.1971 307.288 81.1971 306.2V304.784H77.4291C76.3411 304.784 75.5011 305.016 74.9091 305.48C74.3331 305.928 74.0451 306.544 74.0451 307.328C74.0451 308.16 74.3171 308.808 74.8611 309.272C75.4211 309.736 76.1651 309.968 77.0931 309.968ZM85.0872 300.344V299H95.0712V300.344H90.8472V311H89.3352V300.344H85.0872ZM107.667 304.256V304.736H98.3309V305.072C98.3309 306.56 98.7069 307.752 99.4589 308.648C100.227 309.528 101.251 309.968 102.531 309.968C104.371 309.968 105.499 309.256 105.915 307.832H107.427C107.219 308.856 106.699 309.696 105.867 310.352C105.035 310.992 103.923 311.312 102.531 311.312C100.739 311.312 99.3389 310.704 98.3309 309.488C97.3229 308.272 96.8189 306.728 96.8189 304.856C96.8189 303 97.3229 301.512 98.3309 300.392C99.3549 299.256 100.747 298.688 102.507 298.688C104.155 298.688 105.427 299.232 106.323 300.32C107.219 301.408 107.667 302.72 107.667 304.256ZM102.459 300.032C101.307 300.032 100.379 300.36 99.6749 301.016C98.9869 301.672 98.5709 302.464 98.4269 303.392H106.107C106.043 302.464 105.691 301.672 105.051 301.016C104.411 300.36 103.547 300.032 102.459 300.032ZM116.802 311.312C115.106 311.312 113.826 310.76 112.962 309.656H112.482V315.8H110.97V299H112.434V300.344H112.914C113.794 299.24 115.09 298.688 116.802 298.688C118.434 298.688 119.73 299.288 120.69 300.488C121.666 301.672 122.154 303.176 122.154 305C122.154 306.84 121.674 308.352 120.714 309.536C119.754 310.72 118.45 311.312 116.802 311.312ZM116.61 300.032C115.234 300.032 114.202 300.512 113.514 301.472C112.826 302.432 112.482 303.608 112.482 305C112.482 306.408 112.826 307.592 113.514 308.552C114.202 309.496 115.234 309.968 116.61 309.968C117.89 309.968 118.882 309.52 119.586 308.624C120.29 307.712 120.642 306.504 120.642 305C120.642 303.496 120.29 302.296 119.586 301.4C118.882 300.488 117.89 300.032 116.61 300.032ZM128.118 311H125.454V299H126.966V309.512H127.446L133.014 299H135.798V311H134.286V300.488H133.806L128.118 311ZM150.212 311H148.7V305.48H141.38V311H139.868V299H141.38V304.136H148.7V299H150.212V311ZM162.034 311V309.656H161.554C161.17 310.152 160.634 310.552 159.946 310.856C159.274 311.16 158.514 311.312 157.666 311.312C156.306 311.312 155.242 310.936 154.474 310.184C153.706 309.432 153.322 308.52 153.322 307.448C153.322 306.36 153.682 305.432 154.402 304.664C155.138 303.896 156.274 303.512 157.81 303.512H161.986V302.768C161.986 301.952 161.722 301.296 161.194 300.8C160.666 300.288 159.85 300.032 158.746 300.032C157.77 300.032 157.018 300.216 156.49 300.584C155.962 300.936 155.674 301.44 155.626 302.096H154.114C154.21 301.024 154.674 300.192 155.506 299.6C156.338 298.992 157.418 298.688 158.746 298.688C160.202 298.688 161.354 299.04 162.202 299.744C163.066 300.448 163.498 301.424 163.498 302.672V311H162.034ZM157.882 309.968C159.018 309.968 159.986 309.616 160.786 308.912C161.586 308.192 161.986 307.288 161.986 306.2V304.784H158.218C157.13 304.784 156.29 305.016 155.698 305.48C155.122 305.928 154.834 306.544 154.834 307.328C154.834 308.16 155.106 308.808 155.65 309.272C156.21 309.736 156.954 309.968 157.882 309.968Z" fill="#6B7280"/>
<path d="M566.539 267.589C566.539 272.232 565.834 276.22 564.426 279.554C563.018 283.006 561.198 285.804 558.968 287.946C556.738 290.208 554.215 291.815 551.398 292.768C548.464 293.839 545.588 294.375 542.771 294.375L542.771 288.125C545.823 288.125 548.698 287.054 551.398 284.911C553.98 282.887 555.506 280.089 555.975 276.518C555.623 276.637 555.212 276.756 554.743 276.875C554.391 276.994 553.98 277.113 553.511 277.232C552.924 277.351 552.278 277.411 551.574 277.411C548.053 277.411 545.119 276.042 542.771 273.304C540.424 270.685 539.25 267.589 539.25 264.018C539.25 260.446 540.482 257.292 542.947 254.554C545.295 251.935 548.464 250.625 552.454 250.625C556.914 250.625 560.377 252.292 562.842 255.625C565.306 259.077 566.539 263.065 566.539 267.589ZM601.75 267.589C601.75 272.232 601.046 276.22 599.637 279.554C598.229 283.006 596.41 285.804 594.18 287.946C591.95 290.208 589.426 291.815 586.609 292.768C583.675 293.839 580.799 294.375 577.982 294.375L577.982 288.125C581.034 288.125 583.91 287.054 586.609 284.911C589.191 282.887 590.717 280.089 591.187 276.518C590.835 276.637 590.424 276.756 589.954 276.875C589.602 276.994 589.191 277.113 588.722 277.232C588.135 277.351 587.489 277.411 586.785 277.411C583.264 277.411 580.33 276.042 577.982 273.304C575.635 270.685 574.461 267.589 574.461 264.018C574.461 260.446 575.694 257.292 578.158 254.554C580.506 251.935 583.675 250.625 587.665 250.625C592.126 250.625 595.588 252.292 598.053 255.625C600.518 259.077 601.75 263.065 601.75 267.589Z" fill="#EDE9FE"/>
</svg>
